<?xml version="1.0" encoding="UTF-8" standalone="no"?>
<!-- Created with Inkscape (http://www.inkscape.org/) -->

<svg
   xmlns:dc="http://purl.org/dc/elements/1.1/"
   xmlns:cc="http://creativecommons.org/ns#"
   xmlns:rdf="http://www.w3.org/1999/02/22-rdf-syntax-ns#"
   xmlns:svg="http://www.w3.org/2000/svg"
   xmlns="http://www.w3.org/2000/svg"
   xmlns:sodipodi="http://sodipodi.sourceforge.net/DTD/sodipodi-0.dtd"
   xmlns:inkscape="http://www.inkscape.org/namespaces/inkscape"
   width="744.09448"
   height="1052.3622"
   id="svg2"
   version="1.1"
   inkscape:version="0.48.4 r9939"
   sodipodi:docname="PCB_CNC_V1.svg">
  <defs
     id="defs4" />
  <sodipodi:namedview
     id="base"
     pagecolor="#ffffff"
     bordercolor="#666666"
     borderopacity="1.0"
     inkscape:pageopacity="0.0"
     inkscape:pageshadow="2"
     inkscape:zoom="0.35"
     inkscape:cx="935.91248"
     inkscape:cy="793.50254"
     inkscape:document-units="mm"
     inkscape:current-layer="layer1"
     showgrid="true"
     inkscape:window-width="1788"
     inkscape:window-height="1058"
     inkscape:window-x="-8"
     inkscape:window-y="-8"
     inkscape:window-maximized="1"
     units="mm"
     inkscape:snap-bbox="true"
     showguides="true"
     inkscape:guide-bbox="true"
     showborder="false"
     inkscape:snap-nodes="true"
     inkscape:snap-grids="false"
     inkscape:snap-bbox-midpoints="true"
     inkscape:object-nodes="true"
     inkscape:object-paths="false"
     inkscape:snap-intersection-paths="true"
     inkscape:bbox-nodes="true">
    <sodipodi:guide
       orientation="0,1"
       position="0,0"
       id="guide3009" />
    <sodipodi:guide
       orientation="1,0"
       position="0,0"
       id="guide3011" />
    <inkscape:grid
       type="xygrid"
       id="grid3013"
       empspacing="5"
       visible="true"
       enabled="true"
       snapvisiblegridlinesonly="true"
       units="mm"
       spacingx="1mm"
       spacingy="1mm" />
    <sodipodi:guide
       orientation="0,1"
       position="265.74803,77.952756"
       id="guide3015" />
    <sodipodi:guide
       orientation="1,0"
       position="141.78571,135.35714"
       id="guide3785" />
    <sodipodi:guide
       orientation="1,0"
       position="407.48031,77.952756"
       id="guide3789" />
    <sodipodi:guide
       orientation="0,1"
       position="1207.9918,506.14787"
       id="guide3795" />
    <sodipodi:guide
       orientation="0,1"
       position="1132.9862,523.9999"
       id="guide3797" />
    <sodipodi:guide
       orientation="1,0"
       position="1093.0969,57.651695"
       id="guide3832" />
    <sodipodi:guide
       orientation="0,1"
       position="1093.0969,339.91633"
       id="guide3012" />
    <sodipodi:guide
       orientation="0,1"
       position="1056.1145,28.284271"
       id="guide3014" />
    <sodipodi:guide
       orientation="0,1"
       position="1076.8226,311.63206"
       id="guide3016" />
    <sodipodi:guide
       orientation="1,0"
       position="1133.7893,424.80821"
       id="guide3018" />
    <sodipodi:guide
       orientation="1,0"
       position="1282.6082,424.80821"
       id="guide3020" />
    <sodipodi:guide
       orientation="0,1"
       position="1086.5179,453.48214"
       id="guide3022" />
    <sodipodi:guide
       orientation="1,0"
       position="1435,655.35714"
       id="guide3032" />
  </sodipodi:namedview>
  <metadata
     id="metadata7">
    <rdf:RDF>
      <cc:Work
         rdf:about="">
        <dc:format>image/svg+xml</dc:format>
        <dc:type
           rdf:resource="http://purl.org/dc/dcmitype/StillImage" />
        <dc:title />
      </cc:Work>
    </rdf:RDF>
  </metadata>
  <g
     inkscape:label="Layer 1"
     inkscape:groupmode="layer"
     id="layer1"
     transform="translate(0,-2.5390623e-6)">
    <rect
       style="fill:#aaffcc;stroke:#000000;stroke-opacity:1;stroke-width:0.35433070999999999;stroke-miterlimit:4;stroke-dasharray:none"
       id="rect2989"
       width="531.49603"
       height="159.44882"
       x="0"
       y="892.91339" />
    <rect
       style="fill:#ffb380;stroke:#000000;stroke-width:0.35456669;stroke-linecap:butt;stroke-linejoin:miter;stroke-miterlimit:4;stroke-opacity:1;stroke-dasharray:none"
       id="rect2987"
       width="531.22302"
       height="565.94867"
       x="0.17728335"
       y="327.32935" />
    <rect
       style="fill:#de8787;stroke:#000000;stroke-width:0.35433071999999999;stroke-linecap:butt;stroke-linejoin:miter;stroke-miterlimit:4;stroke-opacity:1;stroke-dasharray:none"
       id="rect2985"
       width="354.33072"
       height="248.03149"
       x="88.459702"
       y="643.75934" />
    <rect
       style="fill:#00ffcc;stroke:#000000;stroke-width:0.35433071999999999;stroke-miterlimit:4;stroke-opacity:1;stroke-dasharray:none"
       id="rect2989-1"
       width="531.49603"
       height="566.92914"
       x="532.216"
       y="327.30313" />
    <path
       sodipodi:type="arc"
       style="fill:none;stroke:#ff0000;stroke-opacity:1"
       id="path3021"
       sodipodi:cx="255.1181"
       sodipodi:cy="976.18109"
       sodipodi:rx="67.322838"
       sodipodi:ry="47.834644"
       d="m 322.44094,976.18109 c 0,26.41831 -30.14146,47.83461 -67.32284,47.83461 -37.18137,0 -67.32283,-21.4163 -67.32283,-47.83461 0,-26.41834 30.14146,-47.83464 67.32283,-47.83464 37.18138,0 67.32284,21.4163 67.32284,47.83464 z"
       transform="matrix(0.57894734,0,0,0.81481484,118.04808,179.00259)" />
    <path
       sodipodi:type="arc"
       style="fill:none;stroke:#ff0000;stroke-opacity:1"
       id="path3021-1"
       sodipodi:cx="255.1181"
       sodipodi:cy="976.18109"
       sodipodi:rx="67.322838"
       sodipodi:ry="47.834644"
       d="m 322.44094,976.18109 c 0,26.41831 -30.14146,47.83461 -67.32284,47.83461 -37.18137,0 -67.32283,-21.4163 -67.32283,-47.83461 0,-26.41834 30.14146,-47.83464 67.32283,-47.83464 37.18138,0 67.32284,21.4163 67.32284,47.83464 z"
       transform="matrix(0.41737518,0,0,0.58741697,35.305746,400.98409)" />
    <rect
       style="fill:none;stroke:#000000;stroke-width:0.35433072;stroke-miterlimit:4;stroke-opacity:1;stroke-dasharray:none"
       id="rect3787"
       width="148.81889"
       height="148.81889"
       x="191.33858"
       y="900" />
    <path
       sodipodi:type="arc"
       style="fill:none;stroke:#ff0000;stroke-opacity:1"
       id="path3021-1-7"
       sodipodi:cx="255.1181"
       sodipodi:cy="976.18109"
       sodipodi:rx="67.322838"
       sodipodi:ry="47.834644"
       d="m 322.44094,976.18109 c 0,26.41831 -30.14146,47.83461 -67.32284,47.83461 -37.18137,0 -67.32283,-21.4163 -67.32283,-47.83461 0,-26.41834 30.14146,-47.83464 67.32283,-47.83464 37.18138,0 67.32284,21.4163 67.32284,47.83464 z"
       transform="matrix(0.41737518,0,0,0.58741697,272.65389,401.69838)" />
    <path
       style="fill:#aaccff;stroke:#000000;stroke-width:0.34591341;stroke-miterlimit:4;stroke-opacity:1;stroke-dasharray:none"
       d="m 1116.3304,627.00618 17.4589,0.5478 0,113.17615 148.8189,0 0,-113.34514 16.7192,0.12627 23.7386,24.32544 0,400.5255 -40.4578,0 0,-28.2843 -148.8189,0 0,28.2843 -40.6924,0 0,-400.52549 z"
       id="rect2997"
       inkscape:connector-curvature="0"
       sodipodi:nodetypes="ccccccccccccccc" />
    <path
       sodipodi:nodetypes="ccccccccc"
       inkscape:connector-curvature="0"
       id="rect3787-0"
       d="m 1364.4542,351.0265 353.753,0 0,119.68401 -62.26,0 0,28.61592 -229.0163,0 0,-28.61592 -62.4767,0 z"
       style="fill:#afdde9;stroke:#000000;stroke-width:0.43943721;stroke-miterlimit:4;stroke-opacity:1" />
    <rect
       style="fill:none;stroke:#000000;stroke-width:0.35433072;stroke-miterlimit:4;stroke-opacity:1;stroke-dasharray:none"
       id="rect3787-1"
       width="148.81889"
       height="148.81889"
       x="1465.0693"
       y="350.76703" />
    <rect
       style="fill:none;stroke:#000000;stroke-width:0.2609086;stroke-miterlimit:4;stroke-opacity:1;stroke-dasharray:none"
       id="rect3787-1-1"
       width="109.58162"
       height="109.58161"
       x="1502.9207"
       y="544.08923" />
    <path
       sodipodi:type="arc"
       style="fill:none;stroke:#ff0000;stroke-opacity:1"
       id="path3021-17"
       sodipodi:cx="255.1181"
       sodipodi:cy="976.18109"
       sodipodi:rx="67.322838"
       sodipodi:ry="47.834644"
       d="m 322.44094,976.18109 a 67.322838,47.834644 0 1 1 -134.64567,0 67.322838,47.834644 0 1 1 134.64567,0 z"
       transform="matrix(0.57894734,0,0,0.81481484,1391.7788,-370.23037)" />
    <path
       sodipodi:type="arc"
       style="fill:none;stroke:#ff0000;stroke-opacity:1"
       id="path3021-1-4"
       sodipodi:cx="255.1181"
       sodipodi:cy="976.18109"
       sodipodi:rx="67.322838"
       sodipodi:ry="47.834644"
       d="m 322.44094,976.18109 a 67.322838,47.834644 0 1 1 -134.64567,0 67.322838,47.834644 0 1 1 134.64567,0 z"
       transform="matrix(0.41737518,0,0,0.58741697,1328.52,-166.26599)" />
    <path
       sodipodi:type="arc"
       style="fill:none;stroke:#ff0000;stroke-opacity:1"
       id="path3021-1-7-9"
       sodipodi:cx="255.1181"
       sodipodi:cy="976.18109"
       sodipodi:rx="67.322838"
       sodipodi:ry="47.834644"
       d="m 322.44094,976.18109 a 67.322838,47.834644 0 1 1 -134.64567,0 67.322838,47.834644 0 1 1 134.64567,0 z"
       transform="matrix(0.41737518,0,0,0.58741697,1537.3007,-165.67118)" />
    <path
       sodipodi:type="arc"
       style="fill:none;stroke:#ff0000;stroke-width:0.35433072;stroke-miterlimit:4;stroke-opacity:1;stroke-dasharray:none"
       id="path3042"
       sodipodi:cx="1159.6428"
       sodipodi:cy="594.86218"
       sodipodi:rx="8.0357141"
       sodipodi:ry="8.0357141"
       d="m 1167.6785,594.86218 a 8.0357141,8.0357141 0 1 1 -16.0714,0 8.0357141,8.0357141 0 1 1 16.0714,0 z"
       transform="matrix(0.86286597,0,0,0.86286596,483.94117,-33.188601)" />
    <path
       sodipodi:type="arc"
       style="fill:none;stroke:#ff0000;stroke-width:0.35433072;stroke-miterlimit:4;stroke-opacity:1;stroke-dasharray:none"
       id="path3042-7"
       sodipodi:cx="1159.6428"
       sodipodi:cy="594.86218"
       sodipodi:rx="8.0357141"
       sodipodi:ry="8.0357141"
       d="m 1167.6785,594.86218 a 8.0357141,8.0357141 0 1 1 -16.0714,0 8.0357141,8.0357141 0 1 1 16.0714,0 z"
       transform="matrix(0.86286597,0,0,0.86286596,483.94117,-143.03112)" />
    <path
       sodipodi:type="arc"
       style="fill:none;stroke:#ff0000;stroke-width:0.35433072;stroke-miterlimit:4;stroke-opacity:1;stroke-dasharray:none"
       id="path3042-7-4"
       sodipodi:cx="1159.6428"
       sodipodi:cy="594.86218"
       sodipodi:rx="8.0357141"
       sodipodi:ry="8.0357141"
       d="m 1167.6785,594.86218 a 8.0357141,8.0357141 0 1 1 -16.0714,0 8.0357141,8.0357141 0 1 1 16.0714,0 z"
       transform="matrix(0.86286597,0,0,0.86286596,593.78369,-143.03112)" />
    <path
       sodipodi:type="arc"
       style="fill:none;stroke:#ff0000;stroke-width:0.35433072;stroke-miterlimit:4;stroke-opacity:1;stroke-dasharray:none"
       id="path3042-7-0"
       sodipodi:cx="1159.6428"
       sodipodi:cy="594.86218"
       sodipodi:rx="8.0357141"
       sodipodi:ry="8.0357141"
       d="m 1167.6785,594.86218 a 8.0357141,8.0357141 0 1 1 -16.0714,0 8.0357141,8.0357141 0 1 1 16.0714,0 z"
       transform="matrix(0.86286597,0,0,0.86286596,593.78369,-33.188601)" />
    <g
       id="g3200"
       transform="translate(-272.5859,-336.14195)">
      <path
         style="fill:#afdde9;stroke:#000000;stroke-width:0.35433072;stroke-miterlimit:4;stroke-opacity:1"
         d="m 1365.7767,814.91971 229.8752,0 0,-119.74796 -40.4578,0 0,-28.63121 -148.8189,0 0,28.63121 -40.5985,0 z"
         id="rect3787-0-88"
         inkscape:connector-curvature="0"
         sodipodi:nodetypes="ccccccccc" />
      <path
         transform="matrix(0.39674628,0,0,-0.5583837,1379.4971,1285.8137)"
         d="m 322.44094,976.18109 c 0,26.41831 -30.14146,47.83461 -67.32284,47.83461 -37.18137,0 -67.32283,-21.4163 -67.32283,-47.83461 0,-26.41834 30.14146,-47.83464 67.32283,-47.83464 37.18138,0 67.32284,21.4163 67.32284,47.83464 z"
         sodipodi:ry="47.834644"
         sodipodi:rx="67.322838"
         sodipodi:cy="976.18109"
         sodipodi:cx="255.1181"
         id="path3021-17-4"
         style="fill:none;stroke:#ff0000;stroke-opacity:1"
         sodipodi:type="arc" />
      <path
         transform="matrix(0.41737518,0,0,-0.58741697,1299.2288,1332.0075)"
         d="m 322.44094,976.18109 c 0,26.41831 -30.14146,47.83461 -67.32284,47.83461 -37.18137,0 -67.32283,-21.4163 -67.32283,-47.83461 0,-26.41834 30.14146,-47.83464 67.32283,-47.83464 37.18138,0 67.32284,21.4163 67.32284,47.83464 z"
         sodipodi:ry="47.834644"
         sodipodi:rx="67.322838"
         sodipodi:cy="976.18109"
         sodipodi:cx="255.1181"
         id="path3021-1-4-4"
         style="fill:none;stroke:#ff0000;stroke-opacity:1"
         sodipodi:type="arc" />
      <path
         transform="matrix(0.41737518,0,0,-0.58741697,1449.5647,1332.0075)"
         d="m 322.44094,976.18109 c 0,26.41831 -30.14146,47.83461 -67.32284,47.83461 -37.18137,0 -67.32283,-21.4163 -67.32283,-47.83461 0,-26.41834 30.14146,-47.83464 67.32283,-47.83464 37.18138,0 67.32284,21.4163 67.32284,47.83464 z"
         sodipodi:ry="47.834644"
         sodipodi:rx="67.322838"
         sodipodi:cy="976.18109"
         sodipodi:cx="255.1181"
         id="path3021-1-7-9-5"
         style="fill:none;stroke:#ff0000;stroke-opacity:1"
         sodipodi:type="arc" />
    </g>
    <path
       style="fill:#aaccff;stroke:#000000;stroke-width:0.34591341;stroke-miterlimit:4;stroke-opacity:1;stroke-dasharray:none"
       d="m 1450.4679,620.97389 17.4589,0.5478 0,113.17615 148.8189,0 0,-113.34514 16.7192,0.12627 23.7386,24.32544 0,400.52549 -40.4578,0 0,-28.2843 -148.8189,0 0,28.2843 -40.6924,0 0,-400.52548 z"
       id="rect2997-1"
       inkscape:connector-curvature="0"
       sodipodi:nodetypes="ccccccccccccccc" />
  </g>
</svg>
