<?xml version="1.0" encoding="UTF-8" standalone="no"?>
<!-- Created with Inkscape (http://www.inkscape.org/) -->

<svg
   xmlns:dc="http://purl.org/dc/elements/1.1/"
   xmlns:cc="http://creativecommons.org/ns#"
   xmlns:rdf="http://www.w3.org/1999/02/22-rdf-syntax-ns#"
   xmlns:svg="http://www.w3.org/2000/svg"
   xmlns="http://www.w3.org/2000/svg"
   xmlns:sodipodi="http://sodipodi.sourceforge.net/DTD/sodipodi-0.dtd"
   xmlns:inkscape="http://www.inkscape.org/namespaces/inkscape"
   width="4429.1338"
   height="4429.1338"
   id="svg2"
   version="1.1"
   inkscape:version="0.48.4 r9939"
   sodipodi:docname="PCB_CNC_V1_preprint.svg">
  <defs
     id="defs4" />
  <sodipodi:namedview
     id="base"
     pagecolor="#ffffff"
     bordercolor="#666666"
     borderopacity="1.0"
     inkscape:pageopacity="0.0"
     inkscape:pageshadow="2"
     inkscape:zoom="0.45254834"
     inkscape:cx="1117.1221"
     inkscape:cy="1046.4475"
     inkscape:document-units="mm"
     inkscape:current-layer="layer1"
     showgrid="true"
     inkscape:window-width="1788"
     inkscape:window-height="1058"
     inkscape:window-x="-8"
     inkscape:window-y="-8"
     inkscape:window-maximized="1"
     units="mm"
     inkscape:snap-bbox="true"
     showguides="true"
     inkscape:guide-bbox="true"
     showborder="true"
     inkscape:snap-nodes="true"
     inkscape:snap-grids="false"
     inkscape:snap-bbox-midpoints="true"
     inkscape:object-nodes="true"
     inkscape:object-paths="true"
     inkscape:snap-intersection-paths="true"
     inkscape:bbox-nodes="true"
     inkscape:snap-midpoints="false"
     inkscape:snap-object-midpoints="false">
    <inkscape:grid
       type="xygrid"
       id="grid3013"
       empspacing="5"
       visible="true"
       enabled="true"
       snapvisiblegridlinesonly="true"
       units="mm"
       spacingx="1mm"
       spacingy="1mm" />
    <sodipodi:guide
       orientation="0,1"
       position="-6095.9998,0"
       id="guide3879" />
    <sodipodi:guide
       orientation="1,0"
       position="0,0"
       id="guide3881" />
    <sodipodi:guide
       orientation="1,0"
       position="1499.4646,407.74279"
       id="guide3910" />
    <sodipodi:guide
       orientation="0,1"
       position="2.6255965,1595.8978"
       id="guide3981" />
  </sodipodi:namedview>
  <metadata
     id="metadata7">
    <rdf:RDF>
      <cc:Work
         rdf:about="">
        <dc:format>image/svg+xml</dc:format>
        <dc:type
           rdf:resource="http://purl.org/dc/dcmitype/StillImage" />
        <dc:title />
      </cc:Work>
    </rdf:RDF>
  </metadata>
  <g
     inkscape:label="Layer 1"
     inkscape:groupmode="layer"
     id="layer1"
     transform="translate(0,3376.7716)">
    <path
       style="fill:none;stroke:#000000;stroke-width:0.35591999;stroke-linecap:round;stroke-linejoin:bevel;stroke-miterlimit:4;stroke-opacity:1"
       d="m 885.36899,-156.04959 0,0 0,-28.1 60.4,-0.2 0.1,28.3 28.3,0 0,70.887595 28.47791,0.2654 0,141.533298 -28.47791,-0.024 0,70.887497 -28.3,0 0,28.1041 -60.5,0 0.1,-28.0941 0,0 z"
       id="rect3227"
       inkscape:connector-curvature="0"
       sodipodi:nodetypes="ccccccccccccccccc" />
    <path
       style="fill:none;stroke:#000000;stroke-width:0.35591999;stroke-linecap:round;stroke-linejoin:bevel;stroke-miterlimit:4;stroke-opacity:1"
       d="m 1293.294,-156.02559 0,0 0,-28.1 -60.4,-0.2 -0.1,28.3001 -28.3,0 0,70.887495 -28.478,0.2654 0,141.533298 28.478,-0.024 0,70.887497 28.3,0 0,28.1042 60.5,0 -0.1,-28.0942 0,0 z"
       id="rect3227-1"
       inkscape:connector-curvature="0"
       sodipodi:nodetypes="ccccccccccccccccc" />
    <path
       style="fill:none;stroke:#000000;stroke-width:0.35433;stroke-miterlimit:4;stroke-opacity:1;stroke-dasharray:none"
       d="m 1181.2936,-269.66874 -17.5,0.55 0,113.17995 -148.8,0 0,-113.34995 -16.7,0.13 -23.70001,24.32 -0.3,159.956145 28.10391,-0.014 0.2494,141.533298 -28.35331,3e-4 0,99.236897 40.78841,0 -0.088,-28.4622 148.8,0 0,28.3 40.7,0 0,-99.074997 -28.25,0 0,-141.533298 28.4603,0 -0.2103,-159.941645 z"
       id="rect2997"
       inkscape:connector-curvature="0"
       sodipodi:nodetypes="ccccccccccccccccccccccc" />
    <path
       sodipodi:nodetypes="ccccccccccccccccc"
       inkscape:connector-curvature="0"
       id="rect3787-0-88-7"
       d="m 1462.6562,-194.6854 0,229.9 -30.95,0 0.1,-28 -60.19,-0.2 0,28.2 -28.67,0 0,-40.5 -28.63,0 0,-148.8 28.63,0 0,-40.6 28.44,0 0,28.1 60.32,-0.1 0,-28.3 c 0,0 18.08,0.3 30.95,0.3 z"
       style="fill:none;stroke:#000000;stroke-width:0.35433;stroke-miterlimit:4;stroke-opacity:1" />
    <path
       inkscape:connector-curvature="0"
       style="fill:none;stroke:#ff0000;stroke-width:0.68082756;stroke-opacity:1"
       d="m 1388.4863,-41.249444 c -21.3381,0 -38.636,-17.297909 -38.636,-38.635959 0,-21.338057 17.2979,-38.635967 38.636,-38.635967 21.338,0 38.6359,17.29791 38.6359,38.635967 0,21.33805 -17.2979,38.635959 -38.6359,38.635959 z"
       id="path3021-17-4-4" />
    <path
       inkscape:connector-curvature="0"
       style="fill:none;stroke:#ff0000;stroke-width:0.30574074;stroke-miterlimit:4;stroke-opacity:1"
       d="m 1333.6208,-127.87648 c -3.8294,0 -6.9338,-3.10435 -6.9338,-6.93377 0,-3.82942 3.1044,-6.93376 6.9338,-6.93376 3.8294,0 6.9337,3.10434 6.9337,6.93376 0,3.82942 -3.1043,6.93377 -6.9337,6.93377 z"
       id="path3042-4" />
    <path
       inkscape:connector-curvature="0"
       style="fill:none;stroke:#ff0000;stroke-width:0.30574074;stroke-miterlimit:4;stroke-opacity:1"
       d="m 1443.4688,-127.87648 c -3.8294,0 -6.9338,-3.10435 -6.9338,-6.93377 0,-3.82942 3.1044,-6.93376 6.9338,-6.93376 3.8294,0 6.9337,3.10434 6.9337,6.93376 0,3.82942 -3.1043,6.93377 -6.9337,6.93377 z"
       id="path3042-7-8" />
    <path
       inkscape:connector-curvature="0"
       style="fill:none;stroke:#ff0000;stroke-width:0.30574074;stroke-miterlimit:4;stroke-opacity:1"
       d="m 1443.4688,-18.036484 c -3.8294,0 -6.9338,-3.104347 -6.9338,-6.933764 0,-3.829417 3.1044,-6.933764 6.9338,-6.933764 3.8294,0 6.9337,3.104347 6.9337,6.933764 0,3.829417 -3.1043,6.933764 -6.9337,6.933764 z"
       id="path3042-7-4-8" />
    <path
       inkscape:connector-curvature="0"
       style="fill:none;stroke:#ff0000;stroke-width:0.30574074;stroke-miterlimit:4;stroke-opacity:1"
       d="m 1333.6208,-18.036484 c -3.8294,0 -6.9338,-3.104347 -6.9338,-6.933764 0,-3.829417 3.1044,-6.933764 6.9338,-6.933764 3.8294,0 6.9337,3.104347 6.9337,6.933764 0,3.829417 -3.1043,6.933764 -6.9337,6.933764 z"
       id="path3042-7-0-2" />
    <path
       sodipodi:nodetypes="ccccccccccccc"
       inkscape:connector-curvature="0"
       id="rect3787-0-88-7-9"
       d="m 1015.0936,-443.18874 -60.19,0.2 0,-28.2 -28.67,0 0,40.5 -28.63,0 0,148.8 28.63,0 0,40.6 28.44,0 0,-28.1 60.32,0.1 z"
       style="fill:none;stroke:#000000;stroke-width:0.35433;stroke-miterlimit:4;stroke-opacity:1" />
    <path
       inkscape:connector-curvature="0"
       style="fill:none;stroke:#ff0000;stroke-width:0.47067747;stroke-opacity:1"
       d="m 971.74422,-382.918 c -14.75157,0 -26.71012,11.95866 -26.71012,26.7104 0,14.75175 11.95855,26.7104 26.71012,26.7104 14.75158,0 26.7101,-11.95865 26.7101,-26.7104 0,-14.75174 -11.95852,-26.7104 -26.7101,-26.7104 z"
       id="path3021-17-4-4-4" />
    <path
       inkscape:connector-curvature="0"
       style="fill:none;stroke:#ff0000;stroke-width:0.37136051;stroke-opacity:1"
       d="m 971.74425,-428.54328 c -11.63892,0 -21.07417,9.43522 -21.07417,21.07416 0,11.63894 9.43525,21.07416 21.07417,21.07416 11.63894,0 21.07416,-9.43522 21.07416,-21.07416 0,-11.63894 -9.43522,-21.07416 -21.07416,-21.07416 z"
       id="path3021-1-7-9-5-9-8" />
    <path
       inkscape:connector-curvature="0"
       style="fill:none;stroke:#ff0000;stroke-width:0.30574074;stroke-miterlimit:4;stroke-opacity:1"
       d="m 916.87876,-308.21656 c -3.82941,0 -6.93376,3.10435 -6.93376,6.93377 0,3.82942 3.10435,6.93376 6.93376,6.93376 3.82942,0 6.93376,-3.10434 6.93376,-6.93376 0,-3.82942 -3.10434,-6.93377 -6.93376,-6.93377 z"
       id="path3042-4-8" />
    <path
       inkscape:connector-curvature="0"
       style="fill:none;stroke:#ff0000;stroke-width:0.30574074;stroke-miterlimit:4;stroke-opacity:1"
       d="m 916.87876,-418.05656 c -3.82941,0 -6.93376,3.10435 -6.93376,6.93377 0,3.82942 3.10435,6.93376 6.93376,6.93376 3.82942,0 6.93376,-3.10434 6.93376,-6.93376 0,-3.82942 -3.10434,-6.93377 -6.93376,-6.93377 z"
       id="path3042-7-0-2-5" />
    <path
       inkscape:connector-curvature="0"
       style="fill:none;stroke:#ff0000;stroke-width:0.37136051;stroke-opacity:1"
       d="m 971.74425,-326.29088 c -11.63892,0 -21.07417,9.43522 -21.07417,21.07416 0,11.63894 9.43525,21.07416 21.07417,21.07416 11.63894,0 21.07416,-9.43522 21.07416,-21.07416 0,-11.63894 -9.43522,-21.07416 -21.07416,-21.07416 z"
       id="path3021-1-7-9-5-9-74-5" />
    <path
       style="fill:none;stroke:#000000;stroke-width:0.34491813;stroke-miterlimit:4;stroke-opacity:1"
       d="m 1394.0139,-495.28983 -63.8934,0.12497 0,28.0433 -102.875,0 0,-28.0433 -63.4519,-0.12497 0,141.3873 63.4519,-3e-5 0,-27.8114 102.875,0 0,27.8114 63.8934,0 z"
       id="rect3039"
       inkscape:connector-curvature="0"
       sodipodi:nodetypes="ccccccccccccc" />
    <path
       sodipodi:nodetypes="ccccccccccccccccc"
       inkscape:connector-curvature="0"
       id="rect3787-0-88-7-9-4"
       d="m 1462.6562,35.8689 0,229.9 -30.95,0 0.1,-28 -60.19,-0.2 0,28.2 -28.67,0 0,-40.5 -28.63,0 0,-148.8 28.63,0 0,-40.6 28.44,0 0,28.1 60.32,-0.1 0,-28.3 c 0,0 18.08,0.3 30.95,0.3 z"
       style="fill:none;stroke:#000000;stroke-width:0.35433;stroke-miterlimit:4;stroke-opacity:1" />
    <path
       inkscape:connector-curvature="0"
       style="fill:none;stroke:#ff0000;stroke-width:0.47067747;stroke-opacity:1"
       d="m 1388.4568,177.49816 c -14.7516,0 -26.7101,-11.95866 -26.7101,-26.7104 0,-14.75175 11.9585,-26.7104 26.7101,-26.7104 14.7516,0 26.7101,11.95865 26.7101,26.7104 0,14.75174 -11.9585,26.7104 -26.7101,26.7104 z"
       id="path3021-17-4-4-4-0" />
    <path
       inkscape:connector-curvature="0"
       style="fill:none;stroke:#ff0000;stroke-width:0.37136051;stroke-opacity:1"
       d="m 1388.4569,223.12344 c -11.639,0 -21.0742,-9.43522 -21.0742,-21.07416 0,-11.63894 9.4352,-21.07416 21.0742,-21.07416 11.6389,0 21.0741,9.43522 21.0741,21.07416 0,11.63894 -9.4352,21.07416 -21.0741,21.07416 z"
       id="path3021-1-7-9-5-9-8-9" />
    <path
       inkscape:connector-curvature="0"
       style="fill:none;stroke:#ff0000;stroke-width:0.30574074;stroke-miterlimit:4;stroke-opacity:1"
       d="m 1333.5914,102.79672 c -3.8294,0 -6.9338,-3.104351 -6.9338,-6.933768 0,-3.829417 3.1044,-6.933764 6.9338,-6.933764 3.8294,0 6.9337,3.104347 6.9337,6.933764 0,3.829417 -3.1043,6.933768 -6.9337,6.933768 z"
       id="path3042-4-8-4" />
    <path
       inkscape:connector-curvature="0"
       style="fill:none;stroke:#ff0000;stroke-width:0.30574074;stroke-miterlimit:4;stroke-opacity:1"
       d="m 1443.4394,102.79672 c -3.8294,0 -6.9338,-3.104351 -6.9338,-6.933768 0,-3.829417 3.1044,-6.933764 6.9338,-6.933764 3.8294,0 6.9337,3.104347 6.9337,6.933764 0,3.829417 -3.1043,6.933768 -6.9337,6.933768 z"
       id="path3042-7-8-2-8" />
    <path
       inkscape:connector-curvature="0"
       style="fill:none;stroke:#ff0000;stroke-width:0.30574074;stroke-miterlimit:4;stroke-opacity:1"
       d="m 1443.4394,212.63672 c -3.8294,0 -6.9338,-3.10435 -6.9338,-6.93377 0,-3.82942 3.1044,-6.93376 6.9338,-6.93376 3.8294,0 6.9337,3.10434 6.9337,6.93376 0,3.82942 -3.1043,6.93377 -6.9337,6.93377 z"
       id="path3042-7-4-8-4-8" />
    <path
       inkscape:connector-curvature="0"
       style="fill:none;stroke:#ff0000;stroke-width:0.30574074;stroke-miterlimit:4;stroke-opacity:1"
       d="m 1333.5914,212.63672 c -3.8294,0 -6.9338,-3.10435 -6.9338,-6.93377 0,-3.82942 3.1044,-6.93376 6.9338,-6.93376 3.8294,0 6.9337,3.10434 6.9337,6.93376 0,3.82942 -3.1043,6.93377 -6.9337,6.93377 z"
       id="path3042-7-0-2-5-2" />
    <path
       inkscape:connector-curvature="0"
       style="fill:none;stroke:#ff0000;stroke-width:0.37136051;stroke-opacity:1"
       d="m 1388.4569,120.87104 c -11.639,0 -21.0742,-9.43522 -21.0742,-21.074158 0,-11.63894 9.4352,-21.074163 21.0742,-21.074163 11.6389,0 21.0741,9.435223 21.0741,21.074163 0,11.638938 -9.4352,21.074158 -21.0741,21.074158 z"
       id="path3021-1-7-9-5-9-74-5-4" />
    <path
       style="fill:none;stroke:#000000;stroke-width:0.39921165;stroke-linecap:butt;stroke-linejoin:miter;stroke-miterlimit:4;stroke-opacity:1"
       d="m 1336.3592,797.3876 -588.34282,0 -0.3401,53.201 28.3403,0 0.1,42.1483 -28.4403,0 0,91.3004 68.32492,68.3249 520.358,-0.1996 0,-28.2389 35.2571,0 0,27.9802 53.25,0 0,-27.9802 42.3065,0 -0.1767,-226.5361 32.4685,0 0,-152.7682 -32.4685,-0.042 0,-230.0792 32.4685,0 0,-106.4196 -32.5535,0 0.2618,-42.5295 -42.3067,0 0,-27.9802 -53.25,0 0,27.9802 -35.257,0 z"
       id="rect2985-3"
       inkscape:connector-curvature="0"
       sodipodi:nodetypes="cccccccccccccccccccccccccccccc" />
    <path
       inkscape:connector-curvature="0"
       style="fill:none;stroke:#ff0000;stroke-width:0.30574074;stroke-miterlimit:4;stroke-opacity:1"
       d="m 870.36762,926.99744 c 0,3.82941 -3.10435,6.93376 -6.93377,6.93376 -3.82942,0 -6.93376,-3.10435 -6.93376,-6.93376 0,-3.82942 3.10434,-6.93376 6.93376,-6.93376 3.82942,0 6.93377,3.10434 6.93377,6.93376 z"
       id="path3042-4-4-1-4-2" />
    <path
       inkscape:connector-curvature="0"
       style="fill:none;stroke:#ff0000;stroke-width:0.30574074;stroke-miterlimit:4;stroke-opacity:1"
       d="m 870.36762,817.14944 c 0,3.82941 -3.10435,6.93376 -6.93377,6.93376 -3.82942,0 -6.93376,-3.10435 -6.93376,-6.93376 0,-3.82942 3.10434,-6.93376 6.93376,-6.93376 3.82942,0 6.93377,3.10434 6.93377,6.93376 z"
       id="path3042-7-8-8-6-5-1" />
    <path
       inkscape:connector-curvature="0"
       style="fill:none;stroke:#ff0000;stroke-width:0.30574074;stroke-miterlimit:4;stroke-opacity:1"
       d="m 980.20762,817.14944 c 0,3.82941 -3.10435,6.93376 -6.93377,6.93376 -3.82942,0 -6.93376,-3.10435 -6.93376,-6.93376 0,-3.82942 3.10434,-6.93376 6.93376,-6.93376 3.82942,0 6.93377,3.10434 6.93377,6.93376 z"
       id="path3042-7-4-8-8-8-51-6" />
    <path
       inkscape:connector-curvature="0"
       style="fill:none;stroke:#ff0000;stroke-width:0.30574074;stroke-miterlimit:4;stroke-opacity:1"
       d="m 980.20762,926.99744 c 0,3.82941 -3.10435,6.93376 -6.93377,6.93376 -3.82942,0 -6.93376,-3.10435 -6.93376,-6.93376 0,-3.82942 3.10434,-6.93376 6.93376,-6.93376 3.82942,0 6.93377,3.10434 6.93377,6.93376 z"
       id="path3042-7-0-2-2-5-7-85" />
    <path
       inkscape:connector-curvature="0"
       style="fill:none;stroke:#ff0000;stroke-width:0.35433072;stroke-miterlimit:4;stroke-opacity:1"
       d="m 1087.6797,850.58862 -27.6852,0 0,42.1483 27.6852,0 z"
       id="rect3132-6" />
    <path
       inkscape:connector-curvature="0"
       style="fill:none;stroke:#ff0000;stroke-width:0.35433072;stroke-miterlimit:4;stroke-opacity:1"
       d="m 1022.1973,917.68457 -29.98977,0 0,28.3876 29.98977,0 z"
       id="rect3134-1" />
    <path
       inkscape:connector-curvature="0"
       style="fill:none;stroke:#ff0000;stroke-width:0.35433072;stroke-miterlimit:4;stroke-opacity:1"
       d="m 843.66571,917.68457 -30.772,0 0,28.1597 30.772,0 z"
       id="rect3136-8" />
    <path
       inkscape:connector-curvature="0"
       style="fill:none;stroke:#ff0000;stroke-width:0.35433072;stroke-miterlimit:4;stroke-opacity:1"
       d="m 1152.2729,917.68457 70.713,0 0,27.48911 -70.713,0 z"
       id="rect3508" />
    <path
       inkscape:connector-curvature="0"
       style="fill:none;stroke:#ff0000;stroke-width:0.35433072;stroke-miterlimit:4;stroke-opacity:1"
       d="m 1371.6163,917.68457 53.25,0 0,27.48911 -53.25,0 z"
       id="rect3510" />
    <path
       inkscape:connector-curvature="0"
       style="fill:none;stroke:#ff0000;stroke-width:0.49514973;stroke-opacity:1"
       d="m 472.76826,843.97456 c 15.51856,0 28.09886,12.5803 28.09886,28.09889 0,15.51858 -12.5803,28.09888 -28.09886,28.09888 -15.51858,0 -28.09888,-12.5803 -28.09888,-28.09888 0,-15.51859 12.5803,-28.09889 28.09888,-28.09889 z"
       id="path3021-1-9-5-8-1" />
    <path
       style="fill:none;stroke:#000000;stroke-width:0.39921165;stroke-linecap:butt;stroke-linejoin:miter;stroke-miterlimit:4;stroke-opacity:1"
       d="m 158.99344,797.3876 588.3428,0 0.3401,53.201 -28.3403,0 -0.1,42.1483 28.4403,0 -10e-5,91.3004 -68.3249,68.3249 -520.3579,-0.1996 0,-28.2389 -35.2571,0 0,27.9802 -53.25,0 0,-27.9802 -42.30655,0 0,-226.5361 -27.98018,0 0,-152.7682 27.98018,-0.042 0,-230.0792 -27.98018,0 0,-106.4196 27.98018,0 -2e-5,-42.5295 42.30664,0 0,-27.9802 53.25,0 0,27.9802 35.25703,0 z"
       id="rect2985-3-8"
       inkscape:connector-curvature="0"
       sodipodi:nodetypes="cccccccccccccccccccccccccccccc" />
    <path
       inkscape:connector-curvature="0"
       style="fill:none;stroke:#ff0000;stroke-width:0.68082756;stroke-opacity:1"
       d="m 615.6299,872.13184 c 0,21.33803 -17.29791,38.63597 -38.63596,38.63597 -21.33806,0 -38.63597,-17.29794 -38.63597,-38.63597 0,-21.33805 17.29791,-38.63597 38.63597,-38.63597 21.33805,0 38.63596,17.29792 38.63596,38.63597 z"
       id="path3021-17-4-4-1" />
    <path
       inkscape:connector-curvature="0"
       style="fill:none;stroke:#ff0000;stroke-width:0.30574074;stroke-miterlimit:4;stroke-opacity:1"
       d="m 624.98498,926.99744 c 0,3.82941 3.10435,6.93376 6.93377,6.93376 3.82942,0 6.93376,-3.10435 6.93376,-6.93376 0,-3.82942 -3.10434,-6.93376 -6.93376,-6.93376 -3.82942,0 -6.93377,3.10434 -6.93377,6.93376 z"
       id="path3042-4-4-1-4-2-4" />
    <path
       inkscape:connector-curvature="0"
       style="fill:none;stroke:#ff0000;stroke-width:0.30574074;stroke-miterlimit:4;stroke-opacity:1"
       d="m 624.98498,817.14944 c 0,3.82941 3.10435,6.93376 6.93377,6.93376 3.82942,0 6.93376,-3.10435 6.93376,-6.93376 0,-3.82942 -3.10434,-6.93376 -6.93376,-6.93376 -3.82942,0 -6.93377,3.10434 -6.93377,6.93376 z"
       id="path3042-7-8-8-6-5-1-2" />
    <path
       inkscape:connector-curvature="0"
       style="fill:none;stroke:#ff0000;stroke-width:0.30574074;stroke-miterlimit:4;stroke-opacity:1"
       d="m 515.14498,817.14944 c 0,3.82941 3.10435,6.93376 6.93377,6.93376 3.82942,0 6.93376,-3.10435 6.93376,-6.93376 0,-3.82942 -3.10434,-6.93376 -6.93376,-6.93376 -3.82942,0 -6.93377,3.10434 -6.93377,6.93376 z"
       id="path3042-7-4-8-8-8-51-6-7" />
    <path
       inkscape:connector-curvature="0"
       style="fill:none;stroke:#ff0000;stroke-width:0.30574074;stroke-miterlimit:4;stroke-opacity:1"
       d="m 515.14498,926.99744 c 0,3.82941 3.10435,6.93376 6.93377,6.93376 3.82942,0 6.93376,-3.10435 6.93376,-6.93376 0,-3.82942 -3.10434,-6.93376 -6.93376,-6.93376 -3.82942,0 -6.93377,3.10434 -6.93377,6.93376 z"
       id="path3042-7-0-2-2-5-7-85-7" />
    <path
       inkscape:connector-curvature="0"
       style="fill:none;stroke:#ff0000;stroke-width:0.35433072;stroke-miterlimit:4;stroke-opacity:1"
       d="m 407.67291,850.58862 27.6852,0 0,42.1483 -27.6852,0 z"
       id="rect3132-6-3" />
    <path
       inkscape:connector-curvature="0"
       style="fill:none;stroke:#ff0000;stroke-width:0.35433072;stroke-miterlimit:4;stroke-opacity:1"
       d="m 473.15533,917.68457 29.9898,0 0,28.3876 -29.9898,0 z"
       id="rect3134-1-1" />
    <path
       inkscape:connector-curvature="0"
       style="fill:none;stroke:#ff0000;stroke-width:0.35433072;stroke-miterlimit:4;stroke-opacity:1"
       d="m 651.68695,917.68457 30.772,0 0,28.1597 -30.772,0 z"
       id="rect3136-8-9" />
    <path
       inkscape:connector-curvature="0"
       style="fill:none;stroke:#ff0000;stroke-width:0.35433072;stroke-miterlimit:4;stroke-opacity:1"
       d="m 343.07977,917.68457 -70.71293,0 0,27.48911 70.71293,0 z"
       id="rect3508-6" />
    <path
       inkscape:connector-curvature="0"
       style="fill:none;stroke:#ff0000;stroke-width:0.35433072;stroke-miterlimit:4;stroke-opacity:1"
       d="m 123.73631,917.68457 -53.249997,0 0,27.48911 53.249997,0 z"
       id="rect3510-5" />
    <path
       style="fill:none;stroke:#000000;stroke-width:0.32720107;stroke-miterlimit:4;stroke-opacity:1"
       d="m 884.81466,-542.9451 -42.5873,0.2407 0,28.6176 -24.7792,0.1631 0.19,120.8987 -28.375,0.1056 0,102.2566 28.295,0.197 0.08,198.9431 -28.375,-0.001 0,98.7381 28.4173,-0.025 0.056,120.8746 24.6802,0.1336 0.25,27.9403 42.1484,-0.1 z"
       id="rect3035-1"
       inkscape:connector-curvature="0"
       sodipodi:nodetypes="ccccccccccccccccc" />
    <path
       inkscape:connector-curvature="0"
       style="fill:none;stroke:#000000;stroke-width:0.2903783;stroke-miterlimit:4;stroke-opacity:1"
       d="m 781.61804,-393.93829 0,389.4733852 -354.64721,0 0,-389.4733852 z"
       id="rect3212" />
    <path
       style="fill:none;stroke:#000000;stroke-width:0.30095342;stroke-miterlimit:4;stroke-opacity:1"
       d="m 70.4394,-514.2523 0.1,120.3138 28.1378,0 0,102.9469 -28.2951,0.1971 -0.08,198.693 28.375,0 -0.3536,99.2909 -28.1198,0 0,120.2969 65.2174,0 0,28.1597 30.772,0 0,-28.1597 148.5418,0 0,28.3876 29.98976,0 0,-28.3876 130.0757,0 0,27.4892 70.7129,0 0,-27.4892 148.6305,0 0,27.4892 53.25,0 0,-27.4892 70.2867,0 0,-120.2969 -435.3156,0 0,-99.3899 28.375,0 -0.08,-198.693 -28.2951,-0.1971 0.3536,-102.8477 434.9621,0 0,-120.2659 -70.2911,-0.031 0,-27.4892 -53.25,0 0,27.4892 -148.6304,0 0,-27.4892 -70.713,0 0,27.4892 -130.0757,0 0,-28.3876 -29.98976,0 0,28.3876 -148.5418,0 0,-28.1598 -30.772,0 0,28.1598 z"
       id="rect3183"
       inkscape:connector-curvature="0"
       sodipodi:nodetypes="ccccccccccccccccccccccccccccccccccccccccccccccccccccc" />
    <path
       style="fill:none;stroke:#000000;stroke-width:0.32720107;stroke-miterlimit:4;stroke-opacity:1"
       d="m 2.789597,-543.372 42.5873,0.2407 0,28.6176 24.7792,0.1631 -0.19,116.8988 28.375003,0.1055 0,106.2567 -28.295003,0.197 0.256,198.7911 28.375003,0 -0.336,99.3891 -28.417303,-0.025 -0.056,120.8746 -24.6802,0.1336 -0.25,27.9403 -42.1484,-0.1 z"
       id="rect3035"
       inkscape:connector-curvature="0"
       sodipodi:nodetypes="ccccccccccccccccc" />
    <path
       style="fill:none;stroke:#000000;stroke-width:0.46754652;stroke-linecap:butt;stroke-linejoin:miter;stroke-miterlimit:4;stroke-opacity:1"
       d="m 340.72786,797.7044 0,-75.035 28.6001,0 0,-124.0972 -28.6001,0 0,-35.0948 28.6001,-0.2605 -0.01,-176.7395 -28.5933,0 0,-35.75 28.5933,0 0,-124.25 -28.5933,0 0,-70.6035 70.7514,0 0,27.9802 106.4196,0 0,-27.9802 230.0788,0 0,27.9802 152.8106,0 0,-27.9802 120.29694,0 0,120.2969 27.4892,0 0,-120.2969 106.9889,0 0,70.6035 -28.2422,0 0,124.25 28.2422,0 0,35.75 -28.2422,0 0,177 28.2422,0 0,35.0948 -28.2422,0 0,124.0972 28.2422,0 0,74.895 -106.9889,0 0,-120.2659 -27.4892,0 0,120.2659 -120.29694,0 0,-32.4686 -152.8106,0 0.042,32.2918 -230.1208,0.1768 0,-32.4686 -106.4196,0 0,32.4686 z"
       id="rect2987"
       inkscape:connector-curvature="0"
       sodipodi:nodetypes="ccccccccccccccccccccccccccccccccccccccccccccccccccccc" />
    <path
       sodipodi:nodetypes="ccccccccccccccccccccccccc"
       inkscape:connector-curvature="0"
       id="rect2989-4-1-2"
       d="m 209.91414,797.70446 0,-641.83051 35.2571,0 0,27.98018 53.25,0 0,-27.98018 42.3066,0 0,70.60347 28.6001,0 0,124.24999 -28.6001,0 0,35.75 28.6001,0 0,176.73951 -28.6001,0.26049 0,35.09484 28.6001,0 0,124.09724 -28.6001,0 0,74.89491 -42.3066,0 0,-28.23887 -53.25,1e-5 0,28.23886 z"
       style="fill:none;stroke:#000000;stroke-width:0.38933307;stroke-miterlimit:4;stroke-opacity:1" />
    <path
       inkscape:connector-curvature="0"
       style="fill:none;stroke:#ff0000;stroke-width:0.49514973;stroke-opacity:1"
       d="m 289.62104,570.47336 c 15.51856,0 28.09886,12.5803 28.09886,28.09889 0,15.51858 -12.5803,28.09888 -28.09886,28.09888 -15.51858,0 -28.09888,-12.5803 -28.09888,-28.09888 0,-15.51859 12.5803,-28.09889 28.09888,-28.09889 z"
       id="path3021-1-9-5-8" />
    <path
       inkscape:connector-curvature="0"
       style="fill:none;stroke:#ff0000;stroke-width:0.49514973;stroke-opacity:1"
       d="m 289.62104,322.98599 c 15.51856,0 28.09886,12.5803 28.09886,28.09889 0,15.51858 -12.5803,28.09888 -28.09886,28.09888 -15.51858,0 -28.09888,-12.5803 -28.09888,-28.09888 0,-15.51859 12.5803,-28.09889 28.09888,-28.09889 z"
       id="path3021-1-7-4-2-6" />
    <path
       inkscape:connector-curvature="0"
       style="fill:none;stroke:#ff0000;stroke-width:0.30574074;stroke-miterlimit:4;stroke-opacity:1"
       d="m 338.30728,531.39619 c 0,3.82941 3.10435,6.93376 6.93377,6.93376 3.82942,0 6.93376,-3.10435 6.93376,-6.93376 0,-3.82942 -3.10434,-6.93376 -6.93376,-6.93376 -3.82942,0 -6.93377,3.10434 -6.93377,6.93376 z"
       id="path3042-4-4-1-2-8-7-0" />
    <path
       inkscape:connector-curvature="0"
       style="fill:none;stroke:#ff0000;stroke-width:0.30574074;stroke-miterlimit:4;stroke-opacity:1"
       d="m 338.30728,421.54824 c 0,3.82941 3.10435,6.93376 6.93377,6.93376 3.82942,0 6.93376,-3.10435 6.93376,-6.93376 0,-3.82942 -3.10434,-6.93376 -6.93376,-6.93376 -3.82942,0 -6.93377,3.10434 -6.93377,6.93376 z"
       id="path3042-7-8-8-6-4-8-6-2" />
    <path
       inkscape:connector-curvature="0"
       style="fill:none;stroke:#ff0000;stroke-width:0.30574074;stroke-miterlimit:4;stroke-opacity:1"
       d="m 228.46728,421.54824 c 0,3.82941 3.10435,6.93376 6.93377,6.93376 3.82942,0 6.93376,-3.10435 6.93376,-6.93376 0,-3.82942 -3.10434,-6.93376 -6.93376,-6.93376 -3.82942,0 -6.93377,3.10434 -6.93377,6.93376 z"
       id="path3042-7-4-8-8-8-55-2-1-4" />
    <path
       inkscape:connector-curvature="0"
       style="fill:none;stroke:#ff0000;stroke-width:0.30574074;stroke-miterlimit:4;stroke-opacity:1"
       d="m 228.46728,531.39619 c 0,3.82941 3.10435,6.93376 6.93377,6.93376 3.82942,0 6.93376,-3.10435 6.93376,-6.93376 0,-3.82942 -3.10434,-6.93376 -6.93376,-6.93376 -3.82942,0 -6.93377,3.10434 -6.93377,6.93376 z"
       id="path3042-7-0-2-2-5-1-4-4-8" />
    <path
       sodipodi:nodetypes="ccccccccccccccccccccccccc"
       inkscape:connector-curvature="0"
       id="rect2989-4-1-2-0"
       d="m 1286.7317,797.70446 0,-641.83051 -35.2571,0 0,27.98018 -53.25,0 0,-27.98018 -42.3066,0 0,70.60347 -28.6001,0 0,124.24999 28.6001,0 0,35.75 -28.6001,0 0,176.73951 28.6001,0.26049 0,35.09484 -28.6001,0 0,124.09724 28.6001,0 0,74.89491 42.3066,0 0,-28.23887 53.25,1e-5 0,28.23886 z"
       style="fill:none;stroke:#000000;stroke-width:0.38933307;stroke-miterlimit:4;stroke-opacity:1" />
    <path
       inkscape:connector-curvature="0"
       style="fill:none;stroke:#ff0000;stroke-width:0.68682957;stroke-opacity:1"
       d="m 1207.0249,437.81283 c 21.526,0 38.9763,17.45031 38.9763,38.97637 0,21.52606 -17.4503,38.97638 -38.9763,38.97638 -21.5261,0 -38.9764,-17.45032 -38.9764,-38.97638 0,-21.52606 17.4503,-38.97637 38.9764,-38.97637 z"
       id="path3021" />
    <path
       inkscape:connector-curvature="0"
       style="fill:none;stroke:#ff0000;stroke-width:0.49514973;stroke-opacity:1"
       d="m 1207.0248,570.47336 c -15.5186,0 -28.0989,12.5803 -28.0989,28.09889 0,15.51858 12.5803,28.09888 28.0989,28.09888 15.5185,0 28.0988,-12.5803 28.0988,-28.09888 0,-15.51859 -12.5803,-28.09889 -28.0988,-28.09889 z"
       id="path3021-1-9-5-8-9" />
    <path
       inkscape:connector-curvature="0"
       style="fill:none;stroke:#ff0000;stroke-width:0.49514973;stroke-opacity:1"
       d="m 1207.0248,322.98599 c -15.5186,0 -28.0989,12.5803 -28.0989,28.09889 0,15.51858 12.5803,28.09888 28.0989,28.09888 15.5185,0 28.0988,-12.5803 28.0988,-28.09888 0,-15.51859 -12.5803,-28.09889 -28.0988,-28.09889 z"
       id="path3021-1-7-4-2-6-0" />
    <path
       inkscape:connector-curvature="0"
       style="fill:none;stroke:#ff0000;stroke-width:0.30574074;stroke-miterlimit:4;stroke-opacity:1"
       d="m 1158.3386,531.39619 c 0,3.82941 -3.1044,6.93376 -6.9338,6.93376 -3.8294,0 -6.9338,-3.10435 -6.9338,-6.93376 0,-3.82942 3.1044,-6.93376 6.9338,-6.93376 3.8294,0 6.9338,3.10434 6.9338,6.93376 z"
       id="path3042-4-4-1-2-8-7-0-0" />
    <path
       inkscape:connector-curvature="0"
       style="fill:none;stroke:#ff0000;stroke-width:0.30574074;stroke-miterlimit:4;stroke-opacity:1"
       d="m 1158.3386,421.54824 c 0,3.82941 -3.1044,6.93376 -6.9338,6.93376 -3.8294,0 -6.9338,-3.10435 -6.9338,-6.93376 0,-3.82942 3.1044,-6.93376 6.9338,-6.93376 3.8294,0 6.9338,3.10434 6.9338,6.93376 z"
       id="path3042-7-8-8-6-4-8-6-2-6" />
    <path
       inkscape:connector-curvature="0"
       style="fill:none;stroke:#ff0000;stroke-width:0.30574074;stroke-miterlimit:4;stroke-opacity:1"
       d="m 1268.1786,421.54824 c 0,3.82941 -3.1044,6.93376 -6.9338,6.93376 -3.8294,0 -6.9338,-3.10435 -6.9338,-6.93376 0,-3.82942 3.1044,-6.93376 6.9338,-6.93376 3.8294,0 6.9338,3.10434 6.9338,6.93376 z"
       id="path3042-7-4-8-8-8-55-2-1-4-1" />
    <path
       inkscape:connector-curvature="0"
       style="fill:none;stroke:#ff0000;stroke-width:0.30574074;stroke-miterlimit:4;stroke-opacity:1"
       d="m 1268.1786,531.39619 c 0,3.82941 -3.1044,6.93376 -6.9338,6.93376 -3.8294,0 -6.9338,-3.10435 -6.9338,-6.93376 0,-3.82942 3.1044,-6.93376 6.9338,-6.93376 3.8294,0 6.9338,3.10434 6.9338,6.93376 z"
       id="path3042-7-0-2-2-5-1-4-4-8-3" />
    <path
       inkscape:connector-curvature="0"
       style="fill:none;stroke:#ff0000;stroke-width:0.49514973;stroke-opacity:1"
       d="m 682.07186,843.97456 c 15.51856,0 28.09886,12.5803 28.09886,28.09889 0,15.51858 -12.5803,28.09888 -28.09886,28.09888 -15.51858,0 -28.09888,-12.5803 -28.09888,-28.09888 0,-15.51859 12.5803,-28.09889 28.09888,-28.09889 z"
       id="path3021-1-9-5-8-7" />
    <path
       inkscape:connector-curvature="0"
       style="fill:none;stroke:#ff0000;stroke-width:0.49514973;stroke-opacity:1"
       d="m 813.28076,843.97456 c 15.51856,0 28.09886,12.5803 28.09886,28.09889 0,15.51858 -12.5803,28.09888 -28.09886,28.09888 -15.51858,0 -28.09888,-12.5803 -28.09888,-28.09888 0,-15.51859 12.5803,-28.09889 28.09888,-28.09889 z"
       id="path3021-1-9-5-8-0" />
    <path
       inkscape:connector-curvature="0"
       style="fill:none;stroke:#ff0000;stroke-width:0.49514973;stroke-opacity:1"
       d="m 1022.5844,843.97456 c 15.5185,0 28.0988,12.5803 28.0988,28.09889 0,15.51858 -12.5803,28.09888 -28.0988,28.09888 -15.5186,0 -28.09892,-12.5803 -28.09892,-28.09888 0,-15.51859 12.58032,-28.09889 28.09892,-28.09889 z"
       id="path3021-1-9-5-8-94" />
    <path
       inkscape:connector-curvature="0"
       style="fill:none;stroke:#ff0000;stroke-width:0.59417683;stroke-opacity:1"
       d="m 952.07735,872.13188 c 0,18.62228 -15.09636,33.71867 -33.71866,33.71867 -18.6223,0 -33.71866,-15.09639 -33.71866,-33.71867 0,-18.6223 15.09636,-33.71866 33.71866,-33.71866 18.6223,0 33.71866,15.09636 33.71866,33.71866 z"
       id="path3021-17-4-4-40-2-82-0-2-1" />
    <path
       inkscape:connector-curvature="0"
       style="fill:none;stroke:#ff0000;stroke-width:0.59417683;stroke-opacity:1"
       d="m 324.03984,476.7892 c 0,18.62228 -15.09636,33.71867 -33.71866,33.71867 -18.6223,0 -33.71866,-15.09639 -33.71866,-33.71867 0,-18.6223 15.09636,-33.71866 33.71866,-33.71866 18.6223,0 33.71866,15.09636 33.71866,33.71866 z"
       id="path3021-17-4-4-40-2-82-0-2" />
    <path
       style="fill:none;stroke:#000000;stroke-width:0.20370242;stroke-miterlimit:4;stroke-opacity:1"
       d="m 1242.5377,-354.05012 0.125,28.1761 -28.1684,-0.1233 0,103.2784 28.0434,-0.2801 0,27.7346 71.4995,0 0,-158.7857 z"
       id="rect3039-1-2"
       inkscape:connector-curvature="0"
       sodipodi:nodetypes="ccccccccc" />
    <path
       inkscape:connector-curvature="0"
       style="fill:none;stroke:#ff0000;stroke-width:0.37136051;stroke-opacity:1"
       d="m 1285.8188,-202.14448 c 11.639,0 21.0742,-9.43522 21.0742,-21.07416 0,-11.63894 -9.4352,-21.07416 -21.0742,-21.07416 -11.6389,0 -21.0741,9.43522 -21.0741,21.07416 0,11.63894 9.4352,21.07416 21.0741,21.07416 z"
       id="path3021-1-7-9-5-9-4" />
    <path
       inkscape:connector-curvature="0"
       style="fill:none;stroke:#ff0000;stroke-width:0.37136051;stroke-opacity:1"
       d="m 1285.8188,-304.39688 c 11.639,0 21.0742,-9.43522 21.0742,-21.07416 0,-11.63894 -9.4352,-21.07416 -21.0742,-21.07416 -11.6389,0 -21.0741,9.43522 -21.0741,21.07416 0,11.63894 9.4352,21.07416 21.0741,21.07416 z"
       id="path3021-1-7-9-5-9-74-55" />
    <path
       inkscape:connector-curvature="0"
       style="fill:none;stroke:#ff0000;stroke-width:0.34041381;stroke-opacity:1"
       d="m 1266.5009,-274.48016 c 0,10.66901 8.6489,19.31799 19.318,19.31799 10.669,0 19.3179,-8.64898 19.3179,-19.31799 0,-10.66903 -8.6489,-19.31798 -19.3179,-19.31798 -10.6691,0 -19.318,8.64895 -19.318,19.31798 z"
       id="path3021-17-4-4-40-2-82-0-2-7" />
    <path
       style="fill:none;stroke:#000000;stroke-width:0.20370242;stroke-miterlimit:4;stroke-opacity:1"
       d="m 1385.7404,-354.05012 -0.125,28.1761 28.1684,-0.1233 0,103.2784 -28.0434,-0.2801 0,27.7346 -71.4995,0 0,-158.7857 z"
       id="rect3039-1-2-0"
       inkscape:connector-curvature="0"
       sodipodi:nodetypes="ccccccccc" />
    <path
       inkscape:connector-curvature="0"
       style="fill:none;stroke:#ff0000;stroke-width:0.37136051;stroke-opacity:1"
       d="m 1342.4593,-202.14448 c -11.639,0 -21.0742,-9.43522 -21.0742,-21.07416 0,-11.63894 9.4352,-21.07416 21.0742,-21.07416 11.6389,0 21.0741,9.43522 21.0741,21.07416 0,11.63894 -9.4352,21.07416 -21.0741,21.07416 z"
       id="path3021-1-7-9-5-9-4-9" />
    <path
       inkscape:connector-curvature="0"
       style="fill:none;stroke:#ff0000;stroke-width:0.37136051;stroke-opacity:1"
       d="m 1342.4593,-304.39688 c -11.639,0 -21.0742,-9.43522 -21.0742,-21.07416 0,-11.63894 9.4352,-21.07416 21.0742,-21.07416 11.6389,0 21.0741,9.43522 21.0741,21.07416 0,11.63894 -9.4352,21.07416 -21.0741,21.07416 z"
       id="path3021-1-7-9-5-9-74-55-4" />
    <path
       inkscape:connector-curvature="0"
       style="fill:none;stroke:#ff0000;stroke-width:0.34041381;stroke-opacity:1"
       d="m 1361.7772,-274.48016 c 0,10.66901 -8.6489,19.31799 -19.318,19.31799 -10.669,0 -19.3179,-8.64898 -19.3179,-19.31799 0,-10.66903 8.6489,-19.31798 19.3179,-19.31798 10.6691,0 19.318,8.64895 19.318,19.31798 z"
       id="path3021-17-4-4-40-2-82-0-2-7-8" />
    <path
       inkscape:connector-curvature="0"
       style="fill:none;stroke:#000000;stroke-width:0.35433072;stroke-miterlimit:4;stroke-opacity:1"
       d="m 1015.1001,-304.63275 148.6935,0 0,148.69397 -148.6935,0 z"
       id="rect3204" />
    <path
       inkscape:connector-curvature="0"
       style="fill:none;stroke:#ff0000;stroke-width:0.68082756;stroke-opacity:1"
       d="m 1089.2699,-191.90288 c -21.3381,0 -38.636,-17.29791 -38.636,-38.63596 0,-21.33806 17.2979,-38.63597 38.636,-38.63597 21.338,0 38.6359,17.29791 38.6359,38.63597 0,21.33805 -17.2979,38.63596 -38.6359,38.63596 z"
       id="path3021-17-4-4-45" />
    <path
       inkscape:connector-curvature="0"
       style="fill:none;stroke:#ff0000;stroke-width:0.30574074;stroke-miterlimit:4;stroke-opacity:1"
       d="m 1034.4044,-278.52988 c -3.8294,0 -6.9338,-3.10435 -6.9338,-6.93377 0,-3.82942 3.1044,-6.93376 6.9338,-6.93376 3.8294,0 6.9337,3.10434 6.9337,6.93376 0,3.82942 -3.1043,6.93377 -6.9337,6.93377 z"
       id="path3042-4-5" />
    <path
       inkscape:connector-curvature="0"
       style="fill:none;stroke:#ff0000;stroke-width:0.30574074;stroke-miterlimit:4;stroke-opacity:1"
       d="m 1144.2524,-278.52988 c -3.8294,0 -6.9338,-3.10435 -6.9338,-6.93377 0,-3.82942 3.1044,-6.93376 6.9338,-6.93376 3.8294,0 6.9337,3.10434 6.9337,6.93376 0,3.82942 -3.1043,6.93377 -6.9337,6.93377 z"
       id="path3042-7-8-1" />
    <path
       inkscape:connector-curvature="0"
       style="fill:none;stroke:#ff0000;stroke-width:0.30574074;stroke-miterlimit:4;stroke-opacity:1"
       d="m 1144.2524,-168.68988 c -3.8294,0 -6.9338,-3.10435 -6.9338,-6.93377 0,-3.82942 3.1044,-6.93376 6.9338,-6.93376 3.8294,0 6.9337,3.10434 6.9337,6.93376 0,3.82942 -3.1043,6.93377 -6.9337,6.93377 z"
       id="path3042-7-4-8-7" />
    <path
       inkscape:connector-curvature="0"
       style="fill:none;stroke:#ff0000;stroke-width:0.30574074;stroke-miterlimit:4;stroke-opacity:1"
       d="m 1034.4044,-168.68988 c -3.8294,0 -6.9338,-3.10435 -6.9338,-6.93377 0,-3.82942 3.1044,-6.93376 6.9338,-6.93376 3.8294,0 6.9337,3.10434 6.9337,6.93376 0,3.82942 -3.1043,6.93377 -6.9337,6.93377 z"
       id="path3042-7-0-2-1" />
    <g
       id="g4575">
      <path
         inkscape:connector-curvature="0"
         style="fill:none;stroke:#000000;stroke-width:0.35433072;stroke-miterlimit:4;stroke-opacity:1"
         d="m 1015.1001,-453.68106 148.6935,0 0,148.69397 -148.6935,0 z"
         id="rect3204-5" />
      <path
         inkscape:connector-curvature="0"
         transform="matrix(0,0.57388953,-0.80769238,0,1877.723,-525.99784)"
         style="fill:none;stroke:#ff0000;stroke-opacity:1"
         d="m 322.44299,976.17999 c 0,26.41851 -30.14153,47.83501 -67.32299,47.83501 -37.18147,0 -67.323,-21.4165 -67.323,-47.83501 0,-26.41854 30.14153,-47.835 67.323,-47.835 37.18146,0 67.32299,21.41646 67.32299,47.835 z"
         id="path3021-17-4-4-45-2" />
      <path
         inkscape:connector-curvature="0"
         transform="matrix(0,0.86287,-0.86287,0,1547.6912,-1435.096)"
         style="fill:none;stroke:#ff0000;stroke-width:0.35433;stroke-miterlimit:4;stroke-opacity:1"
         d="m 1167.6357,594.85999 c 0,4.43799 -3.5977,8.0357 -8.0357,8.0357 -4.438,0 -8.0357,-3.59771 -8.0357,-8.0357 0,-4.438 3.5977,-8.0357 8.0357,-8.0357 4.438,0 8.0357,3.5977 8.0357,8.0357 z"
         id="path3042-4-5-7" />
      <path
         inkscape:connector-curvature="0"
         transform="matrix(0,0.86287,-0.86287,0,1657.5392,-1435.096)"
         style="fill:none;stroke:#ff0000;stroke-width:0.35433;stroke-miterlimit:4;stroke-opacity:1"
         d="m 1167.6357,594.85999 c 0,4.43799 -3.5977,8.0357 -8.0357,8.0357 -4.438,0 -8.0357,-3.59771 -8.0357,-8.0357 0,-4.438 3.5977,-8.0357 8.0357,-8.0357 4.438,0 8.0357,3.5977 8.0357,8.0357 z"
         id="path3042-7-8-1-6" />
      <path
         inkscape:connector-curvature="0"
         transform="matrix(0,0.86287,-0.86287,0,1657.5392,-1325.256)"
         style="fill:none;stroke:#ff0000;stroke-width:0.35433;stroke-miterlimit:4;stroke-opacity:1"
         d="m 1167.6357,594.85999 c 0,4.43799 -3.5977,8.0357 -8.0357,8.0357 -4.438,0 -8.0357,-3.59771 -8.0357,-8.0357 0,-4.438 3.5977,-8.0357 8.0357,-8.0357 4.438,0 8.0357,3.5977 8.0357,8.0357 z"
         id="path3042-7-4-8-7-1" />
      <path
         inkscape:connector-curvature="0"
         transform="matrix(0,0.86287,-0.86287,0,1547.6912,-1325.256)"
         style="fill:none;stroke:#ff0000;stroke-width:0.35433;stroke-miterlimit:4;stroke-opacity:1"
         d="m 1167.6357,594.85999 c 0,4.43799 -3.5977,8.0357 -8.0357,8.0357 -4.438,0 -8.0357,-3.59771 -8.0357,-8.0357 0,-4.438 3.5977,-8.0357 8.0357,-8.0357 4.438,0 8.0357,3.5977 8.0357,8.0357 z"
         id="path3042-7-0-2-1-4" />
    </g>
  </g>
</svg>
