<?xml version="1.0" encoding="UTF-8" standalone="no"?>
<!-- Created with Inkscape (http://www.inkscape.org/) -->

<svg
   xmlns:dc="http://purl.org/dc/elements/1.1/"
   xmlns:cc="http://creativecommons.org/ns#"
   xmlns:rdf="http://www.w3.org/1999/02/22-rdf-syntax-ns#"
   xmlns:svg="http://www.w3.org/2000/svg"
   xmlns="http://www.w3.org/2000/svg"
   xmlns:sodipodi="http://sodipodi.sourceforge.net/DTD/sodipodi-0.dtd"
   xmlns:inkscape="http://www.inkscape.org/namespaces/inkscape"
   width="4429.1338"
   height="4429.1338"
   id="svg2"
   version="1.1"
   inkscape:version="0.48.4 r9939"
   sodipodi:docname="PCB_CNC_V1_preprint.svg">
  <defs
     id="defs4" />
  <sodipodi:namedview
     id="base"
     pagecolor="#ffffff"
     bordercolor="#666666"
     borderopacity="1.0"
     inkscape:pageopacity="0.0"
     inkscape:pageshadow="2"
     inkscape:zoom="0.90509668"
     inkscape:cx="952.45624"
     inkscape:cy="948.19288"
     inkscape:document-units="mm"
     inkscape:current-layer="layer1"
     showgrid="true"
     inkscape:window-width="1788"
     inkscape:window-height="1058"
     inkscape:window-x="-8"
     inkscape:window-y="-8"
     inkscape:window-maximized="1"
     units="mm"
     inkscape:snap-bbox="true"
     showguides="true"
     inkscape:guide-bbox="true"
     showborder="true"
     inkscape:snap-nodes="true"
     inkscape:snap-grids="false"
     inkscape:snap-bbox-midpoints="true"
     inkscape:object-nodes="true"
     inkscape:object-paths="true"
     inkscape:snap-intersection-paths="true"
     inkscape:bbox-nodes="true"
     inkscape:snap-midpoints="false"
     inkscape:snap-object-midpoints="false">
    <inkscape:grid
       type="xygrid"
       id="grid3013"
       empspacing="5"
       visible="true"
       enabled="true"
       snapvisiblegridlinesonly="true"
       units="mm"
       spacingx="1mm"
       spacingy="1mm" />
    <sodipodi:guide
       orientation="0,1"
       position="-6095.9998,0"
       id="guide3879" />
    <sodipodi:guide
       orientation="1,0"
       position="0,0"
       id="guide3881" />
    <sodipodi:guide
       orientation="1,0"
       position="1499.4646,407.74279"
       id="guide3910" />
    <sodipodi:guide
       orientation="0,1"
       position="2.6255965,1595.8978"
       id="guide3981" />
  </sodipodi:namedview>
  <metadata
     id="metadata7">
    <rdf:RDF>
      <cc:Work
         rdf:about="">
        <dc:format>image/svg+xml</dc:format>
        <dc:type
           rdf:resource="http://purl.org/dc/dcmitype/StillImage" />
        <dc:title></dc:title>
      </cc:Work>
    </rdf:RDF>
  </metadata>
  <g
     inkscape:label="Layer 1"
     inkscape:groupmode="layer"
     id="layer1"
     transform="translate(0,3376.7716)">
    <path
       style="fill:none;stroke:#000000;stroke-width:0.35591999;stroke-linecap:round;stroke-linejoin:bevel;stroke-miterlimit:4;stroke-opacity:1"
       d="m 885.36899,-156.04959 0,0 0,-28.1 60.4,-0.2 0.1,28.3 28.3,0 0,70.887595 28.47791,0.2654 0,141.533298 -28.47791,-0.024 0,70.887497 -28.3,0 0,28.1041 -60.5,0 0.1,-28.0941 0,0 z"
       id="rect3227"
       inkscape:connector-curvature="0"
       sodipodi:nodetypes="ccccccccccccccccc" />
    <path
       style="fill:none;stroke:#000000;stroke-width:0.35591999;stroke-linecap:round;stroke-linejoin:bevel;stroke-miterlimit:4;stroke-opacity:1"
       d="m 1293.294,-156.02559 0,0 0,-28.1 -60.4,-0.2 -0.1,28.3001 -28.3,0 0,70.887495 -28.478,0.2654 0,141.533298 28.478,-0.024 0,70.887497 28.3,0 0,28.1042 60.5,0 -0.1,-28.0942 0,0 z"
       id="rect3227-1"
       inkscape:connector-curvature="0"
       sodipodi:nodetypes="ccccccccccccccccc" />
    <path
       style="fill:none;stroke:#000000;stroke-width:0.35433;stroke-miterlimit:4;stroke-opacity:1;stroke-dasharray:none"
       d="m 1181.2936,-269.66874 -17.5,0.55 0,113.17995 -148.8,0 0,-113.34995 -16.7,0.13 -23.70001,24.32 -0.3,159.956145 28.10391,-0.014 0.2494,141.533298 -28.35331,3e-4 0,99.236897 40.78841,0 -0.088,-28.4622 148.8,0 0,28.3 40.7,0 0,-99.074997 -28.25,0 0,-141.533298 28.4603,0 -0.2103,-159.941645 z"
       id="rect2997"
       inkscape:connector-curvature="0"
       sodipodi:nodetypes="ccccccccccccccccccccccc" />
    <path
       sodipodi:nodetypes="ccccccccccccccccc"
       inkscape:connector-curvature="0"
       id="rect3787-0-88-7"
       d="m 1462.6562,-194.6854 0,229.9 -30.95,0 0.1,-28 -60.19,-0.2 0,28.2 -28.67,0 0,-40.5 -28.63,0 0,-148.8 28.63,0 0,-40.6 28.44,0 0,28.1 60.32,-0.1 0,-28.3 c 0,0 18.08,0.3 30.95,0.3 z"
       style="fill:none;stroke:#000000;stroke-width:0.35433;stroke-miterlimit:4;stroke-opacity:1" />
    <path
       sodipodi:type="arc"
       style="fill:none;stroke:#ff0000;stroke-opacity:1"
       id="path3021-17-4-4"
       sodipodi:cx="255.12"
       sodipodi:cy="976.17999"
       sodipodi:rx="67.322998"
       sodipodi:ry="47.834999"
       d="m 322.44299,976.17999 a 67.322998,47.834999 0 1 1 -134.64599,0 67.322998,47.834999 0 1 1 134.64599,0 z"
       transform="matrix(0,0.57388953,-0.80769238,0,2176.9394,-226.2961)" />
    <path
       sodipodi:type="arc"
       style="fill:none;stroke:#ff0000;stroke-width:0.35433;stroke-miterlimit:4;stroke-opacity:1;stroke-dasharray:none"
       id="path3042-4"
       sodipodi:cx="1159.6"
       sodipodi:cy="594.85999"
       sodipodi:rx="8.0356998"
       sodipodi:ry="8.0356998"
       d="m 1167.6357,594.85999 a 8.0356998,8.0356998 0 1 1 -16.0714,0 8.0356998,8.0356998 0 1 1 16.0714,0 z"
       transform="matrix(0,0.86287,-0.86287,0,1846.9076,-1135.3943)" />
    <path
       sodipodi:type="arc"
       style="fill:none;stroke:#ff0000;stroke-width:0.35433;stroke-miterlimit:4;stroke-opacity:1;stroke-dasharray:none"
       id="path3042-7-8"
       sodipodi:cx="1159.6"
       sodipodi:cy="594.85999"
       sodipodi:rx="8.0356998"
       sodipodi:ry="8.0356998"
       d="m 1167.6357,594.85999 a 8.0356998,8.0356998 0 1 1 -16.0714,0 8.0356998,8.0356998 0 1 1 16.0714,0 z"
       transform="matrix(0,0.86287,-0.86287,0,1956.7556,-1135.3943)" />
    <path
       sodipodi:type="arc"
       style="fill:none;stroke:#ff0000;stroke-width:0.35433;stroke-miterlimit:4;stroke-opacity:1;stroke-dasharray:none"
       id="path3042-7-4-8"
       sodipodi:cx="1159.6"
       sodipodi:cy="594.85999"
       sodipodi:rx="8.0356998"
       sodipodi:ry="8.0356998"
       d="m 1167.6357,594.85999 a 8.0356998,8.0356998 0 1 1 -16.0714,0 8.0356998,8.0356998 0 1 1 16.0714,0 z"
       transform="matrix(0,0.86287,-0.86287,0,1956.7556,-1025.5543)" />
    <path
       sodipodi:type="arc"
       style="fill:none;stroke:#ff0000;stroke-width:0.35433;stroke-miterlimit:4;stroke-opacity:1;stroke-dasharray:none"
       id="path3042-7-0-2"
       sodipodi:cx="1159.6"
       sodipodi:cy="594.85999"
       sodipodi:rx="8.0356998"
       sodipodi:ry="8.0356998"
       d="m 1167.6357,594.85999 a 8.0356998,8.0356998 0 1 1 -16.0714,0 8.0356998,8.0356998 0 1 1 16.0714,0 z"
       transform="matrix(0,0.86287,-0.86287,0,1846.9076,-1025.5543)" />
    <path
       sodipodi:nodetypes="ccccccccccccc"
       inkscape:connector-curvature="0"
       id="rect3787-0-88-7-9"
       d="m 1015.0936,-443.18874 -60.19,0.2 0,-28.2 -28.67,0 0,40.5 -28.63,0 0,148.8 28.63,0 0,40.6 28.44,0 0,-28.1 60.32,0.1 z"
       style="fill:none;stroke:#000000;stroke-width:0.35433;stroke-miterlimit:4;stroke-opacity:1" />
    <path
       sodipodi:type="arc"
       style="fill:none;stroke:#ff0000;stroke-opacity:1"
       id="path3021-17-4-4-4"
       sodipodi:cx="255.12"
       sodipodi:cy="976.17999"
       sodipodi:rx="67.322998"
       sodipodi:ry="47.834999"
       d="m 322.44299,976.17999 a 67.322998,47.834999 0 1 1 -134.64599,0 67.322998,47.834999 0 1 1 134.64599,0 z"
       transform="matrix(0,-0.39675,-0.55838,0,1516.8236,-254.98874)" />
    <path
       sodipodi:type="arc"
       style="fill:none;stroke:#ff0000;stroke-opacity:1"
       id="path3021-1-7-9-5-9-8"
       sodipodi:cx="255.12"
       sodipodi:cy="976.17999"
       sodipodi:rx="67.322998"
       sodipodi:ry="47.834999"
       d="m 322.44299,976.17999 a 67.322998,47.834999 0 1 1 -134.64599,0 67.322998,47.834999 0 1 1 134.64599,0 z"
       transform="matrix(0,-0.31303066,-0.44055948,0,1401.8096,-327.60874)" />
    <path
       sodipodi:type="arc"
       style="fill:none;stroke:#ff0000;stroke-width:0.35433;stroke-miterlimit:4;stroke-opacity:1;stroke-dasharray:none"
       id="path3042-4-8"
       sodipodi:cx="1159.6"
       sodipodi:cy="594.85999"
       sodipodi:rx="8.0356998"
       sodipodi:ry="8.0356998"
       d="m 1167.6357,594.85999 a 8.0356998,8.0356998 0 1 1 -16.0714,0 8.0356998,8.0356998 0 1 1 16.0714,0 z"
       transform="matrix(0,-0.86287,-0.86287,0,1430.1656,699.30126)" />
    <path
       sodipodi:type="arc"
       style="fill:none;stroke:#ff0000;stroke-width:0.35433;stroke-miterlimit:4;stroke-opacity:1;stroke-dasharray:none"
       id="path3042-7-0-2-5"
       sodipodi:cx="1159.6"
       sodipodi:cy="594.85999"
       sodipodi:rx="8.0356998"
       sodipodi:ry="8.0356998"
       d="m 1167.6357,594.85999 a 8.0356998,8.0356998 0 1 1 -16.0714,0 8.0356998,8.0356998 0 1 1 16.0714,0 z"
       transform="matrix(0,-0.86287,-0.86287,0,1430.1656,589.46126)" />
    <path
       sodipodi:type="arc"
       style="fill:none;stroke:#ff0000;stroke-opacity:1"
       id="path3021-1-7-9-5-9-74-5"
       sodipodi:cx="255.12"
       sodipodi:cy="976.17999"
       sodipodi:rx="67.322998"
       sodipodi:ry="47.834999"
       d="m 322.44299,976.17999 a 67.322998,47.834999 0 1 1 -134.64599,0 67.322998,47.834999 0 1 1 134.64599,0 z"
       transform="matrix(0,-0.31303066,-0.44055948,0,1401.8096,-225.35634)" />
    <path
       style="fill:none;stroke:#000000;stroke-width:0.34491813;stroke-miterlimit:4;stroke-opacity:1"
       d="m 1394.0139,-495.28983 -63.8934,0.12497 0,28.0433 -102.875,0 0,-28.0433 -63.4519,-0.12497 0,141.3873 63.4519,-3e-5 0,-27.8114 102.875,0 0,27.8114 63.8934,0 z"
       id="rect3039"
       inkscape:connector-curvature="0"
       sodipodi:nodetypes="ccccccccccccc" />
    <path
       sodipodi:nodetypes="ccccccccccccccccc"
       inkscape:connector-curvature="0"
       id="rect3787-0-88-7-9-4"
       d="m 1462.6562,35.8689 0,229.9 -30.95,0 0.1,-28 -60.19,-0.2 0,28.2 -28.67,0 0,-40.5 -28.63,0 0,-148.8 28.63,0 0,-40.6 28.44,0 0,28.1 60.32,-0.1 0,-28.3 c 0,0 18.08,0.3 30.95,0.3 z"
       style="fill:none;stroke:#000000;stroke-width:0.35433;stroke-miterlimit:4;stroke-opacity:1" />
    <path
       sodipodi:type="arc"
       style="fill:none;stroke:#ff0000;stroke-opacity:1"
       id="path3021-17-4-4-4-0"
       sodipodi:cx="255.12"
       sodipodi:cy="976.17999"
       sodipodi:rx="67.322998"
       sodipodi:ry="47.834999"
       d="m 322.44299,976.17999 a 67.322998,47.834999 0 1 1 -134.64599,0 67.322998,47.834999 0 1 1 134.64599,0 z"
       transform="matrix(0,0.39675,-0.55838,0,1933.5362,49.5689)" />
    <path
       sodipodi:type="arc"
       style="fill:none;stroke:#ff0000;stroke-opacity:1"
       id="path3021-1-7-9-5-9-8-9"
       sodipodi:cx="255.12"
       sodipodi:cy="976.17999"
       sodipodi:rx="67.322998"
       sodipodi:ry="47.834999"
       d="m 322.44299,976.17999 a 67.322998,47.834999 0 1 1 -134.64599,0 67.322998,47.834999 0 1 1 134.64599,0 z"
       transform="matrix(0,0.31303066,-0.44055948,0,1818.5222,122.1889)" />
    <path
       sodipodi:type="arc"
       style="fill:none;stroke:#ff0000;stroke-width:0.35433;stroke-miterlimit:4;stroke-opacity:1;stroke-dasharray:none"
       id="path3042-4-8-4"
       sodipodi:cx="1159.6"
       sodipodi:cy="594.85999"
       sodipodi:rx="8.0356998"
       sodipodi:ry="8.0356998"
       d="m 1167.6357,594.85999 a 8.0356998,8.0356998 0 1 1 -16.0714,0 8.0356998,8.0356998 0 1 1 16.0714,0 z"
       transform="matrix(0,0.86287,-0.86287,0,1846.8782,-904.7211)" />
    <path
       sodipodi:type="arc"
       style="fill:none;stroke:#ff0000;stroke-width:0.35433;stroke-miterlimit:4;stroke-opacity:1;stroke-dasharray:none"
       id="path3042-7-8-2-8"
       sodipodi:cx="1159.6"
       sodipodi:cy="594.85999"
       sodipodi:rx="8.0356998"
       sodipodi:ry="8.0356998"
       d="m 1167.6357,594.85999 a 8.0356998,8.0356998 0 1 1 -16.0714,0 8.0356998,8.0356998 0 1 1 16.0714,0 z"
       transform="matrix(0,0.86287,-0.86287,0,1956.7262,-904.7211)" />
    <path
       sodipodi:type="arc"
       style="fill:none;stroke:#ff0000;stroke-width:0.35433;stroke-miterlimit:4;stroke-opacity:1;stroke-dasharray:none"
       id="path3042-7-4-8-4-8"
       sodipodi:cx="1159.6"
       sodipodi:cy="594.85999"
       sodipodi:rx="8.0356998"
       sodipodi:ry="8.0356998"
       d="m 1167.6357,594.85999 a 8.0356998,8.0356998 0 1 1 -16.0714,0 8.0356998,8.0356998 0 1 1 16.0714,0 z"
       transform="matrix(0,0.86287,-0.86287,0,1956.7262,-794.8811)" />
    <path
       sodipodi:type="arc"
       style="fill:none;stroke:#ff0000;stroke-width:0.35433;stroke-miterlimit:4;stroke-opacity:1;stroke-dasharray:none"
       id="path3042-7-0-2-5-2"
       sodipodi:cx="1159.6"
       sodipodi:cy="594.85999"
       sodipodi:rx="8.0356998"
       sodipodi:ry="8.0356998"
       d="m 1167.6357,594.85999 a 8.0356998,8.0356998 0 1 1 -16.0714,0 8.0356998,8.0356998 0 1 1 16.0714,0 z"
       transform="matrix(0,0.86287,-0.86287,0,1846.8782,-794.8811)" />
    <path
       sodipodi:type="arc"
       style="fill:none;stroke:#ff0000;stroke-opacity:1"
       id="path3021-1-7-9-5-9-74-5-4"
       sodipodi:cx="255.12"
       sodipodi:cy="976.17999"
       sodipodi:rx="67.322998"
       sodipodi:ry="47.834999"
       d="m 322.44299,976.17999 a 67.322998,47.834999 0 1 1 -134.64599,0 67.322998,47.834999 0 1 1 134.64599,0 z"
       transform="matrix(0,0.31303066,-0.44055948,0,1818.5222,19.9365)" />
    <path
       style="fill:none;stroke:#000000;stroke-width:0.39921165;stroke-linecap:butt;stroke-linejoin:miter;stroke-miterlimit:4;stroke-opacity:1"
       d="m 1336.3592,797.3876 -588.34282,0 -0.3401,53.201 28.3403,0 0.1,42.1483 -28.4403,0 0,91.3004 68.32492,68.3249 520.358,-0.1996 0,-28.2389 35.2571,0 0,27.9802 53.25,0 0,-27.9802 42.3065,0 -0.1767,-226.5361 32.4685,0 0,-152.7682 -32.4685,-0.042 0,-230.0792 32.4685,0 0,-106.4196 -32.5535,0 0.2618,-42.5295 -42.3067,0 0,-27.9802 -53.25,0 0,27.9802 -35.257,0 z"
       id="rect2985-3"
       inkscape:connector-curvature="0"
       sodipodi:nodetypes="cccccccccccccccccccccccccccccc" />
    <path
       sodipodi:type="arc"
       style="fill:none;stroke:#ff0000;stroke-width:0.35433;stroke-miterlimit:4;stroke-opacity:1;stroke-dasharray:none"
       id="path3042-4-4-1-4-2"
       sodipodi:cx="1159.6"
       sodipodi:cy="594.85999"
       sodipodi:rx="8.0356998"
       sodipodi:ry="8.0356998"
       d="m 1167.6357,594.85999 a 8.0356998,8.0356998 0 1 1 -16.0714,0 8.0356998,8.0356998 0 1 1 16.0714,0 z"
       transform="matrix(0.86287,0,0,0.86287,-137.1502,413.7106)" />
    <path
       sodipodi:type="arc"
       style="fill:none;stroke:#ff0000;stroke-width:0.35433;stroke-miterlimit:4;stroke-opacity:1;stroke-dasharray:none"
       id="path3042-7-8-8-6-5-1"
       sodipodi:cx="1159.6"
       sodipodi:cy="594.85999"
       sodipodi:rx="8.0356998"
       sodipodi:ry="8.0356998"
       d="m 1167.6357,594.85999 a 8.0356998,8.0356998 0 1 1 -16.0714,0 8.0356998,8.0356998 0 1 1 16.0714,0 z"
       transform="matrix(0.86287,0,0,0.86287,-137.1502,303.8626)" />
    <path
       sodipodi:type="arc"
       style="fill:none;stroke:#ff0000;stroke-width:0.35433;stroke-miterlimit:4;stroke-opacity:1;stroke-dasharray:none"
       id="path3042-7-4-8-8-8-51-6"
       sodipodi:cx="1159.6"
       sodipodi:cy="594.85999"
       sodipodi:rx="8.0356998"
       sodipodi:ry="8.0356998"
       d="m 1167.6357,594.85999 a 8.0356998,8.0356998 0 1 1 -16.0714,0 8.0356998,8.0356998 0 1 1 16.0714,0 z"
       transform="matrix(0.86287,0,0,0.86287,-27.3102,303.8626)" />
    <path
       sodipodi:type="arc"
       style="fill:none;stroke:#ff0000;stroke-width:0.35433;stroke-miterlimit:4;stroke-opacity:1;stroke-dasharray:none"
       id="path3042-7-0-2-2-5-7-85"
       sodipodi:cx="1159.6"
       sodipodi:cy="594.85999"
       sodipodi:rx="8.0356998"
       sodipodi:ry="8.0356998"
       d="m 1167.6357,594.85999 a 8.0356998,8.0356998 0 1 1 -16.0714,0 8.0356998,8.0356998 0 1 1 16.0714,0 z"
       transform="matrix(0.86287,0,0,0.86287,-27.3102,413.7106)" />
    <rect
       style="fill:none;stroke:#ff0000;stroke-width:0.35433072;stroke-miterlimit:4;stroke-opacity:1;stroke-dasharray:none"
       id="rect3132-6"
       width="27.6852"
       height="42.1483"
       x="-1087.6797"
       y="850.58862"
       transform="scale(-1,1)" />
    <rect
       style="fill:none;stroke:#ff0000;stroke-width:0.35433072;stroke-miterlimit:4;stroke-opacity:1;stroke-dasharray:none"
       id="rect3134-1"
       width="29.989799"
       height="28.3876"
       x="-1022.1973"
       y="917.68457"
       transform="scale(-1,1)" />
    <rect
       style="fill:none;stroke:#ff0000;stroke-width:0.35433072;stroke-miterlimit:4;stroke-opacity:1;stroke-dasharray:none"
       id="rect3136-8"
       width="30.771999"
       height="28.1597"
       x="-843.66571"
       y="917.68457"
       transform="scale(-1,1)" />
    <rect
       style="fill:none;stroke:#ff0000;stroke-width:0.35433072;stroke-miterlimit:4;stroke-opacity:1;stroke-dasharray:none"
       id="rect3508"
       width="70.712936"
       height="27.489111"
       x="1152.2729"
       y="917.68457" />
    <rect
       style="fill:none;stroke:#ff0000;stroke-width:0.35433072;stroke-miterlimit:4;stroke-opacity:1;stroke-dasharray:none"
       id="rect3510"
       width="53.25"
       height="27.489111"
       x="1371.6163"
       y="917.68457" />
    <path
       sodipodi:type="arc"
       style="fill:none;stroke:#ff0000;stroke-opacity:1"
       id="path3021-1-9-5-8-1"
       sodipodi:cx="255.1181"
       sodipodi:cy="976.18109"
       sodipodi:rx="67.322838"
       sodipodi:ry="47.834644"
       d="m 322.44094,976.18109 a 67.322838,47.834644 0 1 1 -134.64567,0 67.322838,47.834644 0 1 1 134.64567,0 z"
       transform="matrix(0,-0.41737518,0.58741697,0,-100.65708,978.55341)" />
    <path
       style="fill:none;stroke:#000000;stroke-width:0.39921165;stroke-linecap:butt;stroke-linejoin:miter;stroke-miterlimit:4;stroke-opacity:1"
       d="m 158.99344,797.3876 588.3428,0 0.3401,53.201 -28.3403,0 -0.1,42.1483 28.4403,0 -10e-5,91.3004 -68.3249,68.3249 -520.3579,-0.1996 0,-28.2389 -35.2571,0 0,27.9802 -53.25,0 0,-27.9802 -42.30655,0 0,-226.5361 -27.98018,0 0,-152.7682 27.98018,-0.042 0,-230.0792 -27.98018,0 0,-106.4196 27.98018,0 -2e-5,-42.5295 42.30664,0 0,-27.9802 53.25,0 0,27.9802 35.25703,0 z"
       id="rect2985-3-8"
       inkscape:connector-curvature="0"
       sodipodi:nodetypes="cccccccccccccccccccccccccccccc" />
    <path
       sodipodi:type="arc"
       style="fill:none;stroke:#ff0000;stroke-opacity:1"
       id="path3021-17-4-4-1"
       sodipodi:cx="255.12"
       sodipodi:cy="976.17999"
       sodipodi:rx="67.322998"
       sodipodi:ry="47.834999"
       d="m 322.44299,976.17999 a 67.322998,47.834999 0 1 1 -134.64599,0 67.322998,47.834999 0 1 1 134.64599,0 z"
       transform="matrix(0.57388953,0,0,0.80769238,430.58324,83.6787)" />
    <path
       sodipodi:type="arc"
       style="fill:none;stroke:#ff0000;stroke-width:0.35433;stroke-miterlimit:4;stroke-opacity:1;stroke-dasharray:none"
       id="path3042-4-4-1-4-2-4"
       sodipodi:cx="1159.6"
       sodipodi:cy="594.85999"
       sodipodi:rx="8.0356998"
       sodipodi:ry="8.0356998"
       d="m 1167.6357,594.85999 a 8.0356998,8.0356998 0 1 1 -16.0714,0 8.0356998,8.0356998 0 1 1 16.0714,0 z"
       transform="matrix(-0.86287,0,0,0.86287,1632.5028,413.7106)" />
    <path
       sodipodi:type="arc"
       style="fill:none;stroke:#ff0000;stroke-width:0.35433;stroke-miterlimit:4;stroke-opacity:1;stroke-dasharray:none"
       id="path3042-7-8-8-6-5-1-2"
       sodipodi:cx="1159.6"
       sodipodi:cy="594.85999"
       sodipodi:rx="8.0356998"
       sodipodi:ry="8.0356998"
       d="m 1167.6357,594.85999 a 8.0356998,8.0356998 0 1 1 -16.0714,0 8.0356998,8.0356998 0 1 1 16.0714,0 z"
       transform="matrix(-0.86287,0,0,0.86287,1632.5028,303.8626)" />
    <path
       sodipodi:type="arc"
       style="fill:none;stroke:#ff0000;stroke-width:0.35433;stroke-miterlimit:4;stroke-opacity:1;stroke-dasharray:none"
       id="path3042-7-4-8-8-8-51-6-7"
       sodipodi:cx="1159.6"
       sodipodi:cy="594.85999"
       sodipodi:rx="8.0356998"
       sodipodi:ry="8.0356998"
       d="m 1167.6357,594.85999 a 8.0356998,8.0356998 0 1 1 -16.0714,0 8.0356998,8.0356998 0 1 1 16.0714,0 z"
       transform="matrix(-0.86287,0,0,0.86287,1522.6628,303.8626)" />
    <path
       sodipodi:type="arc"
       style="fill:none;stroke:#ff0000;stroke-width:0.35433;stroke-miterlimit:4;stroke-opacity:1;stroke-dasharray:none"
       id="path3042-7-0-2-2-5-7-85-7"
       sodipodi:cx="1159.6"
       sodipodi:cy="594.85999"
       sodipodi:rx="8.0356998"
       sodipodi:ry="8.0356998"
       d="m 1167.6357,594.85999 a 8.0356998,8.0356998 0 1 1 -16.0714,0 8.0356998,8.0356998 0 1 1 16.0714,0 z"
       transform="matrix(-0.86287,0,0,0.86287,1522.6628,413.7106)" />
    <rect
       style="fill:none;stroke:#ff0000;stroke-width:0.35433072;stroke-miterlimit:4;stroke-opacity:1;stroke-dasharray:none"
       id="rect3132-6-3"
       width="27.6852"
       height="42.1483"
       x="407.67291"
       y="850.58862" />
    <rect
       style="fill:none;stroke:#ff0000;stroke-width:0.35433072;stroke-miterlimit:4;stroke-opacity:1;stroke-dasharray:none"
       id="rect3134-1-1"
       width="29.989799"
       height="28.3876"
       x="473.15533"
       y="917.68457" />
    <rect
       style="fill:none;stroke:#ff0000;stroke-width:0.35433072;stroke-miterlimit:4;stroke-opacity:1;stroke-dasharray:none"
       id="rect3136-8-9"
       width="30.771999"
       height="28.1597"
       x="651.68695"
       y="917.68457" />
    <rect
       style="fill:none;stroke:#ff0000;stroke-width:0.35433072;stroke-miterlimit:4;stroke-opacity:1;stroke-dasharray:none"
       id="rect3508-6"
       width="70.712936"
       height="27.489111"
       x="-343.07977"
       y="917.68457"
       transform="scale(-1,1)" />
    <rect
       style="fill:none;stroke:#ff0000;stroke-width:0.35433072;stroke-miterlimit:4;stroke-opacity:1;stroke-dasharray:none"
       id="rect3510-5"
       width="53.25"
       height="27.489111"
       x="-123.73631"
       y="917.68457"
       transform="scale(-1,1)" />
    <path
       style="fill:none;stroke:#000000;stroke-width:0.32720107;stroke-miterlimit:4;stroke-opacity:1"
       d="m 884.81466,-542.9451 -42.5873,0.2407 0,28.6176 -24.7792,0.1631 0.19,120.8987 -28.375,0.1056 0,102.2566 28.295,0.197 0.08,198.9431 -28.375,-0.001 0,98.7381 28.4173,-0.025 0.056,120.8746 24.6802,0.1336 0.25,27.9403 42.1484,-0.1 z"
       id="rect3035-1"
       inkscape:connector-curvature="0"
       sodipodi:nodetypes="ccccccccccccccccc" />
    <rect
       style="fill:none;stroke:#000000;stroke-width:0.2903783;stroke-miterlimit:4;stroke-opacity:1;stroke-dasharray:none"
       id="rect3212"
       width="389.47339"
       height="354.64722"
       x="-393.93829"
       y="-781.61804"
       transform="matrix(0,1,-1,0,0,0)" />
    <path
       style="fill:none;stroke:#000000;stroke-width:0.30095342;stroke-miterlimit:4;stroke-opacity:1"
       d="m 70.4394,-514.2523 0.1,120.3138 28.1378,0 0,102.9469 -28.2951,0.1971 -0.08,198.693 28.375,0 -0.3536,99.2909 -28.1198,0 0,120.2969 65.2174,0 0,28.1597 30.772,0 0,-28.1597 148.5418,0 0,28.3876 29.98976,0 0,-28.3876 130.0757,0 0,27.4892 70.7129,0 0,-27.4892 148.6305,0 0,27.4892 53.25,0 0,-27.4892 70.2867,0 0,-120.2969 -435.3156,0 0,-99.3899 28.375,0 -0.08,-198.693 -28.2951,-0.1971 0.3536,-102.8477 434.9621,0 0,-120.2659 -70.2911,-0.031 0,-27.4892 -53.25,0 0,27.4892 -148.6304,0 0,-27.4892 -70.713,0 0,27.4892 -130.0757,0 0,-28.3876 -29.98976,0 0,28.3876 -148.5418,0 0,-28.1598 -30.772,0 0,28.1598 z"
       id="rect3183"
       inkscape:connector-curvature="0"
       sodipodi:nodetypes="ccccccccccccccccccccccccccccccccccccccccccccccccccccc" />
    <path
       style="fill:none;stroke:#000000;stroke-width:0.32720107;stroke-miterlimit:4;stroke-opacity:1"
       d="m 2.789597,-543.372 42.5873,0.2407 0,28.6176 24.7792,0.1631 -0.19,116.8988 28.375003,0.1055 0,106.2567 -28.295003,0.197 0.256,198.7911 28.375003,0 -0.336,99.3891 -28.417303,-0.025 -0.056,120.8746 -24.6802,0.1336 -0.25,27.9403 -42.1484,-0.1 z"
       id="rect3035"
       inkscape:connector-curvature="0"
       sodipodi:nodetypes="ccccccccccccccccc" />
    <path
       style="fill:none;stroke:#000000;stroke-width:0.46754652;stroke-linecap:butt;stroke-linejoin:miter;stroke-miterlimit:4;stroke-opacity:1"
       d="m 340.72786,797.7044 0,-75.035 28.6001,0 0,-124.0972 -28.6001,0 0,-35.0948 28.6001,-0.2605 -0.01,-176.7395 -28.5933,0 0,-35.75 28.5933,0 0,-124.25 -28.5933,0 0,-70.6035 70.7514,0 0,27.9802 106.4196,0 0,-27.9802 230.0788,0 0,27.9802 152.8106,0 0,-27.9802 120.29694,0 0,120.2969 27.4892,0 0,-120.2969 106.9889,0 0,70.6035 -28.2422,0 0,124.25 28.2422,0 0,35.75 -28.2422,0 0,177 28.2422,0 0,35.0948 -28.2422,0 0,124.0972 28.2422,0 0,74.895 -106.9889,0 0,-120.2659 -27.4892,0 0,120.2659 -120.29694,0 0,-32.4686 -152.8106,0 0.042,32.2918 -230.1208,0.1768 0,-32.4686 -106.4196,0 0,32.4686 z"
       id="rect2987"
       inkscape:connector-curvature="0"
       sodipodi:nodetypes="ccccccccccccccccccccccccccccccccccccccccccccccccccccc" />
    <path
       sodipodi:nodetypes="ccccccccccccccccccccccccc"
       inkscape:connector-curvature="0"
       id="rect2989-4-1-2"
       d="m 209.91414,797.70446 0,-641.83051 35.2571,0 0,27.98018 53.25,0 0,-27.98018 42.3066,0 0,70.60347 28.6001,0 0,124.24999 -28.6001,0 0,35.75 28.6001,0 0,176.73951 -28.6001,0.26049 0,35.09484 28.6001,0 0,124.09724 -28.6001,0 0,74.89491 -42.3066,0 0,-28.23887 -53.25,1e-5 0,28.23886 z"
       style="fill:none;stroke:#000000;stroke-width:0.38933307;stroke-miterlimit:4;stroke-opacity:1" />
    <path
       sodipodi:type="arc"
       style="fill:none;stroke:#ff0000;stroke-opacity:1"
       id="path3021-1-9-5-8"
       sodipodi:cx="255.1181"
       sodipodi:cy="976.18109"
       sodipodi:rx="67.322838"
       sodipodi:ry="47.834644"
       d="m 322.44094,976.18109 a 67.322838,47.834644 0 1 1 -134.64567,0 67.322838,47.834644 0 1 1 134.64567,0 z"
       transform="matrix(0,-0.41737518,0.58741697,0,-283.8043,705.05221)" />
    <path
       sodipodi:type="arc"
       style="fill:none;stroke:#ff0000;stroke-opacity:1"
       id="path3021-1-7-4-2-6"
       sodipodi:cx="255.1181"
       sodipodi:cy="976.18109"
       sodipodi:rx="67.322838"
       sodipodi:ry="47.834644"
       d="m 322.44094,976.18109 a 67.322838,47.834644 0 1 1 -134.64567,0 67.322838,47.834644 0 1 1 134.64567,0 z"
       transform="matrix(0,-0.41737518,0.58741697,0,-283.8043,457.56484)" />
    <path
       sodipodi:type="arc"
       style="fill:none;stroke:#ff0000;stroke-width:0.35433;stroke-miterlimit:4;stroke-opacity:1;stroke-dasharray:none"
       id="path3042-4-4-1-2-8-7-0"
       sodipodi:cx="1159.6"
       sodipodi:cy="594.85999"
       sodipodi:rx="8.0356998"
       sodipodi:ry="8.0356998"
       d="m 1167.6357,594.85999 a 8.0356998,8.0356998 0 1 1 -16.0714,0 8.0356998,8.0356998 0 1 1 16.0714,0 z"
       transform="matrix(-0.86287,0,0,0.86287,1345.8251,18.10935)" />
    <path
       sodipodi:type="arc"
       style="fill:none;stroke:#ff0000;stroke-width:0.35433;stroke-miterlimit:4;stroke-opacity:1;stroke-dasharray:none"
       id="path3042-7-8-8-6-4-8-6-2"
       sodipodi:cx="1159.6"
       sodipodi:cy="594.85999"
       sodipodi:rx="8.0356998"
       sodipodi:ry="8.0356998"
       d="m 1167.6357,594.85999 a 8.0356998,8.0356998 0 1 1 -16.0714,0 8.0356998,8.0356998 0 1 1 16.0714,0 z"
       transform="matrix(-0.86287,0,0,0.86287,1345.8251,-91.7386)" />
    <path
       sodipodi:type="arc"
       style="fill:none;stroke:#ff0000;stroke-width:0.35433;stroke-miterlimit:4;stroke-opacity:1;stroke-dasharray:none"
       id="path3042-7-4-8-8-8-55-2-1-4"
       sodipodi:cx="1159.6"
       sodipodi:cy="594.85999"
       sodipodi:rx="8.0356998"
       sodipodi:ry="8.0356998"
       d="m 1167.6357,594.85999 a 8.0356998,8.0356998 0 1 1 -16.0714,0 8.0356998,8.0356998 0 1 1 16.0714,0 z"
       transform="matrix(-0.86287,0,0,0.86287,1235.9851,-91.7386)" />
    <path
       sodipodi:type="arc"
       style="fill:none;stroke:#ff0000;stroke-width:0.35433;stroke-miterlimit:4;stroke-opacity:1;stroke-dasharray:none"
       id="path3042-7-0-2-2-5-1-4-4-8"
       sodipodi:cx="1159.6"
       sodipodi:cy="594.85999"
       sodipodi:rx="8.0356998"
       sodipodi:ry="8.0356998"
       d="m 1167.6357,594.85999 a 8.0356998,8.0356998 0 1 1 -16.0714,0 8.0356998,8.0356998 0 1 1 16.0714,0 z"
       transform="matrix(-0.86287,0,0,0.86287,1235.9851,18.10935)" />
    <path
       sodipodi:nodetypes="ccccccccccccccccccccccccc"
       inkscape:connector-curvature="0"
       id="rect2989-4-1-2-0"
       d="m 1286.7317,797.70446 0,-641.83051 -35.2571,0 0,27.98018 -53.25,0 0,-27.98018 -42.3066,0 0,70.60347 -28.6001,0 0,124.24999 28.6001,0 0,35.75 -28.6001,0 0,176.73951 28.6001,0.26049 0,35.09484 -28.6001,0 0,124.09724 28.6001,0 0,74.89491 42.3066,0 0,-28.23887 53.25,1e-5 0,28.23886 z"
       style="fill:none;stroke:#000000;stroke-width:0.38933307;stroke-miterlimit:4;stroke-opacity:1" />
    <path
       sodipodi:type="arc"
       style="fill:none;stroke:#ff0000;stroke-opacity:1"
       id="path3021"
       sodipodi:cx="255.1181"
       sodipodi:cy="976.18109"
       sodipodi:rx="67.322838"
       sodipodi:ry="47.834644"
       d="m 322.44094,976.18109 a 67.322838,47.834644 0 1 1 -134.64567,0 67.322838,47.834644 0 1 1 134.64567,0 z"
       transform="matrix(0,-0.57894734,0.81481484,0,411.61804,624.48915)" />
    <path
       sodipodi:type="arc"
       style="fill:none;stroke:#ff0000;stroke-opacity:1"
       id="path3021-1-9-5-8-9"
       sodipodi:cx="255.1181"
       sodipodi:cy="976.18109"
       sodipodi:rx="67.322838"
       sodipodi:ry="47.834644"
       d="m 322.44094,976.18109 a 67.322838,47.834644 0 1 1 -134.64567,0 67.322838,47.834644 0 1 1 134.64567,0 z"
       transform="matrix(0,-0.41737518,-0.58741697,0,1780.4501,705.05221)" />
    <path
       sodipodi:type="arc"
       style="fill:none;stroke:#ff0000;stroke-opacity:1"
       id="path3021-1-7-4-2-6-0"
       sodipodi:cx="255.1181"
       sodipodi:cy="976.18109"
       sodipodi:rx="67.322838"
       sodipodi:ry="47.834644"
       d="m 322.44094,976.18109 a 67.322838,47.834644 0 1 1 -134.64567,0 67.322838,47.834644 0 1 1 134.64567,0 z"
       transform="matrix(0,-0.41737518,-0.58741697,0,1780.4501,457.56484)" />
    <path
       sodipodi:type="arc"
       style="fill:none;stroke:#ff0000;stroke-width:0.35433;stroke-miterlimit:4;stroke-opacity:1;stroke-dasharray:none"
       id="path3042-4-4-1-2-8-7-0-0"
       sodipodi:cx="1159.6"
       sodipodi:cy="594.85999"
       sodipodi:rx="8.0356998"
       sodipodi:ry="8.0356998"
       d="m 1167.6357,594.85999 a 8.0356998,8.0356998 0 1 1 -16.0714,0 8.0356998,8.0356998 0 1 1 16.0714,0 z"
       transform="matrix(0.86287,0,0,0.86287,150.82074,18.10935)" />
    <path
       sodipodi:type="arc"
       style="fill:none;stroke:#ff0000;stroke-width:0.35433;stroke-miterlimit:4;stroke-opacity:1;stroke-dasharray:none"
       id="path3042-7-8-8-6-4-8-6-2-6"
       sodipodi:cx="1159.6"
       sodipodi:cy="594.85999"
       sodipodi:rx="8.0356998"
       sodipodi:ry="8.0356998"
       d="m 1167.6357,594.85999 a 8.0356998,8.0356998 0 1 1 -16.0714,0 8.0356998,8.0356998 0 1 1 16.0714,0 z"
       transform="matrix(0.86287,0,0,0.86287,150.82074,-91.7386)" />
    <path
       sodipodi:type="arc"
       style="fill:none;stroke:#ff0000;stroke-width:0.35433;stroke-miterlimit:4;stroke-opacity:1;stroke-dasharray:none"
       id="path3042-7-4-8-8-8-55-2-1-4-1"
       sodipodi:cx="1159.6"
       sodipodi:cy="594.85999"
       sodipodi:rx="8.0356998"
       sodipodi:ry="8.0356998"
       d="m 1167.6357,594.85999 a 8.0356998,8.0356998 0 1 1 -16.0714,0 8.0356998,8.0356998 0 1 1 16.0714,0 z"
       transform="matrix(0.86287,0,0,0.86287,260.66074,-91.7386)" />
    <path
       sodipodi:type="arc"
       style="fill:none;stroke:#ff0000;stroke-width:0.35433;stroke-miterlimit:4;stroke-opacity:1;stroke-dasharray:none"
       id="path3042-7-0-2-2-5-1-4-4-8-3"
       sodipodi:cx="1159.6"
       sodipodi:cy="594.85999"
       sodipodi:rx="8.0356998"
       sodipodi:ry="8.0356998"
       d="m 1167.6357,594.85999 a 8.0356998,8.0356998 0 1 1 -16.0714,0 8.0356998,8.0356998 0 1 1 16.0714,0 z"
       transform="matrix(0.86287,0,0,0.86287,260.66074,18.10935)" />
    <path
       sodipodi:type="arc"
       style="fill:none;stroke:#ff0000;stroke-opacity:1"
       id="path3021-1-9-5-8-7"
       sodipodi:cx="255.1181"
       sodipodi:cy="976.18109"
       sodipodi:rx="67.322838"
       sodipodi:ry="47.834644"
       d="m 322.44094,976.18109 a 67.322838,47.834644 0 1 1 -134.64567,0 67.322838,47.834644 0 1 1 134.64567,0 z"
       transform="matrix(0,-0.41737518,0.58741697,0,108.64652,978.55341)" />
    <path
       sodipodi:type="arc"
       style="fill:none;stroke:#ff0000;stroke-opacity:1"
       id="path3021-1-9-5-8-0"
       sodipodi:cx="255.1181"
       sodipodi:cy="976.18109"
       sodipodi:rx="67.322838"
       sodipodi:ry="47.834644"
       d="m 322.44094,976.18109 a 67.322838,47.834644 0 1 1 -134.64567,0 67.322838,47.834644 0 1 1 134.64567,0 z"
       transform="matrix(0,-0.41737518,0.58741697,0,239.85542,978.55341)" />
    <path
       sodipodi:type="arc"
       style="fill:none;stroke:#ff0000;stroke-opacity:1"
       id="path3021-1-9-5-8-94"
       sodipodi:cx="255.1181"
       sodipodi:cy="976.18109"
       sodipodi:rx="67.322838"
       sodipodi:ry="47.834644"
       d="m 322.44094,976.18109 a 67.322838,47.834644 0 1 1 -134.64567,0 67.322838,47.834644 0 1 1 134.64567,0 z"
       transform="matrix(0,-0.41737518,0.58741697,0,449.15902,978.55341)" />
    <path
       sodipodi:type="arc"
       style="fill:none;stroke:#ff0000;stroke-opacity:1"
       id="path3021-17-4-4-40-2-82-0-2-1"
       sodipodi:cx="255.12"
       sodipodi:cy="976.17999"
       sodipodi:rx="67.322998"
       sodipodi:ry="47.834999"
       d="m 322.44299,976.17999 a 67.322998,47.834999 0 1 1 -134.64599,0 67.322998,47.834999 0 1 1 134.64599,0 z"
       transform="matrix(0.50084905,0,0,0.70489517,790.58208,184.02732)" />
    <path
       sodipodi:type="arc"
       style="fill:none;stroke:#ff0000;stroke-opacity:1"
       id="path3021-17-4-4-40-2-82-0-2"
       sodipodi:cx="255.12"
       sodipodi:cy="976.17999"
       sodipodi:rx="67.322998"
       sodipodi:ry="47.834999"
       d="m 322.44299,976.17999 a 67.322998,47.834999 0 1 1 -134.64599,0 67.322998,47.834999 0 1 1 134.64599,0 z"
       transform="matrix(0.50084905,0,0,0.70489517,162.54457,-211.31536)" />
    <path
       style="fill:none;stroke:#000000;stroke-width:0.20370242;stroke-miterlimit:4;stroke-opacity:1"
       d="m 1242.5377,-354.05012 0.125,28.1761 -28.1684,-0.1233 0,103.2784 28.0434,-0.2801 0,27.7346 71.4995,0 0,-158.7857 z"
       id="rect3039-1-2"
       inkscape:connector-curvature="0"
       sodipodi:nodetypes="ccccccccc" />
    <path
       sodipodi:type="arc"
       style="fill:none;stroke:#ff0000;stroke-opacity:1"
       id="path3021-1-7-9-5-9-4"
       sodipodi:cx="255.12"
       sodipodi:cy="976.17999"
       sodipodi:rx="67.322998"
       sodipodi:ry="47.834999"
       d="m 322.44299,976.17999 a 67.322998,47.834999 0 1 1 -134.64599,0 67.322998,47.834999 0 1 1 134.64599,0 z"
       transform="matrix(0,0.31303066,0.44055948,0,855.7535,-303.07902)" />
    <path
       sodipodi:type="arc"
       style="fill:none;stroke:#ff0000;stroke-opacity:1"
       id="path3021-1-7-9-5-9-74-55"
       sodipodi:cx="255.12"
       sodipodi:cy="976.17999"
       sodipodi:rx="67.322998"
       sodipodi:ry="47.834999"
       d="m 322.44299,976.17999 a 67.322998,47.834999 0 1 1 -134.64599,0 67.322998,47.834999 0 1 1 134.64599,0 z"
       transform="matrix(0,0.31303066,0.44055948,0,855.7535,-405.33142)" />
    <path
       sodipodi:type="arc"
       style="fill:none;stroke:#ff0000;stroke-opacity:1"
       id="path3021-17-4-4-40-2-82-0-2-7"
       sodipodi:cx="255.12"
       sodipodi:cy="976.17999"
       sodipodi:rx="67.322998"
       sodipodi:ry="47.834999"
       d="m 322.44299,976.17999 a 67.322998,47.834999 0 1 1 -134.64599,0 67.322998,47.834999 0 1 1 134.64599,0 z"
       transform="matrix(-0.28694477,0,0,0.40384619,1359.0242,-668.70673)" />
    <path
       style="fill:none;stroke:#000000;stroke-width:0.20370242;stroke-miterlimit:4;stroke-opacity:1"
       d="m 1385.7404,-354.05012 -0.125,28.1761 28.1684,-0.1233 0,103.2784 -28.0434,-0.2801 0,27.7346 -71.4995,0 0,-158.7857 z"
       id="rect3039-1-2-0"
       inkscape:connector-curvature="0"
       sodipodi:nodetypes="ccccccccc" />
    <path
       sodipodi:type="arc"
       style="fill:none;stroke:#ff0000;stroke-opacity:1"
       id="path3021-1-7-9-5-9-4-9"
       sodipodi:cx="255.12"
       sodipodi:cy="976.17999"
       sodipodi:rx="67.322998"
       sodipodi:ry="47.834999"
       d="m 322.44299,976.17999 a 67.322998,47.834999 0 1 1 -134.64599,0 67.322998,47.834999 0 1 1 134.64599,0 z"
       transform="matrix(0,0.31303066,-0.44055948,0,1772.5246,-303.07902)" />
    <path
       sodipodi:type="arc"
       style="fill:none;stroke:#ff0000;stroke-opacity:1"
       id="path3021-1-7-9-5-9-74-55-4"
       sodipodi:cx="255.12"
       sodipodi:cy="976.17999"
       sodipodi:rx="67.322998"
       sodipodi:ry="47.834999"
       d="m 322.44299,976.17999 a 67.322998,47.834999 0 1 1 -134.64599,0 67.322998,47.834999 0 1 1 134.64599,0 z"
       transform="matrix(0,0.31303066,-0.44055948,0,1772.5246,-405.33142)" />
    <path
       sodipodi:type="arc"
       style="fill:none;stroke:#ff0000;stroke-opacity:1"
       id="path3021-17-4-4-40-2-82-0-2-7-8"
       sodipodi:cx="255.12"
       sodipodi:cy="976.17999"
       sodipodi:rx="67.322998"
       sodipodi:ry="47.834999"
       d="m 322.44299,976.17999 a 67.322998,47.834999 0 1 1 -134.64599,0 67.322998,47.834999 0 1 1 134.64599,0 z"
       transform="matrix(0.28694477,0,0,0.40384619,1269.2539,-668.70673)" />
    <rect
       style="fill:none;stroke:#000000;stroke-width:0.35433072;stroke-miterlimit:4;stroke-opacity:1;stroke-dasharray:none"
       id="rect3204"
       width="148.69348"
       height="148.69397"
       x="1015.1001"
       y="-304.63275" />
    <path
       sodipodi:type="arc"
       style="fill:none;stroke:#ff0000;stroke-opacity:1"
       id="path3021-17-4-4-45"
       sodipodi:cx="255.12"
       sodipodi:cy="976.17999"
       sodipodi:rx="67.322998"
       sodipodi:ry="47.834999"
       d="m 322.44299,976.17999 a 67.322998,47.834999 0 1 1 -134.64599,0 67.322998,47.834999 0 1 1 134.64599,0 z"
       transform="matrix(0,0.57388953,-0.80769238,0,1877.723,-376.94954)" />
    <path
       sodipodi:type="arc"
       style="fill:none;stroke:#ff0000;stroke-width:0.35433;stroke-miterlimit:4;stroke-opacity:1;stroke-dasharray:none"
       id="path3042-4-5"
       sodipodi:cx="1159.6"
       sodipodi:cy="594.85999"
       sodipodi:rx="8.0356998"
       sodipodi:ry="8.0356998"
       d="m 1167.6357,594.85999 a 8.0356998,8.0356998 0 1 1 -16.0714,0 8.0356998,8.0356998 0 1 1 16.0714,0 z"
       transform="matrix(0,0.86287,-0.86287,0,1547.6912,-1286.0477)" />
    <path
       sodipodi:type="arc"
       style="fill:none;stroke:#ff0000;stroke-width:0.35433;stroke-miterlimit:4;stroke-opacity:1;stroke-dasharray:none"
       id="path3042-7-8-1"
       sodipodi:cx="1159.6"
       sodipodi:cy="594.85999"
       sodipodi:rx="8.0356998"
       sodipodi:ry="8.0356998"
       d="m 1167.6357,594.85999 a 8.0356998,8.0356998 0 1 1 -16.0714,0 8.0356998,8.0356998 0 1 1 16.0714,0 z"
       transform="matrix(0,0.86287,-0.86287,0,1657.5392,-1286.0477)" />
    <path
       sodipodi:type="arc"
       style="fill:none;stroke:#ff0000;stroke-width:0.35433;stroke-miterlimit:4;stroke-opacity:1;stroke-dasharray:none"
       id="path3042-7-4-8-7"
       sodipodi:cx="1159.6"
       sodipodi:cy="594.85999"
       sodipodi:rx="8.0356998"
       sodipodi:ry="8.0356998"
       d="m 1167.6357,594.85999 a 8.0356998,8.0356998 0 1 1 -16.0714,0 8.0356998,8.0356998 0 1 1 16.0714,0 z"
       transform="matrix(0,0.86287,-0.86287,0,1657.5392,-1176.2077)" />
    <path
       sodipodi:type="arc"
       style="fill:none;stroke:#ff0000;stroke-width:0.35433;stroke-miterlimit:4;stroke-opacity:1;stroke-dasharray:none"
       id="path3042-7-0-2-1"
       sodipodi:cx="1159.6"
       sodipodi:cy="594.85999"
       sodipodi:rx="8.0356998"
       sodipodi:ry="8.0356998"
       d="m 1167.6357,594.85999 a 8.0356998,8.0356998 0 1 1 -16.0714,0 8.0356998,8.0356998 0 1 1 16.0714,0 z"
       transform="matrix(0,0.86287,-0.86287,0,1547.6912,-1176.2077)" />
    <g
       id="g4575">
      <rect
         y="-453.68106"
         x="1015.1001"
         height="148.69397"
         width="148.69348"
         id="rect3204-5"
         style="fill:none;stroke:#000000;stroke-width:0.35433072;stroke-miterlimit:4;stroke-opacity:1;stroke-dasharray:none" />
      <path
         transform="matrix(0,0.57388953,-0.80769238,0,1877.723,-525.99784)"
         d="m 322.44299,976.17999 a 67.322998,47.834999 0 1 1 -134.64599,0 67.322998,47.834999 0 1 1 134.64599,0 z"
         sodipodi:ry="47.834999"
         sodipodi:rx="67.322998"
         sodipodi:cy="976.17999"
         sodipodi:cx="255.12"
         id="path3021-17-4-4-45-2"
         style="fill:none;stroke:#ff0000;stroke-opacity:1"
         sodipodi:type="arc" />
      <path
         transform="matrix(0,0.86287,-0.86287,0,1547.6912,-1435.096)"
         d="m 1167.6357,594.85999 a 8.0356998,8.0356998 0 1 1 -16.0714,0 8.0356998,8.0356998 0 1 1 16.0714,0 z"
         sodipodi:ry="8.0356998"
         sodipodi:rx="8.0356998"
         sodipodi:cy="594.85999"
         sodipodi:cx="1159.6"
         id="path3042-4-5-7"
         style="fill:none;stroke:#ff0000;stroke-width:0.35433;stroke-miterlimit:4;stroke-opacity:1;stroke-dasharray:none"
         sodipodi:type="arc" />
      <path
         transform="matrix(0,0.86287,-0.86287,0,1657.5392,-1435.096)"
         d="m 1167.6357,594.85999 a 8.0356998,8.0356998 0 1 1 -16.0714,0 8.0356998,8.0356998 0 1 1 16.0714,0 z"
         sodipodi:ry="8.0356998"
         sodipodi:rx="8.0356998"
         sodipodi:cy="594.85999"
         sodipodi:cx="1159.6"
         id="path3042-7-8-1-6"
         style="fill:none;stroke:#ff0000;stroke-width:0.35433;stroke-miterlimit:4;stroke-opacity:1;stroke-dasharray:none"
         sodipodi:type="arc" />
      <path
         transform="matrix(0,0.86287,-0.86287,0,1657.5392,-1325.256)"
         d="m 1167.6357,594.85999 a 8.0356998,8.0356998 0 1 1 -16.0714,0 8.0356998,8.0356998 0 1 1 16.0714,0 z"
         sodipodi:ry="8.0356998"
         sodipodi:rx="8.0356998"
         sodipodi:cy="594.85999"
         sodipodi:cx="1159.6"
         id="path3042-7-4-8-7-1"
         style="fill:none;stroke:#ff0000;stroke-width:0.35433;stroke-miterlimit:4;stroke-opacity:1;stroke-dasharray:none"
         sodipodi:type="arc" />
      <path
         transform="matrix(0,0.86287,-0.86287,0,1547.6912,-1325.256)"
         d="m 1167.6357,594.85999 a 8.0356998,8.0356998 0 1 1 -16.0714,0 8.0356998,8.0356998 0 1 1 16.0714,0 z"
         sodipodi:ry="8.0356998"
         sodipodi:rx="8.0356998"
         sodipodi:cy="594.85999"
         sodipodi:cx="1159.6"
         id="path3042-7-0-2-1-4"
         style="fill:none;stroke:#ff0000;stroke-width:0.35433;stroke-miterlimit:4;stroke-opacity:1;stroke-dasharray:none"
         sodipodi:type="arc" />
    </g>
  </g>
</svg>
