  0
SECTION
  2
HEADER
  9
$ACADVER
  1
AC1009
  9
$ANGDIR
  70
0
  9
$CECOLOR
  62
256
  9
$CELTYPE
  6
BYLAYER
  9
$EXTMIN
  10
0.0
  20
0.0
  9
$EXTMAX
  10
44.74
  20
27.7
  9
$FILLMODE
  70
1
  9
$MIRRTEXT
  70
0
  0
ENDSEC
  0
SECTION
  2
TABLES
  0
TABLE
  2
LAYER
  70
17
  0
LAYER
  2
Top
  70
64
  62
5
  6
CONTINUOUS
  0
ENDTAB
  0
ENDSEC
  0
SECTION
  2
ENTITIES
  0
SOLID
  8
Top
  10
36.24
  20
13.75
  11
37.24
  21
13.75
  12
36.24
  22
12.65
  13
37.24
  23
12.65
  0
SOLID
  8
Top
  10
36.24
  20
15.45
  11
37.24
  21
15.45
  12
36.24
  22
14.35
  13
37.24
  23
14.35
  0
SOLID
  8
Top
  10
40.17
  20
18.17
  11
41.87
  21
18.17
  12
40.17
  22
16.47
  13
41.87
  23
16.47
  0
POLYLINE
  8
Top
  6
CONTINUOUS
  66
1
  70
0
  40
0.85
  41
0.85
  0
VERTEX
  8
Top
  10
41.445
  20
19.86
  42
1
  0
VERTEX
  8
Top
  10
40.595
  20
19.86
  42
1
  0
VERTEX
  8
Top
  10
41.445
  20
19.86
  42
1
  0
SEQEND
  0
POLYLINE
  8
Top
  6
CONTINUOUS
  66
1
  70
0
  40
0.85
  41
0.85
  0
VERTEX
  8
Top
  10
41.445
  20
22.4
  42
1
  0
VERTEX
  8
Top
  10
40.595
  20
22.4
  42
1
  0
VERTEX
  8
Top
  10
41.445
  20
22.4
  42
1
  0
SEQEND
  0
POLYLINE
  8
Top
  6
CONTINUOUS
  66
1
  70
0
  40
0.85
  41
0.85
  0
VERTEX
  8
Top
  10
41.445
  20
24.94
  42
1
  0
VERTEX
  8
Top
  10
40.595
  20
24.94
  42
1
  0
VERTEX
  8
Top
  10
41.445
  20
24.94
  42
1
  0
SEQEND
  0
SOLID
  8
Top
  10
40.29
  20
12.05
  11
41.99
  21
12.05
  12
40.29
  22
10.35
  13
41.99
  23
10.35
  0
POLYLINE
  8
Top
  6
CONTINUOUS
  66
1
  70
0
  40
0.85
  41
0.85
  0
VERTEX
  8
Top
  10
41.565
  20
8.66
  42
1
  0
VERTEX
  8
Top
  10
40.715
  20
8.66
  42
1
  0
VERTEX
  8
Top
  10
41.565
  20
8.66
  42
1
  0
SEQEND
  0
POLYLINE
  8
Top
  6
CONTINUOUS
  66
1
  70
0
  40
0.85
  41
0.85
  0
VERTEX
  8
Top
  10
41.565
  20
6.12
  42
1
  0
VERTEX
  8
Top
  10
40.715
  20
6.12
  42
1
  0
VERTEX
  8
Top
  10
41.565
  20
6.12
  42
1
  0
SEQEND
  0
POLYLINE
  8
Top
  6
CONTINUOUS
  66
1
  70
0
  40
0.85
  41
0.85
  0
VERTEX
  8
Top
  10
41.565
  20
3.58
  42
1
  0
VERTEX
  8
Top
  10
40.715
  20
3.58
  42
1
  0
VERTEX
  8
Top
  10
41.565
  20
3.58
  42
1
  0
SEQEND
  0
SOLID
  8
Top
  10
34.59
  20
3.55
  11
36.29
  21
3.55
  12
34.59
  22
1.85
  13
36.29
  23
1.85
  0
POLYLINE
  8
Top
  6
CONTINUOUS
  66
1
  70
0
  40
0.85
  41
0.85
  0
VERTEX
  8
Top
  10
33.325
  20
2.7
  42
1
  0
VERTEX
  8
Top
  10
32.475
  20
2.7
  42
1
  0
VERTEX
  8
Top
  10
33.325
  20
2.7
  42
1
  0
SEQEND
  0
POLYLINE
  8
Top
  6
CONTINUOUS
  66
1
  70
0
  40
0.85
  41
0.85
  0
VERTEX
  8
Top
  10
30.785
  20
2.7
  42
1
  0
VERTEX
  8
Top
  10
29.935
  20
2.7
  42
1
  0
VERTEX
  8
Top
  10
30.785
  20
2.7
  42
1
  0
SEQEND
  0
POLYLINE
  8
Top
  6
CONTINUOUS
  66
1
  70
0
  40
0.85
  41
0.85
  0
VERTEX
  8
Top
  10
28.245
  20
2.7
  42
1
  0
VERTEX
  8
Top
  10
27.395
  20
2.7
  42
1
  0
VERTEX
  8
Top
  10
28.245
  20
2.7
  42
1
  0
SEQEND
  0
SOLID
  8
Top
  10
34.59
  20
8.45
  11
36.09
  21
8.45
  12
34.59
  22
6.95
  13
36.09
  23
6.95
  0
SOLID
  8
Top
  10
5.29
  20
5.15
  11
6.99
  21
5.15
  12
5.29
  22
3.45
  13
6.99
  23
3.45
  0
POLYLINE
  8
Top
  6
CONTINUOUS
  66
1
  70
0
  40
0.85
  41
0.85
  0
VERTEX
  8
Top
  10
9.105
  20
4.3
  42
1
  0
VERTEX
  8
Top
  10
8.255
  20
4.3
  42
1
  0
VERTEX
  8
Top
  10
9.105
  20
4.3
  42
1
  0
SEQEND
  0
SOLID
  8
Top
  10
20.09
  20
17.85
  11
21.39
  21
17.85
  12
20.09
  22
16.35
  13
21.39
  23
16.35
  0
SOLID
  8
Top
  10
21.99
  20
17.85
  11
23.29
  21
17.85
  12
21.99
  22
16.35
  13
23.29
  23
16.35
  0
SOLID
  8
Top
  10
20.7
  20
10.14
  11
22.2
  21
10.14
  12
20.7
  22
8.84
  13
22.2
  23
8.84
  0
SOLID
  8
Top
  10
20.7
  20
12.04
  11
22.2
  21
12.04
  12
20.7
  22
10.74
  13
22.2
  23
10.74
  0
POLYLINE
  8
Top
  6
CONTINUOUS
  66
1
  70
0
  40
0.508
  41
0.508
  0
VERTEX
  8
Top
  10
38.894
  20
15.4
  42
1
  0
VERTEX
  8
Top
  10
38.386
  20
15.4
  42
1
  0
VERTEX
  8
Top
  10
38.894
  20
15.4
  42
1
  0
SEQEND
  0
POLYLINE
  8
Top
  6
CONTINUOUS
  66
1
  70
0
  40
0.508
  41
0.508
  0
VERTEX
  8
Top
  10
36.994
  20
16.9
  42
1
  0
VERTEX
  8
Top
  10
36.486
  20
16.9
  42
1
  0
VERTEX
  8
Top
  10
36.994
  20
16.9
  42
1
  0
SEQEND
  0
SOLID
  8
Top
  10
1.69
  20
18.35
  11
3.39
  21
18.35
  12
1.69
  22
16.65
  13
3.39
  23
16.65
  0
POLYLINE
  8
Top
  6
CONTINUOUS
  66
1
  70
0
  40
0.85
  41
0.85
  0
VERTEX
  8
Top
  10
2.965
  20
14.96
  42
1
  0
VERTEX
  8
Top
  10
2.115
  20
14.96
  42
1
  0
VERTEX
  8
Top
  10
2.965
  20
14.96
  42
1
  0
SEQEND
  0
POLYLINE
  8
Top
  6
CONTINUOUS
  66
1
  70
0
  40
0.85
  41
0.85
  0
VERTEX
  8
Top
  10
2.965
  20
12.42
  42
1
  0
VERTEX
  8
Top
  10
2.115
  20
12.42
  42
1
  0
VERTEX
  8
Top
  10
2.965
  20
12.42
  42
1
  0
SEQEND
  0
POLYLINE
  8
Top
  6
CONTINUOUS
  66
1
  70
0
  40
0.85
  41
0.85
  0
VERTEX
  8
Top
  10
2.965
  20
9.88
  42
1
  0
VERTEX
  8
Top
  10
2.115
  20
9.88
  42
1
  0
VERTEX
  8
Top
  10
2.965
  20
9.88
  42
1
  0
SEQEND
  0
SOLID
  8
Top
  10
27.74
  20
10.9
  11
28.14
  21
10.9
  12
27.74
  22
9.1
  13
28.14
  23
9.1
  0
SOLID
  8
Top
  10
28.39
  20
10.9
  11
28.79
  21
10.9
  12
28.39
  22
9.1
  13
28.79
  23
9.1
  0
SOLID
  8
Top
  10
29.04
  20
10.9
  11
29.44
  21
10.9
  12
29.04
  22
9.1
  13
29.44
  23
9.1
  0
SOLID
  8
Top
  10
29.69
  20
10.9
  11
30.09
  21
10.9
  12
29.69
  22
9.1
  13
30.09
  23
9.1
  0
SOLID
  8
Top
  10
30.34
  20
10.9
  11
30.74
  21
10.9
  12
30.34
  22
9.1
  13
30.74
  23
9.1
  0
SOLID
  8
Top
  10
30.99
  20
10.9
  11
31.39
  21
10.9
  12
30.99
  22
9.1
  13
31.39
  23
9.1
  0
SOLID
  8
Top
  10
31.64
  20
10.9
  11
32.04
  21
10.9
  12
31.64
  22
9.1
  13
32.04
  23
9.1
  0
SOLID
  8
Top
  10
32.29
  20
10.9
  11
32.69
  21
10.9
  12
32.29
  22
9.1
  13
32.69
  23
9.1
  0
SOLID
  8
Top
  10
32.94
  20
10.9
  11
33.34
  21
10.9
  12
32.94
  22
9.1
  13
33.34
  23
9.1
  0
SOLID
  8
Top
  10
33.59
  20
10.9
  11
33.99
  21
10.9
  12
33.59
  22
9.1
  13
33.99
  23
9.1
  0
SOLID
  8
Top
  10
33.59
  20
16.7002
  11
33.99
  21
16.7002
  12
33.59
  22
14.9002
  13
33.99
  23
14.9002
  0
SOLID
  8
Top
  10
32.94
  20
16.7
  11
33.34
  21
16.7
  12
32.94
  22
14.9
  13
33.34
  23
14.9
  0
SOLID
  8
Top
  10
32.29
  20
16.7
  11
32.69
  21
16.7
  12
32.29
  22
14.9
  13
32.69
  23
14.9
  0
SOLID
  8
Top
  10
31.64
  20
16.7
  11
32.04
  21
16.7
  12
31.64
  22
14.9
  13
32.04
  23
14.9
  0
SOLID
  8
Top
  10
30.99
  20
16.7
  11
31.39
  21
16.7
  12
30.99
  22
14.9
  13
31.39
  23
14.9
  0
SOLID
  8
Top
  10
30.34
  20
16.7
  11
30.74
  21
16.7
  12
30.34
  22
14.9
  13
30.74
  23
14.9
  0
SOLID
  8
Top
  10
29.69
  20
16.7
  11
30.09
  21
16.7
  12
29.69
  22
14.9
  13
30.09
  23
14.9
  0
SOLID
  8
Top
  10
29.04
  20
16.7
  11
29.44
  21
16.7
  12
29.04
  22
14.9
  13
29.44
  23
14.9
  0
SOLID
  8
Top
  10
28.39
  20
16.7
  11
28.79
  21
16.7
  12
28.39
  22
14.9
  13
28.79
  23
14.9
  0
SOLID
  8
Top
  10
27.74
  20
16.7
  11
28.14
  21
16.7
  12
27.74
  22
14.9
  13
28.14
  23
14.9
  0
SOLID
  8
Top
  10
10.19
  20
22.87
  11
11.69
  21
22.87
  12
10.19
  22
21.37
  13
11.69
  23
21.37
  0
POLYLINE
  8
Top
  6
CONTINUOUS
  66
1
  70
0
  40
0.75
  41
0.75
  0
VERTEX
  8
Top
  10
11.315
  20
19.58
  42
1
  0
VERTEX
  8
Top
  10
10.565
  20
19.58
  42
1
  0
VERTEX
  8
Top
  10
11.315
  20
19.58
  42
1
  0
SEQEND
  0
POLYLINE
  8
Top
  6
CONTINUOUS
  66
1
  70
0
  40
0.75
  41
0.75
  0
VERTEX
  8
Top
  10
11.315
  20
17.04
  42
1
  0
VERTEX
  8
Top
  10
10.565
  20
17.04
  42
1
  0
VERTEX
  8
Top
  10
11.315
  20
17.04
  42
1
  0
SEQEND
  0
POLYLINE
  8
Top
  6
CONTINUOUS
  66
1
  70
0
  40
0.75
  41
0.75
  0
VERTEX
  8
Top
  10
11.315
  20
14.5
  42
1
  0
VERTEX
  8
Top
  10
10.565
  20
14.5
  42
1
  0
VERTEX
  8
Top
  10
11.315
  20
14.5
  42
1
  0
SEQEND
  0
POLYLINE
  8
Top
  6
CONTINUOUS
  66
1
  70
0
  40
0.75
  41
0.75
  0
VERTEX
  8
Top
  10
11.315
  20
11.96
  42
1
  0
VERTEX
  8
Top
  10
10.565
  20
11.96
  42
1
  0
VERTEX
  8
Top
  10
11.315
  20
11.96
  42
1
  0
SEQEND
  0
POLYLINE
  8
Top
  6
CONTINUOUS
  66
1
  70
0
  40
0.75
  41
0.75
  0
VERTEX
  8
Top
  10
11.315
  20
9.42
  42
1
  0
VERTEX
  8
Top
  10
10.565
  20
9.42
  42
1
  0
VERTEX
  8
Top
  10
11.315
  20
9.42
  42
1
  0
SEQEND
  0
POLYLINE
  8
Top
  6
CONTINUOUS
  66
1
  70
0
  40
0.75
  41
0.75
  0
VERTEX
  8
Top
  10
11.315
  20
6.88
  42
1
  0
VERTEX
  8
Top
  10
10.565
  20
6.88
  42
1
  0
VERTEX
  8
Top
  10
11.315
  20
6.88
  42
1
  0
SEQEND
  0
POLYLINE
  8
Top
  6
CONTINUOUS
  66
1
  70
0
  40
0.75
  41
0.75
  0
VERTEX
  8
Top
  10
11.315
  20
4.34
  42
1
  0
VERTEX
  8
Top
  10
10.565
  20
4.34
  42
1
  0
VERTEX
  8
Top
  10
11.315
  20
4.34
  42
1
  0
SEQEND
  0
POLYLINE
  8
Top
  6
CONTINUOUS
  66
1
  70
0
  40
0.75
  41
0.75
  0
VERTEX
  8
Top
  10
18.935
  20
4.34
  42
1
  0
VERTEX
  8
Top
  10
18.185
  20
4.34
  42
1
  0
VERTEX
  8
Top
  10
18.935
  20
4.34
  42
1
  0
SEQEND
  0
POLYLINE
  8
Top
  6
CONTINUOUS
  66
1
  70
0
  40
0.75
  41
0.75
  0
VERTEX
  8
Top
  10
18.935
  20
6.88
  42
1
  0
VERTEX
  8
Top
  10
18.185
  20
6.88
  42
1
  0
VERTEX
  8
Top
  10
18.935
  20
6.88
  42
1
  0
SEQEND
  0
POLYLINE
  8
Top
  6
CONTINUOUS
  66
1
  70
0
  40
0.75
  41
0.75
  0
VERTEX
  8
Top
  10
18.935
  20
9.42
  42
1
  0
VERTEX
  8
Top
  10
18.185
  20
9.42
  42
1
  0
VERTEX
  8
Top
  10
18.935
  20
9.42
  42
1
  0
SEQEND
  0
POLYLINE
  8
Top
  6
CONTINUOUS
  66
1
  70
0
  40
0.75
  41
0.75
  0
VERTEX
  8
Top
  10
18.935
  20
11.96
  42
1
  0
VERTEX
  8
Top
  10
18.185
  20
11.96
  42
1
  0
VERTEX
  8
Top
  10
18.935
  20
11.96
  42
1
  0
SEQEND
  0
POLYLINE
  8
Top
  6
CONTINUOUS
  66
1
  70
0
  40
0.75
  41
0.75
  0
VERTEX
  8
Top
  10
18.935
  20
14.5
  42
1
  0
VERTEX
  8
Top
  10
18.185
  20
14.5
  42
1
  0
VERTEX
  8
Top
  10
18.935
  20
14.5
  42
1
  0
SEQEND
  0
POLYLINE
  8
Top
  6
CONTINUOUS
  66
1
  70
0
  40
0.75
  41
0.75
  0
VERTEX
  8
Top
  10
18.935
  20
17.04
  42
1
  0
VERTEX
  8
Top
  10
18.185
  20
17.04
  42
1
  0
VERTEX
  8
Top
  10
18.935
  20
17.04
  42
1
  0
SEQEND
  0
POLYLINE
  8
Top
  6
CONTINUOUS
  66
1
  70
0
  40
0.75
  41
0.75
  0
VERTEX
  8
Top
  10
18.935
  20
19.58
  42
1
  0
VERTEX
  8
Top
  10
18.185
  20
19.58
  42
1
  0
VERTEX
  8
Top
  10
18.935
  20
19.58
  42
1
  0
SEQEND
  0
POLYLINE
  8
Top
  6
CONTINUOUS
  66
1
  70
0
  40
0.75
  41
0.75
  0
VERTEX
  8
Top
  10
18.935
  20
22.12
  42
1
  0
VERTEX
  8
Top
  10
18.185
  20
22.12
  42
1
  0
VERTEX
  8
Top
  10
18.935
  20
22.12
  42
1
  0
SEQEND
  0
SOLID
  8
Top
  10
35.89
  20
8.45
  11
37.19
  21
8.45
  12
35.89
  22
6.95
  13
37.19
  23
6.95
  0
SOLID
  8
Top
  10
37.79
  20
8.45
  11
39.09
  21
8.45
  12
37.79
  22
6.95
  13
39.09
  23
6.95
  0
SOLID
  8
Top
  10
37.84
  20
18.3
  11
39.64
  21
18.3
  12
37.84
  22
16.7
  13
39.64
  23
16.7
  0
SOLID
  8
Top
  10
37.84
  20
21.1
  11
39.64
  21
21.1
  12
37.84
  22
19.5
  13
39.64
  23
19.5
  0
SOLID
  8
Top
  10
42.29
  20
18.45
  11
43.79
  21
18.45
  12
42.29
  22
17.15
  13
43.79
  23
17.15
  0
SOLID
  8
Top
  10
42.29
  20
20.35
  11
43.79
  21
20.35
  12
42.29
  22
19.05
  13
43.79
  23
19.05
  0
SOLID
  8
Top
  10
8.065
  20
7.675
  11
9.415
  21
7.675
  12
8.065
  22
6.325
  13
9.415
  23
6.325
  0
POLYLINE
  8
Top
  6
CONTINUOUS
  66
1
  70
0
  40
0.675
  41
0.675
  0
VERTEX
  8
Top
  10
6.5775
  20
7.0
  42
1
  0
VERTEX
  8
Top
  10
5.9025
  20
7.0
  42
1
  0
VERTEX
  8
Top
  10
6.5775
  20
7.0
  42
1
  0
SEQEND
  0
SOLID
  8
Top
  10
19.69
  20
22.75
  11
21.39
  21
22.75
  12
19.69
  22
21.05
  13
21.39
  23
21.05
  0
POLYLINE
  8
Top
  6
CONTINUOUS
  66
1
  70
0
  40
0.85
  41
0.85
  0
VERTEX
  8
Top
  10
23.505
  20
21.9
  42
1
  0
VERTEX
  8
Top
  10
22.655
  20
21.9
  42
1
  0
VERTEX
  8
Top
  10
23.505
  20
21.9
  42
1
  0
SEQEND
  0
POLYLINE
  8
Top
  6
CONTINUOUS
  66
1
  70
0
  40
0.85
  41
0.85
  0
VERTEX
  8
Top
  10
26.045
  20
21.9
  42
1
  0
VERTEX
  8
Top
  10
25.195
  20
21.9
  42
1
  0
VERTEX
  8
Top
  10
26.045
  20
21.9
  42
1
  0
SEQEND
  0
POLYLINE
  8
Top
  6
CONTINUOUS
  66
1
  70
0
  40
0.85
  41
0.85
  0
VERTEX
  8
Top
  10
28.585
  20
21.9
  42
1
  0
VERTEX
  8
Top
  10
27.735
  20
21.9
  42
1
  0
VERTEX
  8
Top
  10
28.585
  20
21.9
  42
1
  0
SEQEND
  0
POLYLINE
  8
Top
  6
CONTINUOUS
  66
1
  70
0
  40
0.33
  41
0.33
  0
VERTEX
  8
Top
  10
31.84
  20
10.0
  42
0
  0
VERTEX
  8
Top
  10
31.84
  20
14.0
  42
0
  0
SEQEND
  0
POLYLINE
  8
Top
  6
CONTINUOUS
  66
1
  70
0
  40
0.165
  41
0.165
  0
VERTEX
  8
Top
  10
31.7575
  20
10.0
  42
1
  0
VERTEX
  8
Top
  10
31.9225
  20
10.0
  42
1
  0
VERTEX
  8
Top
  10
31.7575
  20
10.0
  42
1
  0
SEQEND
  0
POLYLINE
  8
Top
  6
CONTINUOUS
  66
1
  70
0
  40
0.165
  41
0.165
  0
VERTEX
  8
Top
  10
31.7575
  20
14.0
  42
1
  0
VERTEX
  8
Top
  10
31.9225
  20
14.0
  42
1
  0
VERTEX
  8
Top
  10
31.7575
  20
14.0
  42
1
  0
SEQEND
  0
POLYLINE
  8
Top
  6
CONTINUOUS
  66
1
  70
0
  40
0.33
  41
0.33
  0
VERTEX
  8
Top
  10
31.84
  20
14.0
  42
0
  0
VERTEX
  8
Top
  10
34.94
  20
14.0
  42
0
  0
SEQEND
  0
POLYLINE
  8
Top
  6
CONTINUOUS
  66
1
  70
0
  40
0.165
  41
0.165
  0
VERTEX
  8
Top
  10
31.7575
  20
14.0
  42
1
  0
VERTEX
  8
Top
  10
31.9225
  20
14.0
  42
1
  0
VERTEX
  8
Top
  10
31.7575
  20
14.0
  42
1
  0
SEQEND
  0
POLYLINE
  8
Top
  6
CONTINUOUS
  66
1
  70
0
  40
0.165
  41
0.165
  0
VERTEX
  8
Top
  10
34.8575
  20
14.0
  42
1
  0
VERTEX
  8
Top
  10
35.0225
  20
14.0
  42
1
  0
VERTEX
  8
Top
  10
34.8575
  20
14.0
  42
1
  0
SEQEND
  0
POLYLINE
  8
Top
  6
CONTINUOUS
  66
1
  70
0
  40
0.33
  41
0.33
  0
VERTEX
  8
Top
  10
34.94
  20
14.0
  42
0
  0
VERTEX
  8
Top
  10
34.94
  20
14.9
  42
0
  0
SEQEND
  0
POLYLINE
  8
Top
  6
CONTINUOUS
  66
1
  70
0
  40
0.165
  41
0.165
  0
VERTEX
  8
Top
  10
34.8575
  20
14.0
  42
1
  0
VERTEX
  8
Top
  10
35.0225
  20
14.0
  42
1
  0
VERTEX
  8
Top
  10
34.8575
  20
14.0
  42
1
  0
SEQEND
  0
POLYLINE
  8
Top
  6
CONTINUOUS
  66
1
  70
0
  40
0.165
  41
0.165
  0
VERTEX
  8
Top
  10
34.8575
  20
14.9
  42
1
  0
VERTEX
  8
Top
  10
35.0225
  20
14.9
  42
1
  0
VERTEX
  8
Top
  10
34.8575
  20
14.9
  42
1
  0
SEQEND
  0
POLYLINE
  8
Top
  6
CONTINUOUS
  66
1
  70
0
  40
0.33
  41
0.33
  0
VERTEX
  8
Top
  10
34.94
  20
14.9
  42
0
  0
VERTEX
  8
Top
  10
36.74
  20
14.9
  42
0
  0
SEQEND
  0
POLYLINE
  8
Top
  6
CONTINUOUS
  66
1
  70
0
  40
0.165
  41
0.165
  0
VERTEX
  8
Top
  10
34.8575
  20
14.9
  42
1
  0
VERTEX
  8
Top
  10
35.0225
  20
14.9
  42
1
  0
VERTEX
  8
Top
  10
34.8575
  20
14.9
  42
1
  0
SEQEND
  0
POLYLINE
  8
Top
  6
CONTINUOUS
  66
1
  70
0
  40
0.165
  41
0.165
  0
VERTEX
  8
Top
  10
36.6575
  20
14.9
  42
1
  0
VERTEX
  8
Top
  10
36.8225
  20
14.9
  42
1
  0
VERTEX
  8
Top
  10
36.6575
  20
14.9
  42
1
  0
SEQEND
  0
POLYLINE
  8
Top
  6
CONTINUOUS
  66
1
  70
0
  40
0.33
  41
0.33
  0
VERTEX
  8
Top
  10
36.74
  20
14.9
  42
0
  0
VERTEX
  8
Top
  10
36.74
  20
16.9
  42
0
  0
SEQEND
  0
POLYLINE
  8
Top
  6
CONTINUOUS
  66
1
  70
0
  40
0.165
  41
0.165
  0
VERTEX
  8
Top
  10
36.6575
  20
14.9
  42
1
  0
VERTEX
  8
Top
  10
36.8225
  20
14.9
  42
1
  0
VERTEX
  8
Top
  10
36.6575
  20
14.9
  42
1
  0
SEQEND
  0
POLYLINE
  8
Top
  6
CONTINUOUS
  66
1
  70
0
  40
0.165
  41
0.165
  0
VERTEX
  8
Top
  10
36.6575
  20
16.9
  42
1
  0
VERTEX
  8
Top
  10
36.8225
  20
16.9
  42
1
  0
VERTEX
  8
Top
  10
36.6575
  20
16.9
  42
1
  0
SEQEND
  0
POLYLINE
  8
Top
  6
CONTINUOUS
  66
1
  70
0
  40
2.0
  41
2.0
  0
VERTEX
  8
Top
  10
10.94
  20
11.96
  42
0
  0
VERTEX
  8
Top
  10
6.34
  20
11.96
  42
0
  0
SEQEND
  0
POLYLINE
  8
Top
  6
CONTINUOUS
  66
1
  70
0
  40
1.0
  41
1.0
  0
VERTEX
  8
Top
  10
10.44
  20
11.96
  42
1
  0
VERTEX
  8
Top
  10
11.44
  20
11.96
  42
1
  0
VERTEX
  8
Top
  10
10.44
  20
11.96
  42
1
  0
SEQEND
  0
POLYLINE
  8
Top
  6
CONTINUOUS
  66
1
  70
0
  40
1.0
  41
1.0
  0
VERTEX
  8
Top
  10
5.84
  20
11.96
  42
1
  0
VERTEX
  8
Top
  10
6.84
  20
11.96
  42
1
  0
VERTEX
  8
Top
  10
5.84
  20
11.96
  42
1
  0
SEQEND
  0
POLYLINE
  8
Top
  6
CONTINUOUS
  66
1
  70
0
  40
2.0
  41
2.0
  0
VERTEX
  8
Top
  10
6.34
  20
11.96
  42
0
  0
VERTEX
  8
Top
  10
6.34
  20
4.5
  42
0
  0
SEQEND
  0
POLYLINE
  8
Top
  6
CONTINUOUS
  66
1
  70
0
  40
1.0
  41
1.0
  0
VERTEX
  8
Top
  10
5.84
  20
11.96
  42
1
  0
VERTEX
  8
Top
  10
6.84
  20
11.96
  42
1
  0
VERTEX
  8
Top
  10
5.84
  20
11.96
  42
1
  0
SEQEND
  0
POLYLINE
  8
Top
  6
CONTINUOUS
  66
1
  70
0
  40
1.0
  41
1.0
  0
VERTEX
  8
Top
  10
5.84
  20
4.5
  42
1
  0
VERTEX
  8
Top
  10
6.84
  20
4.5
  42
1
  0
VERTEX
  8
Top
  10
5.84
  20
4.5
  42
1
  0
SEQEND
  0
POLYLINE
  8
Top
  6
CONTINUOUS
  66
1
  70
0
  40
0.33
  41
0.33
  0
VERTEX
  8
Top
  10
6.34
  20
4.5
  42
0
  0
VERTEX
  8
Top
  10
6.14
  20
4.3
  42
0
  0
SEQEND
  0
POLYLINE
  8
Top
  6
CONTINUOUS
  66
1
  70
0
  40
0.165
  41
0.165
  0
VERTEX
  8
Top
  10
6.2575
  20
4.5
  42
1
  0
VERTEX
  8
Top
  10
6.4225
  20
4.5
  42
1
  0
VERTEX
  8
Top
  10
6.2575
  20
4.5
  42
1
  0
SEQEND
  0
POLYLINE
  8
Top
  6
CONTINUOUS
  66
1
  70
0
  40
0.165
  41
0.165
  0
VERTEX
  8
Top
  10
6.0575
  20
4.3
  42
1
  0
VERTEX
  8
Top
  10
6.2225
  20
4.3
  42
1
  0
VERTEX
  8
Top
  10
6.0575
  20
4.3
  42
1
  0
SEQEND
  0
POLYLINE
  8
Top
  6
CONTINUOUS
  66
1
  70
0
  40
0.33
  41
0.33
  0
VERTEX
  8
Top
  10
36.74
  20
16.9
  42
0
  0
VERTEX
  8
Top
  10
36.74
  20
20.0
  42
0
  0
SEQEND
  0
POLYLINE
  8
Top
  6
CONTINUOUS
  66
1
  70
0
  40
0.165
  41
0.165
  0
VERTEX
  8
Top
  10
36.6575
  20
16.9
  42
1
  0
VERTEX
  8
Top
  10
36.8225
  20
16.9
  42
1
  0
VERTEX
  8
Top
  10
36.6575
  20
16.9
  42
1
  0
SEQEND
  0
POLYLINE
  8
Top
  6
CONTINUOUS
  66
1
  70
0
  40
0.165
  41
0.165
  0
VERTEX
  8
Top
  10
36.6575
  20
20.0
  42
1
  0
VERTEX
  8
Top
  10
36.8225
  20
20.0
  42
1
  0
VERTEX
  8
Top
  10
36.6575
  20
20.0
  42
1
  0
SEQEND
  0
POLYLINE
  8
Top
  6
CONTINUOUS
  66
1
  70
0
  40
0.33
  41
0.33
  0
VERTEX
  8
Top
  10
36.74
  20
20.0
  42
0
  0
VERTEX
  8
Top
  10
40.88
  20
20.0
  42
0
  0
SEQEND
  0
POLYLINE
  8
Top
  6
CONTINUOUS
  66
1
  70
0
  40
0.165
  41
0.165
  0
VERTEX
  8
Top
  10
36.6575
  20
20.0
  42
1
  0
VERTEX
  8
Top
  10
36.8225
  20
20.0
  42
1
  0
VERTEX
  8
Top
  10
36.6575
  20
20.0
  42
1
  0
SEQEND
  0
POLYLINE
  8
Top
  6
CONTINUOUS
  66
1
  70
0
  40
0.165
  41
0.165
  0
VERTEX
  8
Top
  10
40.7975
  20
20.0
  42
1
  0
VERTEX
  8
Top
  10
40.9625
  20
20.0
  42
1
  0
VERTEX
  8
Top
  10
40.7975
  20
20.0
  42
1
  0
SEQEND
  0
POLYLINE
  8
Top
  6
CONTINUOUS
  66
1
  70
0
  40
0.33
  41
0.33
  0
VERTEX
  8
Top
  10
40.88
  20
20.0
  42
0
  0
VERTEX
  8
Top
  10
41.02
  20
19.86
  42
0
  0
SEQEND
  0
POLYLINE
  8
Top
  6
CONTINUOUS
  66
1
  70
0
  40
0.165
  41
0.165
  0
VERTEX
  8
Top
  10
40.7975
  20
20.0
  42
1
  0
VERTEX
  8
Top
  10
40.9625
  20
20.0
  42
1
  0
VERTEX
  8
Top
  10
40.7975
  20
20.0
  42
1
  0
SEQEND
  0
POLYLINE
  8
Top
  6
CONTINUOUS
  66
1
  70
0
  40
0.165
  41
0.165
  0
VERTEX
  8
Top
  10
40.9375
  20
19.86
  42
1
  0
VERTEX
  8
Top
  10
41.1025
  20
19.86
  42
1
  0
VERTEX
  8
Top
  10
40.9375
  20
19.86
  42
1
  0
SEQEND
  0
POLYLINE
  8
Top
  6
CONTINUOUS
  66
1
  70
0
  40
0.33
  41
0.33
  0
VERTEX
  8
Top
  10
41.02
  20
19.86
  42
0
  0
VERTEX
  8
Top
  10
42.88
  20
19.86
  42
0
  0
SEQEND
  0
POLYLINE
  8
Top
  6
CONTINUOUS
  66
1
  70
0
  40
0.165
  41
0.165
  0
VERTEX
  8
Top
  10
40.9375
  20
19.86
  42
1
  0
VERTEX
  8
Top
  10
41.1025
  20
19.86
  42
1
  0
VERTEX
  8
Top
  10
40.9375
  20
19.86
  42
1
  0
SEQEND
  0
POLYLINE
  8
Top
  6
CONTINUOUS
  66
1
  70
0
  40
0.165
  41
0.165
  0
VERTEX
  8
Top
  10
42.7975
  20
19.86
  42
1
  0
VERTEX
  8
Top
  10
42.9625
  20
19.86
  42
1
  0
VERTEX
  8
Top
  10
42.7975
  20
19.86
  42
1
  0
SEQEND
  0
POLYLINE
  8
Top
  6
CONTINUOUS
  66
1
  70
0
  40
0.33
  41
0.33
  0
VERTEX
  8
Top
  10
42.88
  20
19.86
  42
0
  0
VERTEX
  8
Top
  10
43.04
  20
19.7
  42
0
  0
SEQEND
  0
POLYLINE
  8
Top
  6
CONTINUOUS
  66
1
  70
0
  40
0.165
  41
0.165
  0
VERTEX
  8
Top
  10
42.7975
  20
19.86
  42
1
  0
VERTEX
  8
Top
  10
42.9625
  20
19.86
  42
1
  0
VERTEX
  8
Top
  10
42.7975
  20
19.86
  42
1
  0
SEQEND
  0
POLYLINE
  8
Top
  6
CONTINUOUS
  66
1
  70
0
  40
0.165
  41
0.165
  0
VERTEX
  8
Top
  10
42.9575
  20
19.7
  42
1
  0
VERTEX
  8
Top
  10
43.1225
  20
19.7
  42
1
  0
VERTEX
  8
Top
  10
42.9575
  20
19.7
  42
1
  0
SEQEND
  0
POLYLINE
  8
Top
  6
CONTINUOUS
  66
1
  70
0
  40
0.33
  41
0.33
  0
VERTEX
  8
Top
  10
38.64
  20
15.4
  42
0
  0
VERTEX
  8
Top
  10
38.24
  20
15.4
  42
0
  0
SEQEND
  0
POLYLINE
  8
Top
  6
CONTINUOUS
  66
1
  70
0
  40
0.165
  41
0.165
  0
VERTEX
  8
Top
  10
38.5575
  20
15.4
  42
1
  0
VERTEX
  8
Top
  10
38.7225
  20
15.4
  42
1
  0
VERTEX
  8
Top
  10
38.5575
  20
15.4
  42
1
  0
SEQEND
  0
POLYLINE
  8
Top
  6
CONTINUOUS
  66
1
  70
0
  40
0.165
  41
0.165
  0
VERTEX
  8
Top
  10
38.1575
  20
15.4
  42
1
  0
VERTEX
  8
Top
  10
38.3225
  20
15.4
  42
1
  0
VERTEX
  8
Top
  10
38.1575
  20
15.4
  42
1
  0
SEQEND
  0
POLYLINE
  8
Top
  6
CONTINUOUS
  66
1
  70
0
  40
0.33
  41
0.33
  0
VERTEX
  8
Top
  10
38.24
  20
15.4
  42
0
  0
VERTEX
  8
Top
  10
38.24
  20
12.1
  42
0
  0
SEQEND
  0
POLYLINE
  8
Top
  6
CONTINUOUS
  66
1
  70
0
  40
0.165
  41
0.165
  0
VERTEX
  8
Top
  10
38.1575
  20
15.4
  42
1
  0
VERTEX
  8
Top
  10
38.3225
  20
15.4
  42
1
  0
VERTEX
  8
Top
  10
38.1575
  20
15.4
  42
1
  0
SEQEND
  0
POLYLINE
  8
Top
  6
CONTINUOUS
  66
1
  70
0
  40
0.165
  41
0.165
  0
VERTEX
  8
Top
  10
38.1575
  20
12.1
  42
1
  0
VERTEX
  8
Top
  10
38.3225
  20
12.1
  42
1
  0
VERTEX
  8
Top
  10
38.1575
  20
12.1
  42
1
  0
SEQEND
  0
POLYLINE
  8
Top
  6
CONTINUOUS
  66
1
  70
0
  40
0.33
  41
0.33
  0
VERTEX
  8
Top
  10
38.24
  20
12.1
  42
0
  0
VERTEX
  8
Top
  10
33.14
  20
12.1
  42
0
  0
SEQEND
  0
POLYLINE
  8
Top
  6
CONTINUOUS
  66
1
  70
0
  40
0.165
  41
0.165
  0
VERTEX
  8
Top
  10
38.1575
  20
12.1
  42
1
  0
VERTEX
  8
Top
  10
38.3225
  20
12.1
  42
1
  0
VERTEX
  8
Top
  10
38.1575
  20
12.1
  42
1
  0
SEQEND
  0
POLYLINE
  8
Top
  6
CONTINUOUS
  66
1
  70
0
  40
0.165
  41
0.165
  0
VERTEX
  8
Top
  10
33.0575
  20
12.1
  42
1
  0
VERTEX
  8
Top
  10
33.2225
  20
12.1
  42
1
  0
VERTEX
  8
Top
  10
33.0575
  20
12.1
  42
1
  0
SEQEND
  0
POLYLINE
  8
Top
  6
CONTINUOUS
  66
1
  70
0
  40
0.33
  41
0.33
  0
VERTEX
  8
Top
  10
33.14
  20
12.1
  42
0
  0
VERTEX
  8
Top
  10
33.14
  20
10.0
  42
0
  0
SEQEND
  0
POLYLINE
  8
Top
  6
CONTINUOUS
  66
1
  70
0
  40
0.165
  41
0.165
  0
VERTEX
  8
Top
  10
33.0575
  20
12.1
  42
1
  0
VERTEX
  8
Top
  10
33.2225
  20
12.1
  42
1
  0
VERTEX
  8
Top
  10
33.0575
  20
12.1
  42
1
  0
SEQEND
  0
POLYLINE
  8
Top
  6
CONTINUOUS
  66
1
  70
0
  40
0.165
  41
0.165
  0
VERTEX
  8
Top
  10
33.0575
  20
10.0
  42
1
  0
VERTEX
  8
Top
  10
33.2225
  20
10.0
  42
1
  0
VERTEX
  8
Top
  10
33.0575
  20
10.0
  42
1
  0
SEQEND
  0
POLYLINE
  8
Top
  6
CONTINUOUS
  66
1
  70
0
  40
0.33
  41
0.33
  0
VERTEX
  8
Top
  10
38.64
  20
15.4
  42
0
  0
VERTEX
  8
Top
  10
38.64
  20
17.4
  42
0
  0
SEQEND
  0
POLYLINE
  8
Top
  6
CONTINUOUS
  66
1
  70
0
  40
0.165
  41
0.165
  0
VERTEX
  8
Top
  10
38.5575
  20
15.4
  42
1
  0
VERTEX
  8
Top
  10
38.7225
  20
15.4
  42
1
  0
VERTEX
  8
Top
  10
38.5575
  20
15.4
  42
1
  0
SEQEND
  0
POLYLINE
  8
Top
  6
CONTINUOUS
  66
1
  70
0
  40
0.165
  41
0.165
  0
VERTEX
  8
Top
  10
38.5575
  20
17.4
  42
1
  0
VERTEX
  8
Top
  10
38.7225
  20
17.4
  42
1
  0
VERTEX
  8
Top
  10
38.5575
  20
17.4
  42
1
  0
SEQEND
  0
POLYLINE
  8
Top
  6
CONTINUOUS
  66
1
  70
0
  40
0.33
  41
0.33
  0
VERTEX
  8
Top
  10
38.64
  20
17.4
  42
0
  0
VERTEX
  8
Top
  10
40.94
  20
17.4
  42
0
  0
SEQEND
  0
POLYLINE
  8
Top
  6
CONTINUOUS
  66
1
  70
0
  40
0.165
  41
0.165
  0
VERTEX
  8
Top
  10
38.5575
  20
17.4
  42
1
  0
VERTEX
  8
Top
  10
38.7225
  20
17.4
  42
1
  0
VERTEX
  8
Top
  10
38.5575
  20
17.4
  42
1
  0
SEQEND
  0
POLYLINE
  8
Top
  6
CONTINUOUS
  66
1
  70
0
  40
0.165
  41
0.165
  0
VERTEX
  8
Top
  10
40.8575
  20
17.4
  42
1
  0
VERTEX
  8
Top
  10
41.0225
  20
17.4
  42
1
  0
VERTEX
  8
Top
  10
40.8575
  20
17.4
  42
1
  0
SEQEND
  0
POLYLINE
  8
Top
  6
CONTINUOUS
  66
1
  70
0
  40
0.33
  41
0.33
  0
VERTEX
  8
Top
  10
40.94
  20
17.4
  42
0
  0
VERTEX
  8
Top
  10
41.02
  20
17.32
  42
0
  0
SEQEND
  0
POLYLINE
  8
Top
  6
CONTINUOUS
  66
1
  70
0
  40
0.165
  41
0.165
  0
VERTEX
  8
Top
  10
40.8575
  20
17.4
  42
1
  0
VERTEX
  8
Top
  10
41.0225
  20
17.4
  42
1
  0
VERTEX
  8
Top
  10
40.8575
  20
17.4
  42
1
  0
SEQEND
  0
POLYLINE
  8
Top
  6
CONTINUOUS
  66
1
  70
0
  40
0.165
  41
0.165
  0
VERTEX
  8
Top
  10
40.9375
  20
17.32
  42
1
  0
VERTEX
  8
Top
  10
41.1025
  20
17.32
  42
1
  0
VERTEX
  8
Top
  10
40.9375
  20
17.32
  42
1
  0
SEQEND
  0
POLYLINE
  8
Top
  6
CONTINUOUS
  66
1
  70
0
  40
0.33
  41
0.33
  0
VERTEX
  8
Top
  10
38.44
  20
7.7
  42
0
  0
VERTEX
  8
Top
  10
38.44
  20
10.1
  42
0
  0
SEQEND
  0
POLYLINE
  8
Top
  6
CONTINUOUS
  66
1
  70
0
  40
0.165
  41
0.165
  0
VERTEX
  8
Top
  10
38.3575
  20
7.7
  42
1
  0
VERTEX
  8
Top
  10
38.5225
  20
7.7
  42
1
  0
VERTEX
  8
Top
  10
38.3575
  20
7.7
  42
1
  0
SEQEND
  0
POLYLINE
  8
Top
  6
CONTINUOUS
  66
1
  70
0
  40
0.165
  41
0.165
  0
VERTEX
  8
Top
  10
38.3575
  20
10.1
  42
1
  0
VERTEX
  8
Top
  10
38.5225
  20
10.1
  42
1
  0
VERTEX
  8
Top
  10
38.3575
  20
10.1
  42
1
  0
SEQEND
  0
POLYLINE
  8
Top
  6
CONTINUOUS
  66
1
  70
0
  40
0.33
  41
0.33
  0
VERTEX
  8
Top
  10
38.44
  20
10.1
  42
0
  0
VERTEX
  8
Top
  10
40.04
  20
10.1
  42
0
  0
SEQEND
  0
POLYLINE
  8
Top
  6
CONTINUOUS
  66
1
  70
0
  40
0.165
  41
0.165
  0
VERTEX
  8
Top
  10
38.3575
  20
10.1
  42
1
  0
VERTEX
  8
Top
  10
38.5225
  20
10.1
  42
1
  0
VERTEX
  8
Top
  10
38.3575
  20
10.1
  42
1
  0
SEQEND
  0
POLYLINE
  8
Top
  6
CONTINUOUS
  66
1
  70
0
  40
0.165
  41
0.165
  0
VERTEX
  8
Top
  10
39.9575
  20
10.1
  42
1
  0
VERTEX
  8
Top
  10
40.1225
  20
10.1
  42
1
  0
VERTEX
  8
Top
  10
39.9575
  20
10.1
  42
1
  0
SEQEND
  0
POLYLINE
  8
Top
  6
CONTINUOUS
  66
1
  70
0
  40
0.33
  41
0.33
  0
VERTEX
  8
Top
  10
40.04
  20
10.1
  42
0
  0
VERTEX
  8
Top
  10
41.14
  20
11.2
  42
0
  0
SEQEND
  0
POLYLINE
  8
Top
  6
CONTINUOUS
  66
1
  70
0
  40
0.165
  41
0.165
  0
VERTEX
  8
Top
  10
39.9575
  20
10.1
  42
1
  0
VERTEX
  8
Top
  10
40.1225
  20
10.1
  42
1
  0
VERTEX
  8
Top
  10
39.9575
  20
10.1
  42
1
  0
SEQEND
  0
POLYLINE
  8
Top
  6
CONTINUOUS
  66
1
  70
0
  40
0.165
  41
0.165
  0
VERTEX
  8
Top
  10
41.0575
  20
11.2
  42
1
  0
VERTEX
  8
Top
  10
41.2225
  20
11.2
  42
1
  0
VERTEX
  8
Top
  10
41.0575
  20
11.2
  42
1
  0
SEQEND
  0
POLYLINE
  8
Top
  6
CONTINUOUS
  66
1
  70
0
  40
0.33
  41
0.33
  0
VERTEX
  8
Top
  10
41.02
  20
17.32
  42
0
  0
VERTEX
  8
Top
  10
42.56
  20
17.32
  42
0
  0
SEQEND
  0
POLYLINE
  8
Top
  6
CONTINUOUS
  66
1
  70
0
  40
0.165
  41
0.165
  0
VERTEX
  8
Top
  10
40.9375
  20
17.32
  42
1
  0
VERTEX
  8
Top
  10
41.1025
  20
17.32
  42
1
  0
VERTEX
  8
Top
  10
40.9375
  20
17.32
  42
1
  0
SEQEND
  0
POLYLINE
  8
Top
  6
CONTINUOUS
  66
1
  70
0
  40
0.165
  41
0.165
  0
VERTEX
  8
Top
  10
42.4775
  20
17.32
  42
1
  0
VERTEX
  8
Top
  10
42.6425
  20
17.32
  42
1
  0
VERTEX
  8
Top
  10
42.4775
  20
17.32
  42
1
  0
SEQEND
  0
POLYLINE
  8
Top
  6
CONTINUOUS
  66
1
  70
0
  40
0.33
  41
0.33
  0
VERTEX
  8
Top
  10
42.56
  20
17.32
  42
0
  0
VERTEX
  8
Top
  10
43.04
  20
17.8
  42
0
  0
SEQEND
  0
POLYLINE
  8
Top
  6
CONTINUOUS
  66
1
  70
0
  40
0.165
  41
0.165
  0
VERTEX
  8
Top
  10
42.4775
  20
17.32
  42
1
  0
VERTEX
  8
Top
  10
42.6425
  20
17.32
  42
1
  0
VERTEX
  8
Top
  10
42.4775
  20
17.32
  42
1
  0
SEQEND
  0
POLYLINE
  8
Top
  6
CONTINUOUS
  66
1
  70
0
  40
0.165
  41
0.165
  0
VERTEX
  8
Top
  10
42.9575
  20
17.8
  42
1
  0
VERTEX
  8
Top
  10
43.1225
  20
17.8
  42
1
  0
VERTEX
  8
Top
  10
42.9575
  20
17.8
  42
1
  0
SEQEND
  0
POLYLINE
  8
Top
  6
CONTINUOUS
  66
1
  70
0
  40
0.33
  41
0.33
  0
VERTEX
  8
Top
  10
31.19
  20
10.0
  42
0
  0
VERTEX
  8
Top
  10
31.19
  20
13.3
  42
0
  0
SEQEND
  0
POLYLINE
  8
Top
  6
CONTINUOUS
  66
1
  70
0
  40
0.165
  41
0.165
  0
VERTEX
  8
Top
  10
31.1075
  20
10.0
  42
1
  0
VERTEX
  8
Top
  10
31.2725
  20
10.0
  42
1
  0
VERTEX
  8
Top
  10
31.1075
  20
10.0
  42
1
  0
SEQEND
  0
POLYLINE
  8
Top
  6
CONTINUOUS
  66
1
  70
0
  40
0.165
  41
0.165
  0
VERTEX
  8
Top
  10
31.1075
  20
13.3
  42
1
  0
VERTEX
  8
Top
  10
31.2725
  20
13.3
  42
1
  0
VERTEX
  8
Top
  10
31.1075
  20
13.3
  42
1
  0
SEQEND
  0
POLYLINE
  8
Top
  6
CONTINUOUS
  66
1
  70
0
  40
0.33
  41
0.33
  0
VERTEX
  8
Top
  10
31.19
  20
13.3
  42
0
  0
VERTEX
  8
Top
  10
23.14
  20
13.3
  42
0
  0
SEQEND
  0
POLYLINE
  8
Top
  6
CONTINUOUS
  66
1
  70
0
  40
0.165
  41
0.165
  0
VERTEX
  8
Top
  10
31.1075
  20
13.3
  42
1
  0
VERTEX
  8
Top
  10
31.2725
  20
13.3
  42
1
  0
VERTEX
  8
Top
  10
31.1075
  20
13.3
  42
1
  0
SEQEND
  0
POLYLINE
  8
Top
  6
CONTINUOUS
  66
1
  70
0
  40
0.165
  41
0.165
  0
VERTEX
  8
Top
  10
23.0575
  20
13.3
  42
1
  0
VERTEX
  8
Top
  10
23.2225
  20
13.3
  42
1
  0
VERTEX
  8
Top
  10
23.0575
  20
13.3
  42
1
  0
SEQEND
  0
POLYLINE
  8
Top
  6
CONTINUOUS
  66
1
  70
0
  40
0.33
  41
0.33
  0
VERTEX
  8
Top
  10
23.14
  20
13.3
  42
0
  0
VERTEX
  8
Top
  10
23.14
  20
4.3
  42
0
  0
SEQEND
  0
POLYLINE
  8
Top
  6
CONTINUOUS
  66
1
  70
0
  40
0.165
  41
0.165
  0
VERTEX
  8
Top
  10
23.0575
  20
13.3
  42
1
  0
VERTEX
  8
Top
  10
23.2225
  20
13.3
  42
1
  0
VERTEX
  8
Top
  10
23.0575
  20
13.3
  42
1
  0
SEQEND
  0
POLYLINE
  8
Top
  6
CONTINUOUS
  66
1
  70
0
  40
0.165
  41
0.165
  0
VERTEX
  8
Top
  10
23.0575
  20
4.3
  42
1
  0
VERTEX
  8
Top
  10
23.2225
  20
4.3
  42
1
  0
VERTEX
  8
Top
  10
23.0575
  20
4.3
  42
1
  0
SEQEND
  0
POLYLINE
  8
Top
  6
CONTINUOUS
  66
1
  70
0
  40
0.33
  41
0.33
  0
VERTEX
  8
Top
  10
23.14
  20
4.3
  42
0
  0
VERTEX
  8
Top
  10
18.6
  20
4.3
  42
0
  0
SEQEND
  0
POLYLINE
  8
Top
  6
CONTINUOUS
  66
1
  70
0
  40
0.165
  41
0.165
  0
VERTEX
  8
Top
  10
23.0575
  20
4.3
  42
1
  0
VERTEX
  8
Top
  10
23.2225
  20
4.3
  42
1
  0
VERTEX
  8
Top
  10
23.0575
  20
4.3
  42
1
  0
SEQEND
  0
POLYLINE
  8
Top
  6
CONTINUOUS
  66
1
  70
0
  40
0.165
  41
0.165
  0
VERTEX
  8
Top
  10
18.5175
  20
4.3
  42
1
  0
VERTEX
  8
Top
  10
18.6825
  20
4.3
  42
1
  0
VERTEX
  8
Top
  10
18.5175
  20
4.3
  42
1
  0
SEQEND
  0
POLYLINE
  8
Top
  6
CONTINUOUS
  66
1
  70
0
  40
0.33
  41
0.33
  0
VERTEX
  8
Top
  10
18.6
  20
4.3
  42
0
  0
VERTEX
  8
Top
  10
18.56
  20
4.34
  42
0
  0
SEQEND
  0
POLYLINE
  8
Top
  6
CONTINUOUS
  66
1
  70
0
  40
0.165
  41
0.165
  0
VERTEX
  8
Top
  10
18.5175
  20
4.3
  42
1
  0
VERTEX
  8
Top
  10
18.6825
  20
4.3
  42
1
  0
VERTEX
  8
Top
  10
18.5175
  20
4.3
  42
1
  0
SEQEND
  0
POLYLINE
  8
Top
  6
CONTINUOUS
  66
1
  70
0
  40
0.165
  41
0.165
  0
VERTEX
  8
Top
  10
18.4775
  20
4.34
  42
1
  0
VERTEX
  8
Top
  10
18.6425
  20
4.34
  42
1
  0
VERTEX
  8
Top
  10
18.4775
  20
4.34
  42
1
  0
SEQEND
  0
POLYLINE
  8
Top
  6
CONTINUOUS
  66
1
  70
0
  40
0.33
  41
0.33
  0
VERTEX
  8
Top
  10
36.74
  20
13.2
  42
0
  0
VERTEX
  8
Top
  10
36.94
  20
13.2
  42
0
  0
SEQEND
  0
POLYLINE
  8
Top
  6
CONTINUOUS
  66
1
  70
0
  40
0.165
  41
0.165
  0
VERTEX
  8
Top
  10
36.6575
  20
13.2
  42
1
  0
VERTEX
  8
Top
  10
36.8225
  20
13.2
  42
1
  0
VERTEX
  8
Top
  10
36.6575
  20
13.2
  42
1
  0
SEQEND
  0
POLYLINE
  8
Top
  6
CONTINUOUS
  66
1
  70
0
  40
0.165
  41
0.165
  0
VERTEX
  8
Top
  10
36.8575
  20
13.2
  42
1
  0
VERTEX
  8
Top
  10
37.0225
  20
13.2
  42
1
  0
VERTEX
  8
Top
  10
36.8575
  20
13.2
  42
1
  0
SEQEND
  0
POLYLINE
  8
Top
  6
CONTINUOUS
  66
1
  70
0
  40
0.33
  41
0.33
  0
VERTEX
  8
Top
  10
36.94
  20
13.2
  42
0
  0
VERTEX
  8
Top
  10
36.94
  20
13.0
  42
0
  0
SEQEND
  0
POLYLINE
  8
Top
  6
CONTINUOUS
  66
1
  70
0
  40
0.165
  41
0.165
  0
VERTEX
  8
Top
  10
36.8575
  20
13.2
  42
1
  0
VERTEX
  8
Top
  10
37.0225
  20
13.2
  42
1
  0
VERTEX
  8
Top
  10
36.8575
  20
13.2
  42
1
  0
SEQEND
  0
POLYLINE
  8
Top
  6
CONTINUOUS
  66
1
  70
0
  40
0.165
  41
0.165
  0
VERTEX
  8
Top
  10
36.8575
  20
13.0
  42
1
  0
VERTEX
  8
Top
  10
37.0225
  20
13.0
  42
1
  0
VERTEX
  8
Top
  10
36.8575
  20
13.0
  42
1
  0
SEQEND
  0
POLYLINE
  8
Top
  6
CONTINUOUS
  66
1
  70
0
  40
0.33
  41
0.33
  0
VERTEX
  8
Top
  10
36.94
  20
13.0
  42
0
  0
VERTEX
  8
Top
  10
32.44
  20
13.0
  42
0
  0
SEQEND
  0
POLYLINE
  8
Top
  6
CONTINUOUS
  66
1
  70
0
  40
0.165
  41
0.165
  0
VERTEX
  8
Top
  10
36.8575
  20
13.0
  42
1
  0
VERTEX
  8
Top
  10
37.0225
  20
13.0
  42
1
  0
VERTEX
  8
Top
  10
36.8575
  20
13.0
  42
1
  0
SEQEND
  0
POLYLINE
  8
Top
  6
CONTINUOUS
  66
1
  70
0
  40
0.165
  41
0.165
  0
VERTEX
  8
Top
  10
32.3575
  20
13.0
  42
1
  0
VERTEX
  8
Top
  10
32.5225
  20
13.0
  42
1
  0
VERTEX
  8
Top
  10
32.3575
  20
13.0
  42
1
  0
SEQEND
  0
POLYLINE
  8
Top
  6
CONTINUOUS
  66
1
  70
0
  40
0.33
  41
0.33
  0
VERTEX
  8
Top
  10
32.44
  20
13.0
  42
0
  0
VERTEX
  8
Top
  10
32.44
  20
9.95
  42
0
  0
SEQEND
  0
POLYLINE
  8
Top
  6
CONTINUOUS
  66
1
  70
0
  40
0.165
  41
0.165
  0
VERTEX
  8
Top
  10
32.3575
  20
13.0
  42
1
  0
VERTEX
  8
Top
  10
32.5225
  20
13.0
  42
1
  0
VERTEX
  8
Top
  10
32.3575
  20
13.0
  42
1
  0
SEQEND
  0
POLYLINE
  8
Top
  6
CONTINUOUS
  66
1
  70
0
  40
0.165
  41
0.165
  0
VERTEX
  8
Top
  10
32.3575
  20
9.95
  42
1
  0
VERTEX
  8
Top
  10
32.5225
  20
9.95
  42
1
  0
VERTEX
  8
Top
  10
32.3575
  20
9.95
  42
1
  0
SEQEND
  0
POLYLINE
  8
Top
  6
CONTINUOUS
  66
1
  70
0
  40
0.33
  41
0.33
  0
VERTEX
  8
Top
  10
32.44
  20
9.95
  42
0
  0
VERTEX
  8
Top
  10
32.49
  20
10.0
  42
0
  0
SEQEND
  0
POLYLINE
  8
Top
  6
CONTINUOUS
  66
1
  70
0
  40
0.165
  41
0.165
  0
VERTEX
  8
Top
  10
32.3575
  20
9.95
  42
1
  0
VERTEX
  8
Top
  10
32.5225
  20
9.95
  42
1
  0
VERTEX
  8
Top
  10
32.3575
  20
9.95
  42
1
  0
SEQEND
  0
POLYLINE
  8
Top
  6
CONTINUOUS
  66
1
  70
0
  40
0.165
  41
0.165
  0
VERTEX
  8
Top
  10
32.4075
  20
10.0
  42
1
  0
VERTEX
  8
Top
  10
32.5725
  20
10.0
  42
1
  0
VERTEX
  8
Top
  10
32.4075
  20
10.0
  42
1
  0
SEQEND
  0
POLYLINE
  8
Top
  6
CONTINUOUS
  66
1
  70
0
  40
0.33
  41
0.33
  0
VERTEX
  8
Top
  10
20.74
  20
17.1
  42
0
  0
VERTEX
  8
Top
  10
20.74
  20
17.1
  42
0
  0
SEQEND
  0
POLYLINE
  8
Top
  6
CONTINUOUS
  66
1
  70
0
  40
0.165
  41
0.165
  0
VERTEX
  8
Top
  10
20.6575
  20
17.1
  42
1
  0
VERTEX
  8
Top
  10
20.8225
  20
17.1
  42
1
  0
VERTEX
  8
Top
  10
20.6575
  20
17.1
  42
1
  0
SEQEND
  0
POLYLINE
  8
Top
  6
CONTINUOUS
  66
1
  70
0
  40
0.33
  41
0.33
  0
VERTEX
  8
Top
  10
20.74
  20
17.1
  42
0
  0
VERTEX
  8
Top
  10
18.62
  20
17.1
  42
0
  0
SEQEND
  0
POLYLINE
  8
Top
  6
CONTINUOUS
  66
1
  70
0
  40
0.165
  41
0.165
  0
VERTEX
  8
Top
  10
20.6575
  20
17.1
  42
1
  0
VERTEX
  8
Top
  10
20.8225
  20
17.1
  42
1
  0
VERTEX
  8
Top
  10
20.6575
  20
17.1
  42
1
  0
SEQEND
  0
POLYLINE
  8
Top
  6
CONTINUOUS
  66
1
  70
0
  40
0.165
  41
0.165
  0
VERTEX
  8
Top
  10
18.5375
  20
17.1
  42
1
  0
VERTEX
  8
Top
  10
18.7025
  20
17.1
  42
1
  0
VERTEX
  8
Top
  10
18.5375
  20
17.1
  42
1
  0
SEQEND
  0
POLYLINE
  8
Top
  6
CONTINUOUS
  66
1
  70
0
  40
0.33
  41
0.33
  0
VERTEX
  8
Top
  10
18.62
  20
17.1
  42
0
  0
VERTEX
  8
Top
  10
18.56
  20
17.04
  42
0
  0
SEQEND
  0
POLYLINE
  8
Top
  6
CONTINUOUS
  66
1
  70
0
  40
0.165
  41
0.165
  0
VERTEX
  8
Top
  10
18.5375
  20
17.1
  42
1
  0
VERTEX
  8
Top
  10
18.7025
  20
17.1
  42
1
  0
VERTEX
  8
Top
  10
18.5375
  20
17.1
  42
1
  0
SEQEND
  0
POLYLINE
  8
Top
  6
CONTINUOUS
  66
1
  70
0
  40
0.165
  41
0.165
  0
VERTEX
  8
Top
  10
18.4775
  20
17.04
  42
1
  0
VERTEX
  8
Top
  10
18.6425
  20
17.04
  42
1
  0
VERTEX
  8
Top
  10
18.4775
  20
17.04
  42
1
  0
SEQEND
  0
POLYLINE
  8
Top
  6
CONTINUOUS
  66
1
  70
0
  40
0.33
  41
0.33
  0
VERTEX
  8
Top
  10
29.24
  20
10.0
  42
0
  0
VERTEX
  8
Top
  10
29.24
  20
5.99
  42
0
  0
SEQEND
  0
POLYLINE
  8
Top
  6
CONTINUOUS
  66
1
  70
0
  40
0.165
  41
0.165
  0
VERTEX
  8
Top
  10
29.1575
  20
10.0
  42
1
  0
VERTEX
  8
Top
  10
29.3225
  20
10.0
  42
1
  0
VERTEX
  8
Top
  10
29.1575
  20
10.0
  42
1
  0
SEQEND
  0
POLYLINE
  8
Top
  6
CONTINUOUS
  66
1
  70
0
  40
0.165
  41
0.165
  0
VERTEX
  8
Top
  10
29.1575
  20
5.99
  42
1
  0
VERTEX
  8
Top
  10
29.3225
  20
5.99
  42
1
  0
VERTEX
  8
Top
  10
29.1575
  20
5.99
  42
1
  0
SEQEND
  0
POLYLINE
  8
Top
  6
CONTINUOUS
  66
1
  70
0
  40
0.33
  41
0.33
  0
VERTEX
  8
Top
  10
29.24
  20
5.99
  42
0
  0
VERTEX
  8
Top
  10
41.01
  20
5.99
  42
0
  0
SEQEND
  0
POLYLINE
  8
Top
  6
CONTINUOUS
  66
1
  70
0
  40
0.165
  41
0.165
  0
VERTEX
  8
Top
  10
29.1575
  20
5.99
  42
1
  0
VERTEX
  8
Top
  10
29.3225
  20
5.99
  42
1
  0
VERTEX
  8
Top
  10
29.1575
  20
5.99
  42
1
  0
SEQEND
  0
POLYLINE
  8
Top
  6
CONTINUOUS
  66
1
  70
0
  40
0.165
  41
0.165
  0
VERTEX
  8
Top
  10
40.9275
  20
5.99
  42
1
  0
VERTEX
  8
Top
  10
41.0925
  20
5.99
  42
1
  0
VERTEX
  8
Top
  10
40.9275
  20
5.99
  42
1
  0
SEQEND
  0
POLYLINE
  8
Top
  6
CONTINUOUS
  66
1
  70
0
  40
0.33
  41
0.33
  0
VERTEX
  8
Top
  10
41.01
  20
5.99
  42
0
  0
VERTEX
  8
Top
  10
41.14
  20
6.12
  42
0
  0
SEQEND
  0
POLYLINE
  8
Top
  6
CONTINUOUS
  66
1
  70
0
  40
0.165
  41
0.165
  0
VERTEX
  8
Top
  10
40.9275
  20
5.99
  42
1
  0
VERTEX
  8
Top
  10
41.0925
  20
5.99
  42
1
  0
VERTEX
  8
Top
  10
40.9275
  20
5.99
  42
1
  0
SEQEND
  0
POLYLINE
  8
Top
  6
CONTINUOUS
  66
1
  70
0
  40
0.165
  41
0.165
  0
VERTEX
  8
Top
  10
41.0575
  20
6.12
  42
1
  0
VERTEX
  8
Top
  10
41.2225
  20
6.12
  42
1
  0
VERTEX
  8
Top
  10
41.0575
  20
6.12
  42
1
  0
SEQEND
  0
POLYLINE
  8
Top
  6
CONTINUOUS
  66
1
  70
0
  40
0.33
  41
0.33
  0
VERTEX
  8
Top
  10
21.45
  20
11.39
  42
0
  0
VERTEX
  8
Top
  10
21.45
  20
15.4
  42
0
  0
SEQEND
  0
POLYLINE
  8
Top
  6
CONTINUOUS
  66
1
  70
0
  40
0.165
  41
0.165
  0
VERTEX
  8
Top
  10
21.3675
  20
11.39
  42
1
  0
VERTEX
  8
Top
  10
21.5325
  20
11.39
  42
1
  0
VERTEX
  8
Top
  10
21.3675
  20
11.39
  42
1
  0
SEQEND
  0
POLYLINE
  8
Top
  6
CONTINUOUS
  66
1
  70
0
  40
0.165
  41
0.165
  0
VERTEX
  8
Top
  10
21.3675
  20
15.4
  42
1
  0
VERTEX
  8
Top
  10
21.5325
  20
15.4
  42
1
  0
VERTEX
  8
Top
  10
21.3675
  20
15.4
  42
1
  0
SEQEND
  0
POLYLINE
  8
Top
  6
CONTINUOUS
  66
1
  70
0
  40
0.33
  41
0.33
  0
VERTEX
  8
Top
  10
21.45
  20
15.4
  42
0
  0
VERTEX
  8
Top
  10
27.94
  20
15.4
  42
0
  0
SEQEND
  0
POLYLINE
  8
Top
  6
CONTINUOUS
  66
1
  70
0
  40
0.165
  41
0.165
  0
VERTEX
  8
Top
  10
21.3675
  20
15.4
  42
1
  0
VERTEX
  8
Top
  10
21.5325
  20
15.4
  42
1
  0
VERTEX
  8
Top
  10
21.3675
  20
15.4
  42
1
  0
SEQEND
  0
POLYLINE
  8
Top
  6
CONTINUOUS
  66
1
  70
0
  40
0.165
  41
0.165
  0
VERTEX
  8
Top
  10
27.8575
  20
15.4
  42
1
  0
VERTEX
  8
Top
  10
28.0225
  20
15.4
  42
1
  0
VERTEX
  8
Top
  10
27.8575
  20
15.4
  42
1
  0
SEQEND
  0
POLYLINE
  8
Top
  6
CONTINUOUS
  66
1
  70
0
  40
0.33
  41
0.33
  0
VERTEX
  8
Top
  10
27.94
  20
15.4
  42
0
  0
VERTEX
  8
Top
  10
27.94
  20
15.8
  42
0
  0
SEQEND
  0
POLYLINE
  8
Top
  6
CONTINUOUS
  66
1
  70
0
  40
0.165
  41
0.165
  0
VERTEX
  8
Top
  10
27.8575
  20
15.4
  42
1
  0
VERTEX
  8
Top
  10
28.0225
  20
15.4
  42
1
  0
VERTEX
  8
Top
  10
27.8575
  20
15.4
  42
1
  0
SEQEND
  0
POLYLINE
  8
Top
  6
CONTINUOUS
  66
1
  70
0
  40
0.165
  41
0.165
  0
VERTEX
  8
Top
  10
27.8575
  20
15.8
  42
1
  0
VERTEX
  8
Top
  10
28.0225
  20
15.8
  42
1
  0
VERTEX
  8
Top
  10
27.8575
  20
15.8
  42
1
  0
SEQEND
  0
POLYLINE
  8
Top
  6
CONTINUOUS
  66
1
  70
0
  40
0.33
  41
0.33
  0
VERTEX
  8
Top
  10
28.59
  20
15.8
  42
0
  0
VERTEX
  8
Top
  10
28.59
  20
17.6
  42
0
  0
SEQEND
  0
POLYLINE
  8
Top
  6
CONTINUOUS
  66
1
  70
0
  40
0.165
  41
0.165
  0
VERTEX
  8
Top
  10
28.5075
  20
15.8
  42
1
  0
VERTEX
  8
Top
  10
28.6725
  20
15.8
  42
1
  0
VERTEX
  8
Top
  10
28.5075
  20
15.8
  42
1
  0
SEQEND
  0
POLYLINE
  8
Top
  6
CONTINUOUS
  66
1
  70
0
  40
0.165
  41
0.165
  0
VERTEX
  8
Top
  10
28.5075
  20
17.6
  42
1
  0
VERTEX
  8
Top
  10
28.6725
  20
17.6
  42
1
  0
VERTEX
  8
Top
  10
28.5075
  20
17.6
  42
1
  0
SEQEND
  0
POLYLINE
  8
Top
  6
CONTINUOUS
  66
1
  70
0
  40
0.33
  41
0.33
  0
VERTEX
  8
Top
  10
28.59
  20
17.6
  42
0
  0
VERTEX
  8
Top
  10
23.04
  20
17.6
  42
0
  0
SEQEND
  0
POLYLINE
  8
Top
  6
CONTINUOUS
  66
1
  70
0
  40
0.165
  41
0.165
  0
VERTEX
  8
Top
  10
28.5075
  20
17.6
  42
1
  0
VERTEX
  8
Top
  10
28.6725
  20
17.6
  42
1
  0
VERTEX
  8
Top
  10
28.5075
  20
17.6
  42
1
  0
SEQEND
  0
POLYLINE
  8
Top
  6
CONTINUOUS
  66
1
  70
0
  40
0.165
  41
0.165
  0
VERTEX
  8
Top
  10
22.9575
  20
17.6
  42
1
  0
VERTEX
  8
Top
  10
23.1225
  20
17.6
  42
1
  0
VERTEX
  8
Top
  10
22.9575
  20
17.6
  42
1
  0
SEQEND
  0
POLYLINE
  8
Top
  6
CONTINUOUS
  66
1
  70
0
  40
0.33
  41
0.33
  0
VERTEX
  8
Top
  10
23.04
  20
17.6
  42
0
  0
VERTEX
  8
Top
  10
22.64
  20
17.2
  42
0
  0
SEQEND
  0
POLYLINE
  8
Top
  6
CONTINUOUS
  66
1
  70
0
  40
0.165
  41
0.165
  0
VERTEX
  8
Top
  10
22.9575
  20
17.6
  42
1
  0
VERTEX
  8
Top
  10
23.1225
  20
17.6
  42
1
  0
VERTEX
  8
Top
  10
22.9575
  20
17.6
  42
1
  0
SEQEND
  0
POLYLINE
  8
Top
  6
CONTINUOUS
  66
1
  70
0
  40
0.165
  41
0.165
  0
VERTEX
  8
Top
  10
22.5575
  20
17.2
  42
1
  0
VERTEX
  8
Top
  10
22.7225
  20
17.2
  42
1
  0
VERTEX
  8
Top
  10
22.5575
  20
17.2
  42
1
  0
SEQEND
  0
POLYLINE
  8
Top
  6
CONTINUOUS
  66
1
  70
0
  40
0.33
  41
0.33
  0
VERTEX
  8
Top
  10
22.64
  20
17.2
  42
0
  0
VERTEX
  8
Top
  10
22.64
  20
17.1
  42
0
  0
SEQEND
  0
POLYLINE
  8
Top
  6
CONTINUOUS
  66
1
  70
0
  40
0.165
  41
0.165
  0
VERTEX
  8
Top
  10
22.5575
  20
17.2
  42
1
  0
VERTEX
  8
Top
  10
22.7225
  20
17.2
  42
1
  0
VERTEX
  8
Top
  10
22.5575
  20
17.2
  42
1
  0
SEQEND
  0
POLYLINE
  8
Top
  6
CONTINUOUS
  66
1
  70
0
  40
0.165
  41
0.165
  0
VERTEX
  8
Top
  10
22.5575
  20
17.1
  42
1
  0
VERTEX
  8
Top
  10
22.7225
  20
17.1
  42
1
  0
VERTEX
  8
Top
  10
22.5575
  20
17.1
  42
1
  0
SEQEND
  0
POLYLINE
  8
Top
  6
CONTINUOUS
  66
1
  70
0
  40
0.33
  41
0.33
  0
VERTEX
  8
Top
  10
29.24
  20
15.8
  42
0
  0
VERTEX
  8
Top
  10
29.24
  20
19.2
  42
0
  0
SEQEND
  0
POLYLINE
  8
Top
  6
CONTINUOUS
  66
1
  70
0
  40
0.165
  41
0.165
  0
VERTEX
  8
Top
  10
29.1575
  20
15.8
  42
1
  0
VERTEX
  8
Top
  10
29.3225
  20
15.8
  42
1
  0
VERTEX
  8
Top
  10
29.1575
  20
15.8
  42
1
  0
SEQEND
  0
POLYLINE
  8
Top
  6
CONTINUOUS
  66
1
  70
0
  40
0.165
  41
0.165
  0
VERTEX
  8
Top
  10
29.1575
  20
19.2
  42
1
  0
VERTEX
  8
Top
  10
29.3225
  20
19.2
  42
1
  0
VERTEX
  8
Top
  10
29.1575
  20
19.2
  42
1
  0
SEQEND
  0
POLYLINE
  8
Top
  6
CONTINUOUS
  66
1
  70
0
  40
0.33
  41
0.33
  0
VERTEX
  8
Top
  10
29.24
  20
19.2
  42
0
  0
VERTEX
  8
Top
  10
29.24
  20
19.3
  42
0
  0
SEQEND
  0
POLYLINE
  8
Top
  6
CONTINUOUS
  66
1
  70
0
  40
0.165
  41
0.165
  0
VERTEX
  8
Top
  10
29.1575
  20
19.2
  42
1
  0
VERTEX
  8
Top
  10
29.3225
  20
19.2
  42
1
  0
VERTEX
  8
Top
  10
29.1575
  20
19.2
  42
1
  0
SEQEND
  0
POLYLINE
  8
Top
  6
CONTINUOUS
  66
1
  70
0
  40
0.165
  41
0.165
  0
VERTEX
  8
Top
  10
29.1575
  20
19.3
  42
1
  0
VERTEX
  8
Top
  10
29.3225
  20
19.3
  42
1
  0
VERTEX
  8
Top
  10
29.1575
  20
19.3
  42
1
  0
SEQEND
  0
POLYLINE
  8
Top
  6
CONTINUOUS
  66
1
  70
0
  40
0.33
  41
0.33
  0
VERTEX
  8
Top
  10
25.62
  20
21.9
  42
0
  0
VERTEX
  8
Top
  10
25.62
  20
19.2
  42
0
  0
SEQEND
  0
POLYLINE
  8
Top
  6
CONTINUOUS
  66
1
  70
0
  40
0.165
  41
0.165
  0
VERTEX
  8
Top
  10
25.5375
  20
21.9
  42
1
  0
VERTEX
  8
Top
  10
25.7025
  20
21.9
  42
1
  0
VERTEX
  8
Top
  10
25.5375
  20
21.9
  42
1
  0
SEQEND
  0
POLYLINE
  8
Top
  6
CONTINUOUS
  66
1
  70
0
  40
0.165
  41
0.165
  0
VERTEX
  8
Top
  10
25.5375
  20
19.2
  42
1
  0
VERTEX
  8
Top
  10
25.7025
  20
19.2
  42
1
  0
VERTEX
  8
Top
  10
25.5375
  20
19.2
  42
1
  0
SEQEND
  0
POLYLINE
  8
Top
  6
CONTINUOUS
  66
1
  70
0
  40
0.33
  41
0.33
  0
VERTEX
  8
Top
  10
25.62
  20
19.2
  42
0
  0
VERTEX
  8
Top
  10
29.24
  20
19.2
  42
0
  0
SEQEND
  0
POLYLINE
  8
Top
  6
CONTINUOUS
  66
1
  70
0
  40
0.165
  41
0.165
  0
VERTEX
  8
Top
  10
25.5375
  20
19.2
  42
1
  0
VERTEX
  8
Top
  10
25.7025
  20
19.2
  42
1
  0
VERTEX
  8
Top
  10
25.5375
  20
19.2
  42
1
  0
SEQEND
  0
POLYLINE
  8
Top
  6
CONTINUOUS
  66
1
  70
0
  40
0.165
  41
0.165
  0
VERTEX
  8
Top
  10
29.1575
  20
19.2
  42
1
  0
VERTEX
  8
Top
  10
29.3225
  20
19.2
  42
1
  0
VERTEX
  8
Top
  10
29.1575
  20
19.2
  42
1
  0
SEQEND
  0
POLYLINE
  8
Top
  6
CONTINUOUS
  66
1
  70
0
  40
0.33
  41
0.33
  0
VERTEX
  8
Top
  10
28.59
  20
10.0
  42
0
  0
VERTEX
  8
Top
  10
28.64
  20
10.0
  42
0
  0
SEQEND
  0
POLYLINE
  8
Top
  6
CONTINUOUS
  66
1
  70
0
  40
0.165
  41
0.165
  0
VERTEX
  8
Top
  10
28.5075
  20
10.0
  42
1
  0
VERTEX
  8
Top
  10
28.6725
  20
10.0
  42
1
  0
VERTEX
  8
Top
  10
28.5075
  20
10.0
  42
1
  0
SEQEND
  0
POLYLINE
  8
Top
  6
CONTINUOUS
  66
1
  70
0
  40
0.165
  41
0.165
  0
VERTEX
  8
Top
  10
28.5575
  20
10.0
  42
1
  0
VERTEX
  8
Top
  10
28.7225
  20
10.0
  42
1
  0
VERTEX
  8
Top
  10
28.5575
  20
10.0
  42
1
  0
SEQEND
  0
POLYLINE
  8
Top
  6
CONTINUOUS
  66
1
  70
0
  40
0.33
  41
0.33
  0
VERTEX
  8
Top
  10
28.64
  20
10.0
  42
0
  0
VERTEX
  8
Top
  10
28.64
  20
4.9
  42
0
  0
SEQEND
  0
POLYLINE
  8
Top
  6
CONTINUOUS
  66
1
  70
0
  40
0.165
  41
0.165
  0
VERTEX
  8
Top
  10
28.5575
  20
10.0
  42
1
  0
VERTEX
  8
Top
  10
28.7225
  20
10.0
  42
1
  0
VERTEX
  8
Top
  10
28.5575
  20
10.0
  42
1
  0
SEQEND
  0
POLYLINE
  8
Top
  6
CONTINUOUS
  66
1
  70
0
  40
0.165
  41
0.165
  0
VERTEX
  8
Top
  10
28.5575
  20
4.9
  42
1
  0
VERTEX
  8
Top
  10
28.7225
  20
4.9
  42
1
  0
VERTEX
  8
Top
  10
28.5575
  20
4.9
  42
1
  0
SEQEND
  0
POLYLINE
  8
Top
  6
CONTINUOUS
  66
1
  70
0
  40
0.33
  41
0.33
  0
VERTEX
  8
Top
  10
28.64
  20
4.9
  42
0
  0
VERTEX
  8
Top
  10
37.84
  20
4.9
  42
0
  0
SEQEND
  0
POLYLINE
  8
Top
  6
CONTINUOUS
  66
1
  70
0
  40
0.165
  41
0.165
  0
VERTEX
  8
Top
  10
28.5575
  20
4.9
  42
1
  0
VERTEX
  8
Top
  10
28.7225
  20
4.9
  42
1
  0
VERTEX
  8
Top
  10
28.5575
  20
4.9
  42
1
  0
SEQEND
  0
POLYLINE
  8
Top
  6
CONTINUOUS
  66
1
  70
0
  40
0.165
  41
0.165
  0
VERTEX
  8
Top
  10
37.7575
  20
4.9
  42
1
  0
VERTEX
  8
Top
  10
37.9225
  20
4.9
  42
1
  0
VERTEX
  8
Top
  10
37.7575
  20
4.9
  42
1
  0
SEQEND
  0
POLYLINE
  8
Top
  6
CONTINUOUS
  66
1
  70
0
  40
0.33
  41
0.33
  0
VERTEX
  8
Top
  10
37.84
  20
4.9
  42
0
  0
VERTEX
  8
Top
  10
37.84
  20
3.58
  42
0
  0
SEQEND
  0
POLYLINE
  8
Top
  6
CONTINUOUS
  66
1
  70
0
  40
0.165
  41
0.165
  0
VERTEX
  8
Top
  10
37.7575
  20
4.9
  42
1
  0
VERTEX
  8
Top
  10
37.9225
  20
4.9
  42
1
  0
VERTEX
  8
Top
  10
37.7575
  20
4.9
  42
1
  0
SEQEND
  0
POLYLINE
  8
Top
  6
CONTINUOUS
  66
1
  70
0
  40
0.165
  41
0.165
  0
VERTEX
  8
Top
  10
37.7575
  20
3.58
  42
1
  0
VERTEX
  8
Top
  10
37.9225
  20
3.58
  42
1
  0
VERTEX
  8
Top
  10
37.7575
  20
3.58
  42
1
  0
SEQEND
  0
POLYLINE
  8
Top
  6
CONTINUOUS
  66
1
  70
0
  40
0.33
  41
0.33
  0
VERTEX
  8
Top
  10
37.84
  20
3.58
  42
0
  0
VERTEX
  8
Top
  10
41.14
  20
3.58
  42
0
  0
SEQEND
  0
POLYLINE
  8
Top
  6
CONTINUOUS
  66
1
  70
0
  40
0.165
  41
0.165
  0
VERTEX
  8
Top
  10
37.7575
  20
3.58
  42
1
  0
VERTEX
  8
Top
  10
37.9225
  20
3.58
  42
1
  0
VERTEX
  8
Top
  10
37.7575
  20
3.58
  42
1
  0
SEQEND
  0
POLYLINE
  8
Top
  6
CONTINUOUS
  66
1
  70
0
  40
0.165
  41
0.165
  0
VERTEX
  8
Top
  10
41.0575
  20
3.58
  42
1
  0
VERTEX
  8
Top
  10
41.2225
  20
3.58
  42
1
  0
VERTEX
  8
Top
  10
41.0575
  20
3.58
  42
1
  0
SEQEND
  0
POLYLINE
  8
Top
  6
CONTINUOUS
  66
1
  70
0
  40
0.33
  41
0.33
  0
VERTEX
  8
Top
  10
29.89
  20
15.8
  42
0
  0
VERTEX
  8
Top
  10
29.89
  20
24.4
  42
0
  0
SEQEND
  0
POLYLINE
  8
Top
  6
CONTINUOUS
  66
1
  70
0
  40
0.165
  41
0.165
  0
VERTEX
  8
Top
  10
29.8075
  20
15.8
  42
1
  0
VERTEX
  8
Top
  10
29.9725
  20
15.8
  42
1
  0
VERTEX
  8
Top
  10
29.8075
  20
15.8
  42
1
  0
SEQEND
  0
POLYLINE
  8
Top
  6
CONTINUOUS
  66
1
  70
0
  40
0.165
  41
0.165
  0
VERTEX
  8
Top
  10
29.8075
  20
24.4
  42
1
  0
VERTEX
  8
Top
  10
29.9725
  20
24.4
  42
1
  0
VERTEX
  8
Top
  10
29.8075
  20
24.4
  42
1
  0
SEQEND
  0
POLYLINE
  8
Top
  6
CONTINUOUS
  66
1
  70
0
  40
0.33
  41
0.33
  0
VERTEX
  8
Top
  10
29.89
  20
24.4
  42
0
  0
VERTEX
  8
Top
  10
16.84
  20
24.4
  42
0
  0
SEQEND
  0
POLYLINE
  8
Top
  6
CONTINUOUS
  66
1
  70
0
  40
0.165
  41
0.165
  0
VERTEX
  8
Top
  10
29.8075
  20
24.4
  42
1
  0
VERTEX
  8
Top
  10
29.9725
  20
24.4
  42
1
  0
VERTEX
  8
Top
  10
29.8075
  20
24.4
  42
1
  0
SEQEND
  0
POLYLINE
  8
Top
  6
CONTINUOUS
  66
1
  70
0
  40
0.165
  41
0.165
  0
VERTEX
  8
Top
  10
16.7575
  20
24.4
  42
1
  0
VERTEX
  8
Top
  10
16.9225
  20
24.4
  42
1
  0
VERTEX
  8
Top
  10
16.7575
  20
24.4
  42
1
  0
SEQEND
  0
POLYLINE
  8
Top
  6
CONTINUOUS
  66
1
  70
0
  40
0.33
  41
0.33
  0
VERTEX
  8
Top
  10
16.84
  20
24.4
  42
0
  0
VERTEX
  8
Top
  10
16.84
  20
19.9
  42
0
  0
SEQEND
  0
POLYLINE
  8
Top
  6
CONTINUOUS
  66
1
  70
0
  40
0.165
  41
0.165
  0
VERTEX
  8
Top
  10
16.7575
  20
24.4
  42
1
  0
VERTEX
  8
Top
  10
16.9225
  20
24.4
  42
1
  0
VERTEX
  8
Top
  10
16.7575
  20
24.4
  42
1
  0
SEQEND
  0
POLYLINE
  8
Top
  6
CONTINUOUS
  66
1
  70
0
  40
0.165
  41
0.165
  0
VERTEX
  8
Top
  10
16.7575
  20
19.9
  42
1
  0
VERTEX
  8
Top
  10
16.9225
  20
19.9
  42
1
  0
VERTEX
  8
Top
  10
16.7575
  20
19.9
  42
1
  0
SEQEND
  0
POLYLINE
  8
Top
  6
CONTINUOUS
  66
1
  70
0
  40
0.33
  41
0.33
  0
VERTEX
  8
Top
  10
16.84
  20
19.9
  42
0
  0
VERTEX
  8
Top
  10
18.24
  20
19.9
  42
0
  0
SEQEND
  0
POLYLINE
  8
Top
  6
CONTINUOUS
  66
1
  70
0
  40
0.165
  41
0.165
  0
VERTEX
  8
Top
  10
16.7575
  20
19.9
  42
1
  0
VERTEX
  8
Top
  10
16.9225
  20
19.9
  42
1
  0
VERTEX
  8
Top
  10
16.7575
  20
19.9
  42
1
  0
SEQEND
  0
POLYLINE
  8
Top
  6
CONTINUOUS
  66
1
  70
0
  40
0.165
  41
0.165
  0
VERTEX
  8
Top
  10
18.1575
  20
19.9
  42
1
  0
VERTEX
  8
Top
  10
18.3225
  20
19.9
  42
1
  0
VERTEX
  8
Top
  10
18.1575
  20
19.9
  42
1
  0
SEQEND
  0
POLYLINE
  8
Top
  6
CONTINUOUS
  66
1
  70
0
  40
0.33
  41
0.33
  0
VERTEX
  8
Top
  10
18.24
  20
19.9
  42
0
  0
VERTEX
  8
Top
  10
18.56
  20
19.58
  42
0
  0
SEQEND
  0
POLYLINE
  8
Top
  6
CONTINUOUS
  66
1
  70
0
  40
0.165
  41
0.165
  0
VERTEX
  8
Top
  10
18.1575
  20
19.9
  42
1
  0
VERTEX
  8
Top
  10
18.3225
  20
19.9
  42
1
  0
VERTEX
  8
Top
  10
18.1575
  20
19.9
  42
1
  0
SEQEND
  0
POLYLINE
  8
Top
  6
CONTINUOUS
  66
1
  70
0
  40
0.165
  41
0.165
  0
VERTEX
  8
Top
  10
18.4775
  20
19.58
  42
1
  0
VERTEX
  8
Top
  10
18.6425
  20
19.58
  42
1
  0
VERTEX
  8
Top
  10
18.4775
  20
19.58
  42
1
  0
SEQEND
  0
POLYLINE
  8
Top
  6
CONTINUOUS
  66
1
  70
0
  40
0.33
  41
0.33
  0
VERTEX
  8
Top
  10
30.54
  20
15.8
  42
0
  0
VERTEX
  8
Top
  10
30.54
  20
25.1
  42
0
  0
SEQEND
  0
POLYLINE
  8
Top
  6
CONTINUOUS
  66
1
  70
0
  40
0.165
  41
0.165
  0
VERTEX
  8
Top
  10
30.4575
  20
15.8
  42
1
  0
VERTEX
  8
Top
  10
30.6225
  20
15.8
  42
1
  0
VERTEX
  8
Top
  10
30.4575
  20
15.8
  42
1
  0
SEQEND
  0
POLYLINE
  8
Top
  6
CONTINUOUS
  66
1
  70
0
  40
0.165
  41
0.165
  0
VERTEX
  8
Top
  10
30.4575
  20
25.1
  42
1
  0
VERTEX
  8
Top
  10
30.6225
  20
25.1
  42
1
  0
VERTEX
  8
Top
  10
30.4575
  20
25.1
  42
1
  0
SEQEND
  0
POLYLINE
  8
Top
  6
CONTINUOUS
  66
1
  70
0
  40
0.33
  41
0.33
  0
VERTEX
  8
Top
  10
30.54
  20
25.1
  42
0
  0
VERTEX
  8
Top
  10
30.34
  20
25.3
  42
0
  0
SEQEND
  0
POLYLINE
  8
Top
  6
CONTINUOUS
  66
1
  70
0
  40
0.165
  41
0.165
  0
VERTEX
  8
Top
  10
30.4575
  20
25.1
  42
1
  0
VERTEX
  8
Top
  10
30.6225
  20
25.1
  42
1
  0
VERTEX
  8
Top
  10
30.4575
  20
25.1
  42
1
  0
SEQEND
  0
POLYLINE
  8
Top
  6
CONTINUOUS
  66
1
  70
0
  40
0.165
  41
0.165
  0
VERTEX
  8
Top
  10
30.2575
  20
25.3
  42
1
  0
VERTEX
  8
Top
  10
30.4225
  20
25.3
  42
1
  0
VERTEX
  8
Top
  10
30.2575
  20
25.3
  42
1
  0
SEQEND
  0
POLYLINE
  8
Top
  6
CONTINUOUS
  66
1
  70
0
  40
0.33
  41
0.33
  0
VERTEX
  8
Top
  10
30.34
  20
25.3
  42
0
  0
VERTEX
  8
Top
  10
15.64
  20
25.3
  42
0
  0
SEQEND
  0
POLYLINE
  8
Top
  6
CONTINUOUS
  66
1
  70
0
  40
0.165
  41
0.165
  0
VERTEX
  8
Top
  10
30.2575
  20
25.3
  42
1
  0
VERTEX
  8
Top
  10
30.4225
  20
25.3
  42
1
  0
VERTEX
  8
Top
  10
30.2575
  20
25.3
  42
1
  0
SEQEND
  0
POLYLINE
  8
Top
  6
CONTINUOUS
  66
1
  70
0
  40
0.165
  41
0.165
  0
VERTEX
  8
Top
  10
15.5575
  20
25.3
  42
1
  0
VERTEX
  8
Top
  10
15.7225
  20
25.3
  42
1
  0
VERTEX
  8
Top
  10
15.5575
  20
25.3
  42
1
  0
SEQEND
  0
POLYLINE
  8
Top
  6
CONTINUOUS
  66
1
  70
0
  40
0.33
  41
0.33
  0
VERTEX
  8
Top
  10
15.64
  20
25.3
  42
0
  0
VERTEX
  8
Top
  10
15.64
  20
7.0
  42
0
  0
SEQEND
  0
POLYLINE
  8
Top
  6
CONTINUOUS
  66
1
  70
0
  40
0.165
  41
0.165
  0
VERTEX
  8
Top
  10
15.5575
  20
25.3
  42
1
  0
VERTEX
  8
Top
  10
15.7225
  20
25.3
  42
1
  0
VERTEX
  8
Top
  10
15.5575
  20
25.3
  42
1
  0
SEQEND
  0
POLYLINE
  8
Top
  6
CONTINUOUS
  66
1
  70
0
  40
0.165
  41
0.165
  0
VERTEX
  8
Top
  10
15.5575
  20
7.0
  42
1
  0
VERTEX
  8
Top
  10
15.7225
  20
7.0
  42
1
  0
VERTEX
  8
Top
  10
15.5575
  20
7.0
  42
1
  0
SEQEND
  0
POLYLINE
  8
Top
  6
CONTINUOUS
  66
1
  70
0
  40
0.33
  41
0.33
  0
VERTEX
  8
Top
  10
15.64
  20
7.0
  42
0
  0
VERTEX
  8
Top
  10
18.44
  20
7.0
  42
0
  0
SEQEND
  0
POLYLINE
  8
Top
  6
CONTINUOUS
  66
1
  70
0
  40
0.165
  41
0.165
  0
VERTEX
  8
Top
  10
15.5575
  20
7.0
  42
1
  0
VERTEX
  8
Top
  10
15.7225
  20
7.0
  42
1
  0
VERTEX
  8
Top
  10
15.5575
  20
7.0
  42
1
  0
SEQEND
  0
POLYLINE
  8
Top
  6
CONTINUOUS
  66
1
  70
0
  40
0.165
  41
0.165
  0
VERTEX
  8
Top
  10
18.3575
  20
7.0
  42
1
  0
VERTEX
  8
Top
  10
18.5225
  20
7.0
  42
1
  0
VERTEX
  8
Top
  10
18.3575
  20
7.0
  42
1
  0
SEQEND
  0
POLYLINE
  8
Top
  6
CONTINUOUS
  66
1
  70
0
  40
0.33
  41
0.33
  0
VERTEX
  8
Top
  10
18.44
  20
7.0
  42
0
  0
VERTEX
  8
Top
  10
18.56
  20
6.88
  42
0
  0
SEQEND
  0
POLYLINE
  8
Top
  6
CONTINUOUS
  66
1
  70
0
  40
0.165
  41
0.165
  0
VERTEX
  8
Top
  10
18.3575
  20
7.0
  42
1
  0
VERTEX
  8
Top
  10
18.5225
  20
7.0
  42
1
  0
VERTEX
  8
Top
  10
18.3575
  20
7.0
  42
1
  0
SEQEND
  0
POLYLINE
  8
Top
  6
CONTINUOUS
  66
1
  70
0
  40
0.165
  41
0.165
  0
VERTEX
  8
Top
  10
18.4775
  20
6.88
  42
1
  0
VERTEX
  8
Top
  10
18.6425
  20
6.88
  42
1
  0
VERTEX
  8
Top
  10
18.4775
  20
6.88
  42
1
  0
SEQEND
  0
POLYLINE
  8
Top
  6
CONTINUOUS
  66
1
  70
0
  40
0.33
  41
0.33
  0
VERTEX
  8
Top
  10
31.19
  20
15.8
  42
0
  0
VERTEX
  8
Top
  10
31.19
  20
26.3
  42
0
  0
SEQEND
  0
POLYLINE
  8
Top
  6
CONTINUOUS
  66
1
  70
0
  40
0.165
  41
0.165
  0
VERTEX
  8
Top
  10
31.1075
  20
15.8
  42
1
  0
VERTEX
  8
Top
  10
31.2725
  20
15.8
  42
1
  0
VERTEX
  8
Top
  10
31.1075
  20
15.8
  42
1
  0
SEQEND
  0
POLYLINE
  8
Top
  6
CONTINUOUS
  66
1
  70
0
  40
0.165
  41
0.165
  0
VERTEX
  8
Top
  10
31.1075
  20
26.3
  42
1
  0
VERTEX
  8
Top
  10
31.2725
  20
26.3
  42
1
  0
VERTEX
  8
Top
  10
31.1075
  20
26.3
  42
1
  0
SEQEND
  0
POLYLINE
  8
Top
  6
CONTINUOUS
  66
1
  70
0
  40
0.33
  41
0.33
  0
VERTEX
  8
Top
  10
31.19
  20
26.3
  42
0
  0
VERTEX
  8
Top
  10
14.34
  20
26.3
  42
0
  0
SEQEND
  0
POLYLINE
  8
Top
  6
CONTINUOUS
  66
1
  70
0
  40
0.165
  41
0.165
  0
VERTEX
  8
Top
  10
31.1075
  20
26.3
  42
1
  0
VERTEX
  8
Top
  10
31.2725
  20
26.3
  42
1
  0
VERTEX
  8
Top
  10
31.1075
  20
26.3
  42
1
  0
SEQEND
  0
POLYLINE
  8
Top
  6
CONTINUOUS
  66
1
  70
0
  40
0.165
  41
0.165
  0
VERTEX
  8
Top
  10
14.2575
  20
26.3
  42
1
  0
VERTEX
  8
Top
  10
14.4225
  20
26.3
  42
1
  0
VERTEX
  8
Top
  10
14.2575
  20
26.3
  42
1
  0
SEQEND
  0
POLYLINE
  8
Top
  6
CONTINUOUS
  66
1
  70
0
  40
0.33
  41
0.33
  0
VERTEX
  8
Top
  10
14.34
  20
26.3
  42
0
  0
VERTEX
  8
Top
  10
14.34
  20
6.8
  42
0
  0
SEQEND
  0
POLYLINE
  8
Top
  6
CONTINUOUS
  66
1
  70
0
  40
0.165
  41
0.165
  0
VERTEX
  8
Top
  10
14.2575
  20
26.3
  42
1
  0
VERTEX
  8
Top
  10
14.4225
  20
26.3
  42
1
  0
VERTEX
  8
Top
  10
14.2575
  20
26.3
  42
1
  0
SEQEND
  0
POLYLINE
  8
Top
  6
CONTINUOUS
  66
1
  70
0
  40
0.165
  41
0.165
  0
VERTEX
  8
Top
  10
14.2575
  20
6.8
  42
1
  0
VERTEX
  8
Top
  10
14.4225
  20
6.8
  42
1
  0
VERTEX
  8
Top
  10
14.2575
  20
6.8
  42
1
  0
SEQEND
  0
POLYLINE
  8
Top
  6
CONTINUOUS
  66
1
  70
0
  40
0.33
  41
0.33
  0
VERTEX
  8
Top
  10
14.34
  20
6.8
  42
0
  0
VERTEX
  8
Top
  10
11.02
  20
6.8
  42
0
  0
SEQEND
  0
POLYLINE
  8
Top
  6
CONTINUOUS
  66
1
  70
0
  40
0.165
  41
0.165
  0
VERTEX
  8
Top
  10
14.2575
  20
6.8
  42
1
  0
VERTEX
  8
Top
  10
14.4225
  20
6.8
  42
1
  0
VERTEX
  8
Top
  10
14.2575
  20
6.8
  42
1
  0
SEQEND
  0
POLYLINE
  8
Top
  6
CONTINUOUS
  66
1
  70
0
  40
0.165
  41
0.165
  0
VERTEX
  8
Top
  10
10.9375
  20
6.8
  42
1
  0
VERTEX
  8
Top
  10
11.1025
  20
6.8
  42
1
  0
VERTEX
  8
Top
  10
10.9375
  20
6.8
  42
1
  0
SEQEND
  0
POLYLINE
  8
Top
  6
CONTINUOUS
  66
1
  70
0
  40
0.33
  41
0.33
  0
VERTEX
  8
Top
  10
11.02
  20
6.8
  42
0
  0
VERTEX
  8
Top
  10
10.94
  20
6.88
  42
0
  0
SEQEND
  0
POLYLINE
  8
Top
  6
CONTINUOUS
  66
1
  70
0
  40
0.165
  41
0.165
  0
VERTEX
  8
Top
  10
10.9375
  20
6.8
  42
1
  0
VERTEX
  8
Top
  10
11.1025
  20
6.8
  42
1
  0
VERTEX
  8
Top
  10
10.9375
  20
6.8
  42
1
  0
SEQEND
  0
POLYLINE
  8
Top
  6
CONTINUOUS
  66
1
  70
0
  40
0.165
  41
0.165
  0
VERTEX
  8
Top
  10
10.8575
  20
6.88
  42
1
  0
VERTEX
  8
Top
  10
11.0225
  20
6.88
  42
1
  0
VERTEX
  8
Top
  10
10.8575
  20
6.88
  42
1
  0
SEQEND
  0
POLYLINE
  8
Top
  6
CONTINUOUS
  66
1
  70
0
  40
0.33
  41
0.33
  0
VERTEX
  8
Top
  10
21.45
  20
9.49
  42
0
  0
VERTEX
  8
Top
  10
18.63
  20
9.49
  42
0
  0
SEQEND
  0
POLYLINE
  8
Top
  6
CONTINUOUS
  66
1
  70
0
  40
0.165
  41
0.165
  0
VERTEX
  8
Top
  10
21.3675
  20
9.49
  42
1
  0
VERTEX
  8
Top
  10
21.5325
  20
9.49
  42
1
  0
VERTEX
  8
Top
  10
21.3675
  20
9.49
  42
1
  0
SEQEND
  0
POLYLINE
  8
Top
  6
CONTINUOUS
  66
1
  70
0
  40
0.165
  41
0.165
  0
VERTEX
  8
Top
  10
18.5475
  20
9.49
  42
1
  0
VERTEX
  8
Top
  10
18.7125
  20
9.49
  42
1
  0
VERTEX
  8
Top
  10
18.5475
  20
9.49
  42
1
  0
SEQEND
  0
POLYLINE
  8
Top
  6
CONTINUOUS
  66
1
  70
0
  40
0.33
  41
0.33
  0
VERTEX
  8
Top
  10
18.63
  20
9.49
  42
0
  0
VERTEX
  8
Top
  10
18.56
  20
9.42
  42
0
  0
SEQEND
  0
POLYLINE
  8
Top
  6
CONTINUOUS
  66
1
  70
0
  40
0.165
  41
0.165
  0
VERTEX
  8
Top
  10
18.5475
  20
9.49
  42
1
  0
VERTEX
  8
Top
  10
18.7125
  20
9.49
  42
1
  0
VERTEX
  8
Top
  10
18.5475
  20
9.49
  42
1
  0
SEQEND
  0
POLYLINE
  8
Top
  6
CONTINUOUS
  66
1
  70
0
  40
0.165
  41
0.165
  0
VERTEX
  8
Top
  10
18.4775
  20
9.42
  42
1
  0
VERTEX
  8
Top
  10
18.6425
  20
9.42
  42
1
  0
VERTEX
  8
Top
  10
18.4775
  20
9.42
  42
1
  0
SEQEND
  0
POLYLINE
  8
Top
  6
CONTINUOUS
  66
1
  70
0
  40
0.33
  41
0.33
  0
VERTEX
  8
Top
  10
31.84
  20
15.8
  42
0
  0
VERTEX
  8
Top
  10
31.84
  20
27.2
  42
0
  0
SEQEND
  0
POLYLINE
  8
Top
  6
CONTINUOUS
  66
1
  70
0
  40
0.165
  41
0.165
  0
VERTEX
  8
Top
  10
31.7575
  20
15.8
  42
1
  0
VERTEX
  8
Top
  10
31.9225
  20
15.8
  42
1
  0
VERTEX
  8
Top
  10
31.7575
  20
15.8
  42
1
  0
SEQEND
  0
POLYLINE
  8
Top
  6
CONTINUOUS
  66
1
  70
0
  40
0.165
  41
0.165
  0
VERTEX
  8
Top
  10
31.7575
  20
27.2
  42
1
  0
VERTEX
  8
Top
  10
31.9225
  20
27.2
  42
1
  0
VERTEX
  8
Top
  10
31.7575
  20
27.2
  42
1
  0
SEQEND
  0
POLYLINE
  8
Top
  6
CONTINUOUS
  66
1
  70
0
  40
0.33
  41
0.33
  0
VERTEX
  8
Top
  10
31.84
  20
27.2
  42
0
  0
VERTEX
  8
Top
  10
13.14
  20
27.2
  42
0
  0
SEQEND
  0
POLYLINE
  8
Top
  6
CONTINUOUS
  66
1
  70
0
  40
0.165
  41
0.165
  0
VERTEX
  8
Top
  10
31.7575
  20
27.2
  42
1
  0
VERTEX
  8
Top
  10
31.9225
  20
27.2
  42
1
  0
VERTEX
  8
Top
  10
31.7575
  20
27.2
  42
1
  0
SEQEND
  0
POLYLINE
  8
Top
  6
CONTINUOUS
  66
1
  70
0
  40
0.165
  41
0.165
  0
VERTEX
  8
Top
  10
13.0575
  20
27.2
  42
1
  0
VERTEX
  8
Top
  10
13.2225
  20
27.2
  42
1
  0
VERTEX
  8
Top
  10
13.0575
  20
27.2
  42
1
  0
SEQEND
  0
POLYLINE
  8
Top
  6
CONTINUOUS
  66
1
  70
0
  40
0.33
  41
0.33
  0
VERTEX
  8
Top
  10
13.14
  20
27.2
  42
0
  0
VERTEX
  8
Top
  10
13.14
  20
19.2
  42
0
  0
SEQEND
  0
POLYLINE
  8
Top
  6
CONTINUOUS
  66
1
  70
0
  40
0.165
  41
0.165
  0
VERTEX
  8
Top
  10
13.0575
  20
27.2
  42
1
  0
VERTEX
  8
Top
  10
13.2225
  20
27.2
  42
1
  0
VERTEX
  8
Top
  10
13.0575
  20
27.2
  42
1
  0
SEQEND
  0
POLYLINE
  8
Top
  6
CONTINUOUS
  66
1
  70
0
  40
0.165
  41
0.165
  0
VERTEX
  8
Top
  10
13.0575
  20
19.2
  42
1
  0
VERTEX
  8
Top
  10
13.2225
  20
19.2
  42
1
  0
VERTEX
  8
Top
  10
13.0575
  20
19.2
  42
1
  0
SEQEND
  0
POLYLINE
  8
Top
  6
CONTINUOUS
  66
1
  70
0
  40
0.33
  41
0.33
  0
VERTEX
  8
Top
  10
13.14
  20
19.2
  42
0
  0
VERTEX
  8
Top
  10
11.32
  20
19.2
  42
0
  0
SEQEND
  0
POLYLINE
  8
Top
  6
CONTINUOUS
  66
1
  70
0
  40
0.165
  41
0.165
  0
VERTEX
  8
Top
  10
13.0575
  20
19.2
  42
1
  0
VERTEX
  8
Top
  10
13.2225
  20
19.2
  42
1
  0
VERTEX
  8
Top
  10
13.0575
  20
19.2
  42
1
  0
SEQEND
  0
POLYLINE
  8
Top
  6
CONTINUOUS
  66
1
  70
0
  40
0.165
  41
0.165
  0
VERTEX
  8
Top
  10
11.2375
  20
19.2
  42
1
  0
VERTEX
  8
Top
  10
11.4025
  20
19.2
  42
1
  0
VERTEX
  8
Top
  10
11.2375
  20
19.2
  42
1
  0
SEQEND
  0
POLYLINE
  8
Top
  6
CONTINUOUS
  66
1
  70
0
  40
0.33
  41
0.33
  0
VERTEX
  8
Top
  10
11.32
  20
19.2
  42
0
  0
VERTEX
  8
Top
  10
10.94
  20
19.58
  42
0
  0
SEQEND
  0
POLYLINE
  8
Top
  6
CONTINUOUS
  66
1
  70
0
  40
0.165
  41
0.165
  0
VERTEX
  8
Top
  10
11.2375
  20
19.2
  42
1
  0
VERTEX
  8
Top
  10
11.4025
  20
19.2
  42
1
  0
VERTEX
  8
Top
  10
11.2375
  20
19.2
  42
1
  0
SEQEND
  0
POLYLINE
  8
Top
  6
CONTINUOUS
  66
1
  70
0
  40
0.165
  41
0.165
  0
VERTEX
  8
Top
  10
10.8575
  20
19.58
  42
1
  0
VERTEX
  8
Top
  10
11.0225
  20
19.58
  42
1
  0
VERTEX
  8
Top
  10
10.8575
  20
19.58
  42
1
  0
SEQEND
  0
POLYLINE
  8
Top
  6
CONTINUOUS
  66
1
  70
0
  40
0.33
  41
0.33
  0
VERTEX
  8
Top
  10
30.54
  20
10.0
  42
0
  0
VERTEX
  8
Top
  10
30.54
  20
12.1
  42
0
  0
SEQEND
  0
POLYLINE
  8
Top
  6
CONTINUOUS
  66
1
  70
0
  40
0.165
  41
0.165
  0
VERTEX
  8
Top
  10
30.4575
  20
10.0
  42
1
  0
VERTEX
  8
Top
  10
30.6225
  20
10.0
  42
1
  0
VERTEX
  8
Top
  10
30.4575
  20
10.0
  42
1
  0
SEQEND
  0
POLYLINE
  8
Top
  6
CONTINUOUS
  66
1
  70
0
  40
0.165
  41
0.165
  0
VERTEX
  8
Top
  10
30.4575
  20
12.1
  42
1
  0
VERTEX
  8
Top
  10
30.6225
  20
12.1
  42
1
  0
VERTEX
  8
Top
  10
30.4575
  20
12.1
  42
1
  0
SEQEND
  0
POLYLINE
  8
Top
  6
CONTINUOUS
  66
1
  70
0
  40
0.33
  41
0.33
  0
VERTEX
  8
Top
  10
30.54
  20
12.1
  42
0
  0
VERTEX
  8
Top
  10
24.44
  20
12.1
  42
0
  0
SEQEND
  0
POLYLINE
  8
Top
  6
CONTINUOUS
  66
1
  70
0
  40
0.165
  41
0.165
  0
VERTEX
  8
Top
  10
30.4575
  20
12.1
  42
1
  0
VERTEX
  8
Top
  10
30.6225
  20
12.1
  42
1
  0
VERTEX
  8
Top
  10
30.4575
  20
12.1
  42
1
  0
SEQEND
  0
POLYLINE
  8
Top
  6
CONTINUOUS
  66
1
  70
0
  40
0.165
  41
0.165
  0
VERTEX
  8
Top
  10
24.3575
  20
12.1
  42
1
  0
VERTEX
  8
Top
  10
24.5225
  20
12.1
  42
1
  0
VERTEX
  8
Top
  10
24.3575
  20
12.1
  42
1
  0
SEQEND
  0
POLYLINE
  8
Top
  6
CONTINUOUS
  66
1
  70
0
  40
0.33
  41
0.33
  0
VERTEX
  8
Top
  10
24.44
  20
12.1
  42
0
  0
VERTEX
  8
Top
  10
24.44
  20
2.4
  42
0
  0
SEQEND
  0
POLYLINE
  8
Top
  6
CONTINUOUS
  66
1
  70
0
  40
0.165
  41
0.165
  0
VERTEX
  8
Top
  10
24.3575
  20
12.1
  42
1
  0
VERTEX
  8
Top
  10
24.5225
  20
12.1
  42
1
  0
VERTEX
  8
Top
  10
24.3575
  20
12.1
  42
1
  0
SEQEND
  0
POLYLINE
  8
Top
  6
CONTINUOUS
  66
1
  70
0
  40
0.165
  41
0.165
  0
VERTEX
  8
Top
  10
24.3575
  20
2.4
  42
1
  0
VERTEX
  8
Top
  10
24.5225
  20
2.4
  42
1
  0
VERTEX
  8
Top
  10
24.3575
  20
2.4
  42
1
  0
SEQEND
  0
POLYLINE
  8
Top
  6
CONTINUOUS
  66
1
  70
0
  40
0.33
  41
0.33
  0
VERTEX
  8
Top
  10
24.44
  20
2.4
  42
0
  0
VERTEX
  8
Top
  10
4.34
  20
2.4
  42
0
  0
SEQEND
  0
POLYLINE
  8
Top
  6
CONTINUOUS
  66
1
  70
0
  40
0.165
  41
0.165
  0
VERTEX
  8
Top
  10
24.3575
  20
2.4
  42
1
  0
VERTEX
  8
Top
  10
24.5225
  20
2.4
  42
1
  0
VERTEX
  8
Top
  10
24.3575
  20
2.4
  42
1
  0
SEQEND
  0
POLYLINE
  8
Top
  6
CONTINUOUS
  66
1
  70
0
  40
0.165
  41
0.165
  0
VERTEX
  8
Top
  10
4.2575
  20
2.4
  42
1
  0
VERTEX
  8
Top
  10
4.4225
  20
2.4
  42
1
  0
VERTEX
  8
Top
  10
4.2575
  20
2.4
  42
1
  0
SEQEND
  0
POLYLINE
  8
Top
  6
CONTINUOUS
  66
1
  70
0
  40
0.33
  41
0.33
  0
VERTEX
  8
Top
  10
4.34
  20
2.4
  42
0
  0
VERTEX
  8
Top
  10
4.34
  20
22.6
  42
0
  0
SEQEND
  0
POLYLINE
  8
Top
  6
CONTINUOUS
  66
1
  70
0
  40
0.165
  41
0.165
  0
VERTEX
  8
Top
  10
4.2575
  20
2.4
  42
1
  0
VERTEX
  8
Top
  10
4.4225
  20
2.4
  42
1
  0
VERTEX
  8
Top
  10
4.2575
  20
2.4
  42
1
  0
SEQEND
  0
POLYLINE
  8
Top
  6
CONTINUOUS
  66
1
  70
0
  40
0.165
  41
0.165
  0
VERTEX
  8
Top
  10
4.2575
  20
22.6
  42
1
  0
VERTEX
  8
Top
  10
4.4225
  20
22.6
  42
1
  0
VERTEX
  8
Top
  10
4.2575
  20
22.6
  42
1
  0
SEQEND
  0
POLYLINE
  8
Top
  6
CONTINUOUS
  66
1
  70
0
  40
0.33
  41
0.33
  0
VERTEX
  8
Top
  10
4.34
  20
22.6
  42
0
  0
VERTEX
  8
Top
  10
10.46
  20
22.6
  42
0
  0
SEQEND
  0
POLYLINE
  8
Top
  6
CONTINUOUS
  66
1
  70
0
  40
0.165
  41
0.165
  0
VERTEX
  8
Top
  10
4.2575
  20
22.6
  42
1
  0
VERTEX
  8
Top
  10
4.4225
  20
22.6
  42
1
  0
VERTEX
  8
Top
  10
4.2575
  20
22.6
  42
1
  0
SEQEND
  0
POLYLINE
  8
Top
  6
CONTINUOUS
  66
1
  70
0
  40
0.165
  41
0.165
  0
VERTEX
  8
Top
  10
10.3775
  20
22.6
  42
1
  0
VERTEX
  8
Top
  10
10.5425
  20
22.6
  42
1
  0
VERTEX
  8
Top
  10
10.3775
  20
22.6
  42
1
  0
SEQEND
  0
POLYLINE
  8
Top
  6
CONTINUOUS
  66
1
  70
0
  40
0.33
  41
0.33
  0
VERTEX
  8
Top
  10
10.46
  20
22.6
  42
0
  0
VERTEX
  8
Top
  10
10.94
  20
22.12
  42
0
  0
SEQEND
  0
POLYLINE
  8
Top
  6
CONTINUOUS
  66
1
  70
0
  40
0.165
  41
0.165
  0
VERTEX
  8
Top
  10
10.3775
  20
22.6
  42
1
  0
VERTEX
  8
Top
  10
10.5425
  20
22.6
  42
1
  0
VERTEX
  8
Top
  10
10.3775
  20
22.6
  42
1
  0
SEQEND
  0
POLYLINE
  8
Top
  6
CONTINUOUS
  66
1
  70
0
  40
0.165
  41
0.165
  0
VERTEX
  8
Top
  10
10.8575
  20
22.12
  42
1
  0
VERTEX
  8
Top
  10
11.0225
  20
22.12
  42
1
  0
VERTEX
  8
Top
  10
10.8575
  20
22.12
  42
1
  0
SEQEND
  0
POLYLINE
  8
Top
  6
CONTINUOUS
  66
1
  70
0
  40
0.33
  41
0.33
  0
VERTEX
  8
Top
  10
27.94
  20
10.0
  42
0
  0
VERTEX
  8
Top
  10
27.94
  20
2.82
  42
0
  0
SEQEND
  0
POLYLINE
  8
Top
  6
CONTINUOUS
  66
1
  70
0
  40
0.165
  41
0.165
  0
VERTEX
  8
Top
  10
27.8575
  20
10.0
  42
1
  0
VERTEX
  8
Top
  10
28.0225
  20
10.0
  42
1
  0
VERTEX
  8
Top
  10
27.8575
  20
10.0
  42
1
  0
SEQEND
  0
POLYLINE
  8
Top
  6
CONTINUOUS
  66
1
  70
0
  40
0.165
  41
0.165
  0
VERTEX
  8
Top
  10
27.8575
  20
2.82
  42
1
  0
VERTEX
  8
Top
  10
28.0225
  20
2.82
  42
1
  0
VERTEX
  8
Top
  10
27.8575
  20
2.82
  42
1
  0
SEQEND
  0
POLYLINE
  8
Top
  6
CONTINUOUS
  66
1
  70
0
  40
0.33
  41
0.33
  0
VERTEX
  8
Top
  10
27.94
  20
2.82
  42
0
  0
VERTEX
  8
Top
  10
27.82
  20
2.7
  42
0
  0
SEQEND
  0
POLYLINE
  8
Top
  6
CONTINUOUS
  66
1
  70
0
  40
0.165
  41
0.165
  0
VERTEX
  8
Top
  10
27.8575
  20
2.82
  42
1
  0
VERTEX
  8
Top
  10
28.0225
  20
2.82
  42
1
  0
VERTEX
  8
Top
  10
27.8575
  20
2.82
  42
1
  0
SEQEND
  0
POLYLINE
  8
Top
  6
CONTINUOUS
  66
1
  70
0
  40
0.165
  41
0.165
  0
VERTEX
  8
Top
  10
27.7375
  20
2.7
  42
1
  0
VERTEX
  8
Top
  10
27.9025
  20
2.7
  42
1
  0
VERTEX
  8
Top
  10
27.7375
  20
2.7
  42
1
  0
SEQEND
  0
POLYLINE
  8
Top
  6
CONTINUOUS
  66
1
  70
0
  40
0.33
  41
0.33
  0
VERTEX
  8
Top
  10
29.89
  20
10.0
  42
0
  0
VERTEX
  8
Top
  10
29.89
  20
7.7
  42
0
  0
SEQEND
  0
POLYLINE
  8
Top
  6
CONTINUOUS
  66
1
  70
0
  40
0.165
  41
0.165
  0
VERTEX
  8
Top
  10
29.8075
  20
10.0
  42
1
  0
VERTEX
  8
Top
  10
29.9725
  20
10.0
  42
1
  0
VERTEX
  8
Top
  10
29.8075
  20
10.0
  42
1
  0
SEQEND
  0
POLYLINE
  8
Top
  6
CONTINUOUS
  66
1
  70
0
  40
0.165
  41
0.165
  0
VERTEX
  8
Top
  10
29.8075
  20
7.7
  42
1
  0
VERTEX
  8
Top
  10
29.9725
  20
7.7
  42
1
  0
VERTEX
  8
Top
  10
29.8075
  20
7.7
  42
1
  0
SEQEND
  0
POLYLINE
  8
Top
  6
CONTINUOUS
  66
1
  70
0
  40
0.33
  41
0.33
  0
VERTEX
  8
Top
  10
29.89
  20
7.7
  42
0
  0
VERTEX
  8
Top
  10
35.34
  20
7.7
  42
0
  0
SEQEND
  0
POLYLINE
  8
Top
  6
CONTINUOUS
  66
1
  70
0
  40
0.165
  41
0.165
  0
VERTEX
  8
Top
  10
29.8075
  20
7.7
  42
1
  0
VERTEX
  8
Top
  10
29.9725
  20
7.7
  42
1
  0
VERTEX
  8
Top
  10
29.8075
  20
7.7
  42
1
  0
SEQEND
  0
POLYLINE
  8
Top
  6
CONTINUOUS
  66
1
  70
0
  40
0.165
  41
0.165
  0
VERTEX
  8
Top
  10
35.2575
  20
7.7
  42
1
  0
VERTEX
  8
Top
  10
35.4225
  20
7.7
  42
1
  0
VERTEX
  8
Top
  10
35.2575
  20
7.7
  42
1
  0
SEQEND
  0
POLYLINE
  8
Top
  6
CONTINUOUS
  66
1
  70
0
  40
0.33
  41
0.33
  0
VERTEX
  8
Top
  10
33.79
  20
10.0
  42
0
  0
VERTEX
  8
Top
  10
33.79
  20
11.2
  42
0
  0
SEQEND
  0
POLYLINE
  8
Top
  6
CONTINUOUS
  66
1
  70
0
  40
0.165
  41
0.165
  0
VERTEX
  8
Top
  10
33.7075
  20
10.0
  42
1
  0
VERTEX
  8
Top
  10
33.8725
  20
10.0
  42
1
  0
VERTEX
  8
Top
  10
33.7075
  20
10.0
  42
1
  0
SEQEND
  0
POLYLINE
  8
Top
  6
CONTINUOUS
  66
1
  70
0
  40
0.165
  41
0.165
  0
VERTEX
  8
Top
  10
33.7075
  20
11.2
  42
1
  0
VERTEX
  8
Top
  10
33.8725
  20
11.2
  42
1
  0
VERTEX
  8
Top
  10
33.7075
  20
11.2
  42
1
  0
SEQEND
  0
POLYLINE
  8
Top
  6
CONTINUOUS
  66
1
  70
0
  40
0.33
  41
0.33
  0
VERTEX
  8
Top
  10
33.79
  20
11.2
  42
0
  0
VERTEX
  8
Top
  10
39.34
  20
11.2
  42
0
  0
SEQEND
  0
POLYLINE
  8
Top
  6
CONTINUOUS
  66
1
  70
0
  40
0.165
  41
0.165
  0
VERTEX
  8
Top
  10
33.7075
  20
11.2
  42
1
  0
VERTEX
  8
Top
  10
33.8725
  20
11.2
  42
1
  0
VERTEX
  8
Top
  10
33.7075
  20
11.2
  42
1
  0
SEQEND
  0
POLYLINE
  8
Top
  6
CONTINUOUS
  66
1
  70
0
  40
0.165
  41
0.165
  0
VERTEX
  8
Top
  10
39.2575
  20
11.2
  42
1
  0
VERTEX
  8
Top
  10
39.4225
  20
11.2
  42
1
  0
VERTEX
  8
Top
  10
39.2575
  20
11.2
  42
1
  0
SEQEND
  0
POLYLINE
  8
Top
  6
CONTINUOUS
  66
1
  70
0
  40
0.33
  41
0.33
  0
VERTEX
  8
Top
  10
39.34
  20
11.2
  42
0
  0
VERTEX
  8
Top
  10
39.34
  20
14.1
  42
0
  0
SEQEND
  0
POLYLINE
  8
Top
  6
CONTINUOUS
  66
1
  70
0
  40
0.165
  41
0.165
  0
VERTEX
  8
Top
  10
39.2575
  20
11.2
  42
1
  0
VERTEX
  8
Top
  10
39.4225
  20
11.2
  42
1
  0
VERTEX
  8
Top
  10
39.2575
  20
11.2
  42
1
  0
SEQEND
  0
POLYLINE
  8
Top
  6
CONTINUOUS
  66
1
  70
0
  40
0.165
  41
0.165
  0
VERTEX
  8
Top
  10
39.2575
  20
14.1
  42
1
  0
VERTEX
  8
Top
  10
39.4225
  20
14.1
  42
1
  0
VERTEX
  8
Top
  10
39.2575
  20
14.1
  42
1
  0
SEQEND
  0
POLYLINE
  8
Top
  6
CONTINUOUS
  66
1
  70
0
  40
0.33
  41
0.33
  0
VERTEX
  8
Top
  10
39.34
  20
14.1
  42
0
  0
VERTEX
  8
Top
  10
43.24
  20
14.1
  42
0
  0
SEQEND
  0
POLYLINE
  8
Top
  6
CONTINUOUS
  66
1
  70
0
  40
0.165
  41
0.165
  0
VERTEX
  8
Top
  10
39.2575
  20
14.1
  42
1
  0
VERTEX
  8
Top
  10
39.4225
  20
14.1
  42
1
  0
VERTEX
  8
Top
  10
39.2575
  20
14.1
  42
1
  0
SEQEND
  0
POLYLINE
  8
Top
  6
CONTINUOUS
  66
1
  70
0
  40
0.165
  41
0.165
  0
VERTEX
  8
Top
  10
43.1575
  20
14.1
  42
1
  0
VERTEX
  8
Top
  10
43.3225
  20
14.1
  42
1
  0
VERTEX
  8
Top
  10
43.1575
  20
14.1
  42
1
  0
SEQEND
  0
POLYLINE
  8
Top
  6
CONTINUOUS
  66
1
  70
0
  40
0.33
  41
0.33
  0
VERTEX
  8
Top
  10
43.24
  20
14.1
  42
0
  0
VERTEX
  8
Top
  10
43.24
  20
1.5
  42
0
  0
SEQEND
  0
POLYLINE
  8
Top
  6
CONTINUOUS
  66
1
  70
0
  40
0.165
  41
0.165
  0
VERTEX
  8
Top
  10
43.1575
  20
14.1
  42
1
  0
VERTEX
  8
Top
  10
43.3225
  20
14.1
  42
1
  0
VERTEX
  8
Top
  10
43.1575
  20
14.1
  42
1
  0
SEQEND
  0
POLYLINE
  8
Top
  6
CONTINUOUS
  66
1
  70
0
  40
0.165
  41
0.165
  0
VERTEX
  8
Top
  10
43.1575
  20
1.5
  42
1
  0
VERTEX
  8
Top
  10
43.3225
  20
1.5
  42
1
  0
VERTEX
  8
Top
  10
43.1575
  20
1.5
  42
1
  0
SEQEND
  0
POLYLINE
  8
Top
  6
CONTINUOUS
  66
1
  70
0
  40
0.33
  41
0.33
  0
VERTEX
  8
Top
  10
43.24
  20
1.5
  42
0
  0
VERTEX
  8
Top
  10
36.64
  20
1.5
  42
0
  0
SEQEND
  0
POLYLINE
  8
Top
  6
CONTINUOUS
  66
1
  70
0
  40
0.165
  41
0.165
  0
VERTEX
  8
Top
  10
43.1575
  20
1.5
  42
1
  0
VERTEX
  8
Top
  10
43.3225
  20
1.5
  42
1
  0
VERTEX
  8
Top
  10
43.1575
  20
1.5
  42
1
  0
SEQEND
  0
POLYLINE
  8
Top
  6
CONTINUOUS
  66
1
  70
0
  40
0.165
  41
0.165
  0
VERTEX
  8
Top
  10
36.5575
  20
1.5
  42
1
  0
VERTEX
  8
Top
  10
36.7225
  20
1.5
  42
1
  0
VERTEX
  8
Top
  10
36.5575
  20
1.5
  42
1
  0
SEQEND
  0
POLYLINE
  8
Top
  6
CONTINUOUS
  66
1
  70
0
  40
0.33
  41
0.33
  0
VERTEX
  8
Top
  10
36.64
  20
1.5
  42
0
  0
VERTEX
  8
Top
  10
35.44
  20
2.7
  42
0
  0
SEQEND
  0
POLYLINE
  8
Top
  6
CONTINUOUS
  66
1
  70
0
  40
0.165
  41
0.165
  0
VERTEX
  8
Top
  10
36.5575
  20
1.5
  42
1
  0
VERTEX
  8
Top
  10
36.7225
  20
1.5
  42
1
  0
VERTEX
  8
Top
  10
36.5575
  20
1.5
  42
1
  0
SEQEND
  0
POLYLINE
  8
Top
  6
CONTINUOUS
  66
1
  70
0
  40
0.165
  41
0.165
  0
VERTEX
  8
Top
  10
35.3575
  20
2.7
  42
1
  0
VERTEX
  8
Top
  10
35.5225
  20
2.7
  42
1
  0
VERTEX
  8
Top
  10
35.3575
  20
2.7
  42
1
  0
SEQEND
  0
POLYLINE
  8
Top
  6
CONTINUOUS
  66
1
  70
0
  40
0.33
  41
0.33
  0
VERTEX
  8
Top
  10
33.79
  20
15.8002
  42
0
  0
VERTEX
  8
Top
  10
33.79
  20
22.45
  42
0
  0
SEQEND
  0
POLYLINE
  8
Top
  6
CONTINUOUS
  66
1
  70
0
  40
0.165
  41
0.165
  0
VERTEX
  8
Top
  10
33.7075
  20
15.8002
  42
1
  0
VERTEX
  8
Top
  10
33.8725
  20
15.8002
  42
1
  0
VERTEX
  8
Top
  10
33.7075
  20
15.8002
  42
1
  0
SEQEND
  0
POLYLINE
  8
Top
  6
CONTINUOUS
  66
1
  70
0
  40
0.165
  41
0.165
  0
VERTEX
  8
Top
  10
33.7075
  20
22.45
  42
1
  0
VERTEX
  8
Top
  10
33.8725
  20
22.45
  42
1
  0
VERTEX
  8
Top
  10
33.7075
  20
22.45
  42
1
  0
SEQEND
  0
POLYLINE
  8
Top
  6
CONTINUOUS
  66
1
  70
0
  40
0.33
  41
0.33
  0
VERTEX
  8
Top
  10
33.79
  20
22.45
  42
0
  0
VERTEX
  8
Top
  10
33.74
  20
22.5
  42
0
  0
SEQEND
  0
POLYLINE
  8
Top
  6
CONTINUOUS
  66
1
  70
0
  40
0.165
  41
0.165
  0
VERTEX
  8
Top
  10
33.7075
  20
22.45
  42
1
  0
VERTEX
  8
Top
  10
33.8725
  20
22.45
  42
1
  0
VERTEX
  8
Top
  10
33.7075
  20
22.45
  42
1
  0
SEQEND
  0
POLYLINE
  8
Top
  6
CONTINUOUS
  66
1
  70
0
  40
0.165
  41
0.165
  0
VERTEX
  8
Top
  10
33.6575
  20
22.5
  42
1
  0
VERTEX
  8
Top
  10
33.8225
  20
22.5
  42
1
  0
VERTEX
  8
Top
  10
33.6575
  20
22.5
  42
1
  0
SEQEND
  0
POLYLINE
  8
Top
  6
CONTINUOUS
  66
1
  70
0
  40
0.33
  41
0.33
  0
VERTEX
  8
Top
  10
33.74
  20
22.5
  42
0
  0
VERTEX
  8
Top
  10
40.92
  20
22.5
  42
0
  0
SEQEND
  0
POLYLINE
  8
Top
  6
CONTINUOUS
  66
1
  70
0
  40
0.165
  41
0.165
  0
VERTEX
  8
Top
  10
33.6575
  20
22.5
  42
1
  0
VERTEX
  8
Top
  10
33.8225
  20
22.5
  42
1
  0
VERTEX
  8
Top
  10
33.6575
  20
22.5
  42
1
  0
SEQEND
  0
POLYLINE
  8
Top
  6
CONTINUOUS
  66
1
  70
0
  40
0.165
  41
0.165
  0
VERTEX
  8
Top
  10
40.8375
  20
22.5
  42
1
  0
VERTEX
  8
Top
  10
41.0025
  20
22.5
  42
1
  0
VERTEX
  8
Top
  10
40.8375
  20
22.5
  42
1
  0
SEQEND
  0
POLYLINE
  8
Top
  6
CONTINUOUS
  66
1
  70
0
  40
0.33
  41
0.33
  0
VERTEX
  8
Top
  10
40.92
  20
22.5
  42
0
  0
VERTEX
  8
Top
  10
41.02
  20
22.4
  42
0
  0
SEQEND
  0
POLYLINE
  8
Top
  6
CONTINUOUS
  66
1
  70
0
  40
0.165
  41
0.165
  0
VERTEX
  8
Top
  10
40.8375
  20
22.5
  42
1
  0
VERTEX
  8
Top
  10
41.0025
  20
22.5
  42
1
  0
VERTEX
  8
Top
  10
40.8375
  20
22.5
  42
1
  0
SEQEND
  0
POLYLINE
  8
Top
  6
CONTINUOUS
  66
1
  70
0
  40
0.165
  41
0.165
  0
VERTEX
  8
Top
  10
40.9375
  20
22.4
  42
1
  0
VERTEX
  8
Top
  10
41.1025
  20
22.4
  42
1
  0
VERTEX
  8
Top
  10
40.9375
  20
22.4
  42
1
  0
SEQEND
  0
POLYLINE
  8
Top
  6
CONTINUOUS
  66
1
  70
0
  40
0.33
  41
0.33
  0
VERTEX
  8
Top
  10
33.14
  20
15.8
  42
0
  0
VERTEX
  8
Top
  10
33.14
  20
25.1
  42
0
  0
SEQEND
  0
POLYLINE
  8
Top
  6
CONTINUOUS
  66
1
  70
0
  40
0.165
  41
0.165
  0
VERTEX
  8
Top
  10
33.0575
  20
15.8
  42
1
  0
VERTEX
  8
Top
  10
33.2225
  20
15.8
  42
1
  0
VERTEX
  8
Top
  10
33.0575
  20
15.8
  42
1
  0
SEQEND
  0
POLYLINE
  8
Top
  6
CONTINUOUS
  66
1
  70
0
  40
0.165
  41
0.165
  0
VERTEX
  8
Top
  10
33.0575
  20
25.1
  42
1
  0
VERTEX
  8
Top
  10
33.2225
  20
25.1
  42
1
  0
VERTEX
  8
Top
  10
33.0575
  20
25.1
  42
1
  0
SEQEND
  0
POLYLINE
  8
Top
  6
CONTINUOUS
  66
1
  70
0
  40
0.33
  41
0.33
  0
VERTEX
  8
Top
  10
33.14
  20
25.1
  42
0
  0
VERTEX
  8
Top
  10
33.24
  20
25.2
  42
0
  0
SEQEND
  0
POLYLINE
  8
Top
  6
CONTINUOUS
  66
1
  70
0
  40
0.165
  41
0.165
  0
VERTEX
  8
Top
  10
33.0575
  20
25.1
  42
1
  0
VERTEX
  8
Top
  10
33.2225
  20
25.1
  42
1
  0
VERTEX
  8
Top
  10
33.0575
  20
25.1
  42
1
  0
SEQEND
  0
POLYLINE
  8
Top
  6
CONTINUOUS
  66
1
  70
0
  40
0.165
  41
0.165
  0
VERTEX
  8
Top
  10
33.1575
  20
25.2
  42
1
  0
VERTEX
  8
Top
  10
33.3225
  20
25.2
  42
1
  0
VERTEX
  8
Top
  10
33.1575
  20
25.2
  42
1
  0
SEQEND
  0
POLYLINE
  8
Top
  6
CONTINUOUS
  66
1
  70
0
  40
0.33
  41
0.33
  0
VERTEX
  8
Top
  10
33.24
  20
25.2
  42
0
  0
VERTEX
  8
Top
  10
40.76
  20
25.2
  42
0
  0
SEQEND
  0
POLYLINE
  8
Top
  6
CONTINUOUS
  66
1
  70
0
  40
0.165
  41
0.165
  0
VERTEX
  8
Top
  10
33.1575
  20
25.2
  42
1
  0
VERTEX
  8
Top
  10
33.3225
  20
25.2
  42
1
  0
VERTEX
  8
Top
  10
33.1575
  20
25.2
  42
1
  0
SEQEND
  0
POLYLINE
  8
Top
  6
CONTINUOUS
  66
1
  70
0
  40
0.165
  41
0.165
  0
VERTEX
  8
Top
  10
40.6775
  20
25.2
  42
1
  0
VERTEX
  8
Top
  10
40.8425
  20
25.2
  42
1
  0
VERTEX
  8
Top
  10
40.6775
  20
25.2
  42
1
  0
SEQEND
  0
POLYLINE
  8
Top
  6
CONTINUOUS
  66
1
  70
0
  40
0.33
  41
0.33
  0
VERTEX
  8
Top
  10
40.76
  20
25.2
  42
0
  0
VERTEX
  8
Top
  10
41.02
  20
24.94
  42
0
  0
SEQEND
  0
POLYLINE
  8
Top
  6
CONTINUOUS
  66
1
  70
0
  40
0.165
  41
0.165
  0
VERTEX
  8
Top
  10
40.6775
  20
25.2
  42
1
  0
VERTEX
  8
Top
  10
40.8425
  20
25.2
  42
1
  0
VERTEX
  8
Top
  10
40.6775
  20
25.2
  42
1
  0
SEQEND
  0
POLYLINE
  8
Top
  6
CONTINUOUS
  66
1
  70
0
  40
0.165
  41
0.165
  0
VERTEX
  8
Top
  10
40.9375
  20
24.94
  42
1
  0
VERTEX
  8
Top
  10
41.1025
  20
24.94
  42
1
  0
VERTEX
  8
Top
  10
40.9375
  20
24.94
  42
1
  0
SEQEND
  0
POLYLINE
  8
Top
  6
CONTINUOUS
  66
1
  70
0
  40
0.33
  41
0.33
  0
VERTEX
  8
Top
  10
32.49
  20
15.8
  42
0
  0
VERTEX
  8
Top
  10
32.49
  20
26.95
  42
0
  0
SEQEND
  0
POLYLINE
  8
Top
  6
CONTINUOUS
  66
1
  70
0
  40
0.165
  41
0.165
  0
VERTEX
  8
Top
  10
32.4075
  20
15.8
  42
1
  0
VERTEX
  8
Top
  10
32.5725
  20
15.8
  42
1
  0
VERTEX
  8
Top
  10
32.4075
  20
15.8
  42
1
  0
SEQEND
  0
POLYLINE
  8
Top
  6
CONTINUOUS
  66
1
  70
0
  40
0.165
  41
0.165
  0
VERTEX
  8
Top
  10
32.4075
  20
26.95
  42
1
  0
VERTEX
  8
Top
  10
32.5725
  20
26.95
  42
1
  0
VERTEX
  8
Top
  10
32.4075
  20
26.95
  42
1
  0
SEQEND
  0
POLYLINE
  8
Top
  6
CONTINUOUS
  66
1
  70
0
  40
0.33
  41
0.33
  0
VERTEX
  8
Top
  10
32.49
  20
26.95
  42
0
  0
VERTEX
  8
Top
  10
32.64
  20
27.1
  42
0
  0
SEQEND
  0
POLYLINE
  8
Top
  6
CONTINUOUS
  66
1
  70
0
  40
0.165
  41
0.165
  0
VERTEX
  8
Top
  10
32.4075
  20
26.95
  42
1
  0
VERTEX
  8
Top
  10
32.5725
  20
26.95
  42
1
  0
VERTEX
  8
Top
  10
32.4075
  20
26.95
  42
1
  0
SEQEND
  0
POLYLINE
  8
Top
  6
CONTINUOUS
  66
1
  70
0
  40
0.165
  41
0.165
  0
VERTEX
  8
Top
  10
32.5575
  20
27.1
  42
1
  0
VERTEX
  8
Top
  10
32.7225
  20
27.1
  42
1
  0
VERTEX
  8
Top
  10
32.5575
  20
27.1
  42
1
  0
SEQEND
  0
POLYLINE
  8
Top
  6
CONTINUOUS
  66
1
  70
0
  40
0.33
  41
0.33
  0
VERTEX
  8
Top
  10
32.64
  20
27.1
  42
0
  0
VERTEX
  8
Top
  10
44.34
  20
27.1
  42
0
  0
SEQEND
  0
POLYLINE
  8
Top
  6
CONTINUOUS
  66
1
  70
0
  40
0.165
  41
0.165
  0
VERTEX
  8
Top
  10
32.5575
  20
27.1
  42
1
  0
VERTEX
  8
Top
  10
32.7225
  20
27.1
  42
1
  0
VERTEX
  8
Top
  10
32.5575
  20
27.1
  42
1
  0
SEQEND
  0
POLYLINE
  8
Top
  6
CONTINUOUS
  66
1
  70
0
  40
0.165
  41
0.165
  0
VERTEX
  8
Top
  10
44.2575
  20
27.1
  42
1
  0
VERTEX
  8
Top
  10
44.4225
  20
27.1
  42
1
  0
VERTEX
  8
Top
  10
44.2575
  20
27.1
  42
1
  0
SEQEND
  0
POLYLINE
  8
Top
  6
CONTINUOUS
  66
1
  70
0
  40
0.33
  41
0.33
  0
VERTEX
  8
Top
  10
44.34
  20
27.1
  42
0
  0
VERTEX
  8
Top
  10
44.34
  20
1.0
  42
0
  0
SEQEND
  0
POLYLINE
  8
Top
  6
CONTINUOUS
  66
1
  70
0
  40
0.165
  41
0.165
  0
VERTEX
  8
Top
  10
44.2575
  20
27.1
  42
1
  0
VERTEX
  8
Top
  10
44.4225
  20
27.1
  42
1
  0
VERTEX
  8
Top
  10
44.2575
  20
27.1
  42
1
  0
SEQEND
  0
POLYLINE
  8
Top
  6
CONTINUOUS
  66
1
  70
0
  40
0.165
  41
0.165
  0
VERTEX
  8
Top
  10
44.2575
  20
1.0
  42
1
  0
VERTEX
  8
Top
  10
44.4225
  20
1.0
  42
1
  0
VERTEX
  8
Top
  10
44.2575
  20
1.0
  42
1
  0
SEQEND
  0
POLYLINE
  8
Top
  6
CONTINUOUS
  66
1
  70
0
  40
0.33
  41
0.33
  0
VERTEX
  8
Top
  10
44.34
  20
1.0
  42
0
  0
VERTEX
  8
Top
  10
43.74
  20
0.4
  42
0
  0
SEQEND
  0
POLYLINE
  8
Top
  6
CONTINUOUS
  66
1
  70
0
  40
0.165
  41
0.165
  0
VERTEX
  8
Top
  10
44.2575
  20
1.0
  42
1
  0
VERTEX
  8
Top
  10
44.4225
  20
1.0
  42
1
  0
VERTEX
  8
Top
  10
44.2575
  20
1.0
  42
1
  0
SEQEND
  0
POLYLINE
  8
Top
  6
CONTINUOUS
  66
1
  70
0
  40
0.165
  41
0.165
  0
VERTEX
  8
Top
  10
43.6575
  20
0.4
  42
1
  0
VERTEX
  8
Top
  10
43.8225
  20
0.4
  42
1
  0
VERTEX
  8
Top
  10
43.6575
  20
0.4
  42
1
  0
SEQEND
  0
POLYLINE
  8
Top
  6
CONTINUOUS
  66
1
  70
0
  40
0.33
  41
0.33
  0
VERTEX
  8
Top
  10
43.74
  20
0.4
  42
0
  0
VERTEX
  8
Top
  10
33.14
  20
0.4
  42
0
  0
SEQEND
  0
POLYLINE
  8
Top
  6
CONTINUOUS
  66
1
  70
0
  40
0.165
  41
0.165
  0
VERTEX
  8
Top
  10
43.6575
  20
0.4
  42
1
  0
VERTEX
  8
Top
  10
43.8225
  20
0.4
  42
1
  0
VERTEX
  8
Top
  10
43.6575
  20
0.4
  42
1
  0
SEQEND
  0
POLYLINE
  8
Top
  6
CONTINUOUS
  66
1
  70
0
  40
0.165
  41
0.165
  0
VERTEX
  8
Top
  10
33.0575
  20
0.4
  42
1
  0
VERTEX
  8
Top
  10
33.2225
  20
0.4
  42
1
  0
VERTEX
  8
Top
  10
33.0575
  20
0.4
  42
1
  0
SEQEND
  0
POLYLINE
  8
Top
  6
CONTINUOUS
  66
1
  70
0
  40
0.33
  41
0.33
  0
VERTEX
  8
Top
  10
33.14
  20
0.4
  42
0
  0
VERTEX
  8
Top
  10
32.94
  20
0.6
  42
0
  0
SEQEND
  0
POLYLINE
  8
Top
  6
CONTINUOUS
  66
1
  70
0
  40
0.165
  41
0.165
  0
VERTEX
  8
Top
  10
33.0575
  20
0.4
  42
1
  0
VERTEX
  8
Top
  10
33.2225
  20
0.4
  42
1
  0
VERTEX
  8
Top
  10
33.0575
  20
0.4
  42
1
  0
SEQEND
  0
POLYLINE
  8
Top
  6
CONTINUOUS
  66
1
  70
0
  40
0.165
  41
0.165
  0
VERTEX
  8
Top
  10
32.8575
  20
0.6
  42
1
  0
VERTEX
  8
Top
  10
33.0225
  20
0.6
  42
1
  0
VERTEX
  8
Top
  10
32.8575
  20
0.6
  42
1
  0
SEQEND
  0
POLYLINE
  8
Top
  6
CONTINUOUS
  66
1
  70
0
  40
0.33
  41
0.33
  0
VERTEX
  8
Top
  10
32.94
  20
0.6
  42
0
  0
VERTEX
  8
Top
  10
32.94
  20
2.66
  42
0
  0
SEQEND
  0
POLYLINE
  8
Top
  6
CONTINUOUS
  66
1
  70
0
  40
0.165
  41
0.165
  0
VERTEX
  8
Top
  10
32.8575
  20
0.6
  42
1
  0
VERTEX
  8
Top
  10
33.0225
  20
0.6
  42
1
  0
VERTEX
  8
Top
  10
32.8575
  20
0.6
  42
1
  0
SEQEND
  0
POLYLINE
  8
Top
  6
CONTINUOUS
  66
1
  70
0
  40
0.165
  41
0.165
  0
VERTEX
  8
Top
  10
32.8575
  20
2.66
  42
1
  0
VERTEX
  8
Top
  10
33.0225
  20
2.66
  42
1
  0
VERTEX
  8
Top
  10
32.8575
  20
2.66
  42
1
  0
SEQEND
  0
POLYLINE
  8
Top
  6
CONTINUOUS
  66
1
  70
0
  40
0.33
  41
0.33
  0
VERTEX
  8
Top
  10
32.94
  20
2.66
  42
0
  0
VERTEX
  8
Top
  10
32.9
  20
2.7
  42
0
  0
SEQEND
  0
POLYLINE
  8
Top
  6
CONTINUOUS
  66
1
  70
0
  40
0.165
  41
0.165
  0
VERTEX
  8
Top
  10
32.8575
  20
2.66
  42
1
  0
VERTEX
  8
Top
  10
33.0225
  20
2.66
  42
1
  0
VERTEX
  8
Top
  10
32.8575
  20
2.66
  42
1
  0
SEQEND
  0
POLYLINE
  8
Top
  6
CONTINUOUS
  66
1
  70
0
  40
0.165
  41
0.165
  0
VERTEX
  8
Top
  10
32.8175
  20
2.7
  42
1
  0
VERTEX
  8
Top
  10
32.9825
  20
2.7
  42
1
  0
VERTEX
  8
Top
  10
32.8175
  20
2.7
  42
1
  0
SEQEND
  0
ENDSEC
  0
EOF
